<mxfile host="app.diagrams.net" modified="2024-06-06T02:05:49.556Z" agent="Mozilla/5.0 (Windows NT 10.0; Win64; x64) AppleWebKit/537.36 (KHTML, like Gecko) Chrome/124.0.0.0 Safari/537.36" etag="LP6M32LfelWm-S9srYHq" version="24.4.10" type="github">
  <diagram name="Page-1" id="03018318-947c-dd8e-b7a3-06fadd420f32">
    <mxGraphModel dx="1434" dy="780" grid="1" gridSize="10" guides="1" tooltips="1" connect="1" arrows="1" fold="1" page="1" pageScale="1" pageWidth="1100" pageHeight="850" background="#ffffff" math="0" shadow="0">
      <root>
        <mxCell id="0" />
        <mxCell id="1" parent="0" />
        <mxCell id="56uPyoJRGfgiiEJyuFEG-1" value="" style="shape=image;verticalLabelPosition=bottom;labelBackgroundColor=default;verticalAlign=top;aspect=fixed;imageAspect=0;image=data:image/png,iVBORw0KGgoAAAANSUhEUgAAAicAAADZCAYAAAD7V5CdAAAAAXNSR0IArs4c6QAAAARnQU1BAACxjwv8YQUAAAAJcEhZcwAADsMAAA7DAcdvqGQAADOsSURBVHhe7d0LfFXVnS/wH6gIPkiEBkMbIdG0ahqrwcmV0CGgt06REQzEWMUGSjtT78QMVsZ+Wi/STEoZ69SBwqTp0M/1UojgIwYQWsTWK5i0JJgiOGUCzGQkxCiB1JiAFMRH7vrvvfY5a+/zDOSxQ37ffnY9Z7/3Pjt7/c5aax+GnDlzpgt03jty5AjGjh2r31E4PEex8RxRV1eXa/j0009DxhFFMmTIENcwdOjQkHHWfAwngwMLldh4jmLjORrczADyySefWMHk448/DryWwZmPyMsJHhJIZLjgggtw4YUXBl67QgrDyeDAQiU2nqPYeI4GNwkdEkAkjMigyg989NFH1uCEFCe8OPMTBWpDdPBwQslFF11kDcOGDbPGyRCoSWE4GRxYqMTGcxQbz9Hg5YQOp7bkww8/tIZTp05Z/3WCikw3AwqRcIKJhA8nkFx88cUYMWKE9V8ZnFoUhpNBhIVKbDxHsfEcDV5OMHFqTE6fPo2TJ08iPT1dz0HUfY2Njbj00ksxfPjwQA2KBJShejoREVFMElIkoEgtidSYEJ0LuYbkWnKaBB0MJ0REFBenucZp2pEaFKJzIdeQXEve5kCGEyIiiskpNJxw4tSeEJ0Lp9bECSdC/stwQkREcZFCwxtSiM6FN5Q4rxlOiIioW5xCxClIiM5WpGvJp0/rtKBmyWrs0O8wZT4W56boN32jpboGyJ2Mvt1q7+mVpyxaarBktfMpXYdZDxUgc6R+OwCdzTmqWbIkeJ2KfrhWA+TzeCutV7fPp3UGL7Mp589//jOOHz+O9957D5MmTdJzEHXfzp07MXr0aIwcORKXXHKJ9Zix9YNs/gsnEkxqcUU/F3QMJ3FQhWFlRxYKMi8Dju9D5W+AO+7OhHrXg1qwb18iMmUbvezsz5G6ZquByf0RStR533c8E5l9tGmGk8HLG046OzvR3t7OcELnRMLJqFGjkJCQ4AonFyxevPgf9Tz+0PImXk+bjFuvGqZHmD7AvheewKqqalQPuQZTxqv0ogrImuYTeH3VKmyoHoprsk7g5X+W18cwOuuLGHOxmqV6CVasVcu0jcbNGWMwTN3Qa/7rGJrVMq+PvhlfPLMLS1asRXV1NY7J+zHDcPxwMzB+PAZwRYDLBx98gMsvv1y/6yHHm9Fweqx1vvDhMTScSESW/kzs8+l8Bupzq/5PHDu8Cqvkc3A+O/PzlM9uipxvY97q99G8+WXUHaizpwc+W/uznKI+y5509ufoOJoPy+Wij8nZ/3q53s5g15IVWKv32br+XNdsNYZeMwXjR5rnQp+3Nuc8Bq/L4LlV4z7+EBteeAUH9up1pxzDrv+6BOO98xnLhm7XPoJ49cp1RAOCU/UuIUUCivMDbFdddZWeg6j73n77beuH2OR3TpxgYv0Qm99qTj7YV4k9iQWYLN8E5QZrNRtMxfzFk5FoTAvMBzVP3RV4WL6xy/zGa+tbfeKe4Ld7Z9y4JlSueB85ap3uL5zqG/ALHchSy3ew5iS2wOejXD/LPu/GOQy+TkXTC8vx/sTF1mcnYfHQ1YuR1eH5rK0miURVSAfnlZqBmuZUTFaf3wf7atA0bnKv1aj1TM2JhAxj/w0t1ZXouKkAmceN61RqnPYmouCmjsBxhjLP4x4k3m1cl+q81ai/Ave5UusKfAayPy8BfxVhu92s7WHNyeDFmhPqDZFqTnzXIfayxGS0dnxgv0mZjMWLH8as6+23He0HsGP1EixZsgTLNx4IzDd1otyEbdddl2q/HnkFktV/PuhoxYGNy61lpCA90N4hU5E8Kytwg5egY003+7lQXK6b9bD6jOZj6v73YZ3Z4x1o3b8Ry53z6YwfMwtZ+oSnXD3V+m9HO3CFEzRS0jD1WIcqShVjXtNlmVnAb2S9ldh3XI/0I3P/JQRY52IJVr+mxymBa3ZkonWdYmQmsvCSNV/lPvu6Dr0uO/A+rkCi9ToK+QzGJOq/icuQeh3wvj5fIdslIvIh/z2towqp5I0vRSx8ps5frApDe7BqQ+JgF6B6uZBvii3Y056jp6tCVo+l7khB1qxW1OpC1apFcc63Uzt1bD+a9Gfa8pZd1CaOChaaaDmEHYECNZLLkHm3rPMOYO8+Pc7fWvZKDZ19LuZP0SMjuCyzwJrvDuxR13+46zJRRRMd9qKR4OEEPfX/TQeMEEhENAD4r88JRmL8lAQc/GfdTl9dhwN/SkXWlPFIGX8Nmlc443W7/IfNaMZ4u+3c0weiuTMRn8/8PLqql+u2fN3OfrE9zWqbV/nsRP3P9fTTGP7FJHx+/BicZp+T2IzzPWzMeHWe9+BMVjZu+PQ1LF+1wTrfdv+S4Tj2pw/w/r+vxVp1nvemzkfhDSOtZU78Rvez2JuK+XNvUOf7DI4d7kCi+gzk08HFZ9C86ufqMx+KsaNfR7m13jpgwh3259yDeqbPiXv/h554HT/X5+L0JZlIuma8+5p1lr2iGZW6P03dkCzckZWMD0OuyxSkjGzGCldfkg/x+r+p5aTPyTVAq3Vdf0at+yCesOZT52pyod2HS31eIdvtZqcT9jkZvNjnhHrDgOlzQr2jf/sKSCfRJqTmBpvf/Ij9KWLjORq82OeEesOA6XNCREREgxvDySDRv992L0Omz2tNBGsEYuM5IqK+wHBCREREvsJwQkRERL7CcEJERES+MuTw4cN8WoeIiKKSp3Wcx4jlEeITJ06go6MDM2bM0HMQdd+WLVuQmJho/USBPFIsT+vwUWIiIooLHyWm3sBHiYmIiGhAYDghIiIiX2E4ISKi/tWyHvlDhmBIYMjH+hY9LapWrL8n3nlpIGE4ISKiflSLpVdVIf9t+9/usYcqzAnzL5PH0vpMPobcs15FFhroGE6IiKj/tBzCGwX5uO0swohX8n1V6Hp+DpKtd1KrslRFHxqIGE6IiKj/pKRhQmUVXo3QNCO1IUvrarHUaPZZWqcnetUtxZAlEkdk/rG4v/IxTOpWMxH5BcMJERH1oxwsqp2A+6+SEBG+puOxnFdxm9Pk8/Y6vJETK2yodXbtxI/U/3aeQzMR9R+GEyIi6l8TF9nBQyUTq6bD029k9vpvqbihpczBIz/cgKoa9iw5nxnh5CD+ddEmjO/2UI039BqIiIjOmhVSjmAd7seDz0QOH2nps/UrOl+x5oSIiHwkGbfNih4+DjVu0K/ofNUP4aQVz943DMOGGYOrd5N7+uO79Gil9bl7jOXuwbPv6AmWOjwemOZeLmSb9z3rqjKMvqy26/Hg8nq457ngWuqWuqe51vHOs7jHmBa6fUXPE27brnWH7Qlm73+4ZaOfsxjrdh3z42oroaz1hzuecKIcYzjecyqDec59xTpX7vMb9ZoQrusi9PyayweOO8x1aA3WZ+C+joND6Oce+JuI8rcX81xH2hc1RPvbCH8NO9dq9PNgD8Y83r8tNTjbdl/7xhDYfrTj9dwzZPBc5679inBMcV/zH9Rh+Yo6nNZvLae3o+TvN6FDv+2ujhcfwvLd+k23NeHZJ55V/98HWlpd51U6sz41ZwMmpNnP3IgNc54K9kVpWY8nfzAb+ZOD0yN7A4fYEXZA6ttwYv2hjsOGvGacOXMmOCyaqGeQG4J7+qO36EnqRjiucWFwmZoszE1zblKyXC72VOjlDq3FnsnBG3Ld0nE49B29nBqqM+dinOsGFXlZYd2EJgPVenl7qMbCVP3HofZt+1eMadY6jH37JbDSWFa2v8C8EcpNPu0Qskr0e4PcYHP3rUWztWwz1u7LDS00dm3Hnvw8lLziuUFGPWcx1i2flXnMNUBuSAhpxY5NQB42YEdI4ecR5RijKa3R27eGamQVjos73MRN9i1S4RIX9Rn/dA/y8vVbEfWaUOT8pm3A7EPOPI/C+SsQcs3lojqw/PNf09faLY8GxjlDc0Ue8vKmqu+bE/GoZ5psNy9/NqZ+zl48YNdq9anl6Tc2+TsJ/u01Y/amGOfa2BfZB5SE7q91HIFrzB6q1ZGFK+jHNWahVL/3cl8H7nOFfPf6nW0nf+15Yxl7qFbXX+lX7KVjH28e1gY+HzU8c69+RDXOv0ul7pfqG755XUSw96mNSLt/Iobr96Lj5b1ITD2CHX/SI2Lo+PVy130r8a4VePhm/abbUnHvtCP4+a/PNhp1Q8tTGGs8iTNkyCSVT7oQKBaU2evT8Koz/ar7MaE2ng6uOfjWeuiOtnxaZ6Dp03BS98u5gAoBgRutl7phzs2sDj9dboTm1XrLrepGtgdN8sf4zg5sqCrFQme5z92LlRUqbf/OvllMXGSEHGXiV9QtcF+TfXOMsawUMrmlpaqQ9twQ1buJzjrVvpnrx+dSkeXsm7qd3bsoeFMTqel52NTofCeRgk1CwKO4VY8JksJ/E0q/4yyv1vXkWmDTDveN/ZUSZH1nIUpLtwcLPxHtnMVYd+vv1E21Yn7wmNW6JFStNm/ecu4wGwtVuRQ4X2FFO8bumIhbVeGypynatjQp/M8pcMSv9bkFqpBbqM6EIeo1Yf8tZNU8j3u9oUGofV8mBZ/52UVUh9WF6ub9l+YVFmT9zVnBxVSHx1XwXPidLP1e1GG7us4Dfwf6etjz0zhrxcJx/naMQl1MXKQKcxjXkhyvBLFF4a6OVjTty0NapIKo5RA2ZaZ6ji8C2Y7an1utzyXW8TbhUFUWUsN9PmqOeP4urePHQizM1O8jqsNLHdMw7TP6raUJG/elYf6D1+HIy576iw8O4NlH78IXpMbm+rvw+I4OKyyNmfU99eVDanL0lyu1fQlbHS+6Q4vY+9Rq7LVencaB576Hu65Xy437Kr73a2NbN87CdXXbzv7zj5fTGdYYQi/927Ao7PRkzHneCCqyrsWBrrP2755Yy/BpnYGmD8OJ3AzyIt5EhRSyzrea+Oibh9yg8tNU1g9KTs0yAkAYzg0txrKyT3lmIR2H1ueWoSTct1WLFCbqxhY4TnVje8YbfBxyg/TcmKWQqzoUrG4N3HCl4C7B9mjfdC3ODTeOdXtIqDKDgVPwTfxLVSx7b8wu0Y6xO7zXkNR6yc3YGXTNhLopD0ubi02l6hu6jFff0h2uqnhXE0KTe13xBht1/hdsmo2VXzOvoFDua8IuGO1CMpQVDEMCRQS7tqOkZGH4kKO3EyyAbXVLc4GaOD6PGNdDLK1Ne4CSW8NsJxlT84yaPvWF4Pm4gti5CQncXnEfbzx/O3YArI7nuN6sBb6c46o1wZvb0fGVaUgcfityTm/XQUJ04KXFy3Hq3jX4T6m12f8cHp6YaNUSNVeU6poed+hN/HIaDr1iHJVa30sfZOEmebnjcSz/YD7W7FfLvfUcZh14HD//D3s2qT25NfUQ9vRB5QmRV9+Fk3ea1PfGSN9EhP6GBLuNNrTwcLNu9uaNL9y3J6d2xEW+xXtCUMRlZZ9Uce4030SjCilnvxdgpasKWAQLxe24Vd1UXN+qowp3zoLfwOWGu0mfB6kRCmnaMYScsyjrTpbAUbg6eP6lEFahKsgICp+bitnxNO2chZLJznlzzp15421CqtFc11yxB7kSKqTGqKY02MygPgvhroqXwSigS1XB9aQzvhqlpctCvm2GUtfSI3ORFfgG7RHpmpC/BRWIofYncGxGGGpq3KSuuSaj/0i4PiMizLVsCP28Ffk2r87B/JDrzw63y4ymCQkx3WyFc5HjyEsPH9rkC0D4v08vCQKbdI2APZjNJ1YAckKoNUS6Z3hrmGIcr3W/KkFuYL3efiPR/y5lXXvi/FLT2tiB5DQzmpzG9t+NwKxb7HE3TQVqd+jeKK07UJf5KObfmGi/V5FmuCvVhPGZaZjYsjEQcDr+Xx2S75Ro0oHtv0/Fo9+6DtbaLkzExAfV38reYJBJHg8cOKzfEPWhfugQG426Cf3U6J8Rtp+DYhWUWfF9K/GQKnhpOoo/HHjIt3LnhmXum3z70/u9UhVF3gJFmpbsgu9WbJdle6TJQVcvO4WTNNtEKlS7e86s5i1V2DvH+oi6sas7dyCoyTf2QE2AfBMG5v6yJ47Jzd3XwD53wULCaFpTrAIvIm9VvIer9kEKrk2xO9LpZsiI11K0a6JqLpZJYNHTpR+GWeiWTLZDrDX9kIp+Rl+hANk+wgUNYRfGa79hft4SZvZg7ZPhz8HERXafHuf63p4u/VXctYp9z9uPxt5H51x5+5VYATVMQLGDmruGKerxGp+dNVh9huLo2CrU35o0y6301FhF9PFwjHBlk1rseGKu3Wwjw/UP4KGXa+3Osp+cxvXqy1T3DEfOl1XgeVNed2DH3mTceo28Po3OfQ8EtyPDyK/iIaN2dPjlai5XL92+J00zVffFeS7pvNF34USqPY1vFuHluW+cUth6q1nl26jVkdBTLR3uW5inRkS+OY/bNDu0LT/isslIzfT0cZBv5fpm5e5OGCQ3zGpVuIXvh6FutrKst39IROHOmf7WZvWXMWsX5JtfmO1GOmfR1q24bvzPqK9vRtu/NHdJATtO39TGSa1K3Md0ttS5qzFrhzzNOpNjfc/3VMWfk25U2ysh10S+u/CSWi+zGbLUbHaRmqn80M/KanKM1PzjCo82u2/MyghNQMIdBB5N7UZ/jjDcfavcrBqPs1q3fQ1EWm/y11Zibci58oT4gG4crxXWzWbNSH87Upum/tYiBMDwVOn/sX6pdLy8DYlbgvslw+uf2YZt0jH2guHYr+5X3TV86h3Atu04/d8bsSf9jmDgnPgijhnbsQbjmj59Qu3bhfoNUR/qw5qTVKTlRyqwhQSBWN9WVYFgFbKejoQpacjzhBi5+bmqlHc9bgcTT3NLrGWtG2zU/hS9yT5nrnOimwRk7+w29OCTTdYgN27X/kY4ZzHWHcIKQk5wsfsyuJ9ealaFQjx9Xs6NVajpJjfvk11WU05UcdSGxEsKf1e1/zjM1c0P4Z7acInRt8Hbtycs+XYepj+JTTf3uGqJ7AJ6k1FTYIU5q0kkfFOIFX4iNMvEw6rJChtYI4WF+FjXQETSDKRfOqLWMAXFOl5pprJF+dux/k7czVC50sIoXyAi1JYmp6vA8V9O9UQTNu64DrNu1G+1m/Kuw3bprJo8Edf/7gdY/abTEeR0sGbjwlbsb4pUzXETbr1wG5Y/24Ss/+lcFcm4DquxfFsTTjvh6HRH8LXSehi4PmKYJeo9fRhOdI92dXOMVDVq9Zkwng6wOxE6haUqZIctQ1pIIauobzULzfZjqwnDaF+WppifpoUGExFjWeubmLq1jQvXvKTVPeeZZhUcuj+Gev2s53ilI6nTTyQ6dc6+Y54T+VbmPH0R4SkNq7bJ6f8R5ZxFXbeXBBx50spuQw/bl0Et5erk2CvszsRmbUGwP5BdILu4asT0/p3L0ycmpwbNFc7sR0/labOo14Q6c+7+Dva+OwVjSH8fKVw9T46YfY1C6CfQ3B1upVOyub9qCPTLCe0ca/XPiRh+4iRPeKnj9DbNyiO88YQFyzve38BwdyhvVdNN9j3DXWMUtYZJCzle73Zdn1+Uvx1vc5AarMeXpXkyUi3bF9X4XbpHyJsb0XrXfaFfEK6ZhVv3Sb8Rte3lC3G6bKZ+WudrWF5nB5XkKXlqQ1/AsHFfCvv7JhJwdrROxFTjqaCbHvoF7viPH+B/XC1B6gvI/fvV2BvoANuKusZU3HQOlwDRWVN/PF328Meuf/nu811juz280lUXWEccw6G1XepPqEttOjDkVTQHpjdX5BnTSrvUt/Mw480hr0sVCGqe5q61+cHx6mag1+ke7xry13Y1h5knuGxwUDcY97Iy6OVD983ZJxmqu1QR4J5eUu1atzPINsJt27V+Z9maUmP/3YOsR85p7HMWYd3WEP18httP+7MNfmbhhkjHGG4Id87Na8U6B4Fp6phq1PYDx2DsvzpP4dep91XW4/lMurOf9iDbi3BercG8Jpz5jenea8J7bK5l5ZryjgsOzucfbppr8B63uc0I11akwTpe7zHoIeRzjDCffVze6yf078f8XELOs3e/o12T0Y435D4Ver4j/+24h9jX0vGu6iWlXS+3h5vWj0P9E11/Z1xHp0+f7jp58mRXR0dH17vvvtu1f//+rt///vddROdCriG5luSakmtLrjG51obIRaf+uBT5t3X240n7TTeMwsaluZig3xERUTf96SWUrBmLR//hJvcjxf2mCc9+9yVc95O/sx45Fp9++ik++eQTfPTRR/jzn/+Mzs5OtLe3Y9KkSXoOou7buXMnRo0ahYSEBFxyySW46KKLcMEFF/jtaR0abNy/O+IMkR6d7Xt+378+8Y75eL8x9MgTZ2T5zB0ofeA6nwQTkYy8JcFgQtTXjJoTIiKi8FhzQr2BNSdEREQ0IDCcEBERka8wnBAREZGvMJwQERGRrzCcEBERka8wnBAREZGvMJwQERGRrzCcEBERka8MOXz4MH+EjYiIopIfYZNBfoTt1KlTOHHiBDo6OjBjxgw9B1H3bdmyBYmJibj88ssxYsQI60fYhg4dav5C7EGsm/V9vHDPj7HxvmvtUYaDz8zC95+/Gz/eeD+uVfNWqnnX36fmvceZ931U/+SbWI6H8X+/m4srjtfhZ/OewH9P+x4WzpuIlOFqjpon8M1lV6t1FKh1eOYPtw415uDzarvPzNHLaAcrMev76zHnxxtRICO97y3ufTxZ/wt8/Z/ex8OrvofcMXqWMN4/+ApefL4SL75xDGPyf4h//foNGKanERENVvyFWOoN8guxJ3f/G36yZQzm/dNC/HVGIkZc8N9ms04avpSfCNT/Ow6e0aMcZ/6IP/wGSMz/kppLXIRh8uIT6412DG/v1C/FkbfxivpPzlQ7mIhjRw7YL/rBpSlX4wbU4a0j3oNzu+Lar+Abi/8VP74nDceqavHHk3oCERER9bATaD3cAmRPwl9+/lK7MuC9o2Y4GYYb/mo+Jr+/HqvXVuOt43r08bdQvXYdXsBkzP8rpxYhBVdPkCDzB114n8HRHb+2wkjAyCtUGADeajlqvT3Z/Ape+X336yASR8u/d3wM779vvw9Lbcua6096Jldo0sbm4K5piXhxfSV2O+s6fRQH33wLcggnD+7G7paT6kjER/Z/E6/AFZdaI4iIiKjHjUDCaPWfo+/gHSmMP+nAG799zdMhdkwuFq74F3zlolr84nuzMGuWGub9A1Yfuxk/XLbQaA5RQebuxfjblDos+7qaZ/4/YN2xKZh/jwosjrG5+MbfTEbL0/9LrecBLNt+Be7+boEVWLrjyi/fj7+dfACrvqm283c/CwYLk9rW/WpbB/7PN61t/eyNcDNdipsfKMOPJ3ag8n/rY3t4OTYd1FUjJw/gxZ8U42syflYxfnHoS3h4yV242p5KREREPe5CfGHKg7gjsRZLvnUv/ua7v8TRWx6O9a8SH0X1iu9j+d4b8PATZjghIqLBhH1OqDec5b9KfCVyH/g+5oypwfKSn6HumB5NRERE1Eti/87J8GtRsORpPP3kN3DDSD2OiIiIqJfEDidi2KW49FI16KduiIiIiHpLfOGEiIiIqI8wnBAREZGvMJwQEVH/almP/CFDMCQw5GN9i54WVSvW3xPvvL2kbqmx3/awtE5P6ylyfu5Zr4528GA4ISKiflSLpVdVIf/tLnR1OUMV5qToyd3Q+kw+hsRdiKvtDlmq/r8H/HBncN/fXoc3cvo5MJ0HGE6IiKj/tBzCGwX5uO0swohX8n1V6Hp+DpKtd1Kr0kPhoztS5uCRH25AVY0P6znqliL/mYFR/8JwQkRE/SclDRMqq/BqhJoGqQ1ZWie1HHE0m0gTyxKJIzL/WNxf+RgmWctErsk4JLUtzrp1rYtVA2OtJyjcuNh0QAo0WwXDkrU+Z7sh+2ceb7hpntAlx+2qMXKfL9lva3s5j2HDnLGBcX4W+IXYI0eOWCOIiIi85BdiZZBfiD116hROnDiBjo4OzJgxQ89xDqRwVQUn8CPs7FqEHHusRQrVsXMmBMdLQW81A0nTjxT+DwLLdDOQrOe3t6FrscwpBfSruM2zviCZPglvrD+CqvvsupbaJUMwCTvV8vAsK9sZi0MLu7BoojUiyLVNJWT/VEjCOhwJ1OjoY9qYHxxnHT/0MdrLVM1y9su7jjDHJcsvS9PTvcsHyXYfxM9CxvenLVu2IDExEZdffjlGjBhh/ULs0KFDY/18PRERUR/9fL0TUgqChXm4AlVCxJPpUvhCFcTnEk48061gcQiPqHEIbENtV8YvBH5mBIwAZ58DZmOdFUzkdbhQE26cfUyv3q7GpQT3IXz4iBFOjGPwHrcfw8lZ/nw9ERFRH5m4CF1dR7AO9+PBKH0j0tJn61c9TJqY9Muc+euAja+qKKEK9ZoqYNZtocHEYXaIDenMOxtpIf1pwo0D3jikj7kgDWn2K5var24dsXf5AYjhhIiIfCQZt82KXhQfatygX/Uw6ZyrXyLlNuRD+sK04tWNQP7knqxt2IBDYfrATEjT26g8hEP2K5var24dsXf5AYjhhIiI+o8q/N11JLV4as6GYEGtbJjzlBqrtazHkz+YHWdYeCNsCAh6DE8aNTS1q+/Hhh/epptDkjFn4QRUrX5KRZSeeZrIZoevx5YZHVjrlmLSD36E26SZR0JRgWe/fms2G6UhTU1/NdApuBXrlxnTwyxv2tA4MGILwwkREfWflqcw1nyyZMgkVRq7+2PMXp+GV53pV92PCbXeppNwcvCt9cD9V8lyEZ7WKViHR/BgYNuT/rgOR5yOrWLibZjwg8cwYWGYvibnQB55PjKrKnjcOW9g3dtOHxEVip7fiQnOUzVqePX2nfiRNU2o6cvkt1T0skMeBBauM5p9Qpd3nsxJvu8R/OgHk1zj/IodYomIKKY+6RAbRr924ozSuZR6BjvEEhERdYO7mYf6EsMJERGRQWprpOkjpJmH+gybdYiIKKb+atah8xubdYiIiGhAYDghIiIiX2E4ISIiIl9hOCEiIiJfYTghIiIiX2E4ISIiIl9hOCEiIiJfYTghIiIiX2E4OVeNm1FYWOgaNjfqaQNSJ2rL3MezsrZTTzu/1T85GqNHm8My1OtpXu55jfn+sMwYbwzffAHH9CzHquaFHR9J6H6Nxrwqz1LvvoB5o+fhhXf1eyKiAYzhpCfkl6CiosIeVhShqXQlatv1tDAaN6lCf5MfE4wEk2KUpxjHU1GG7N3F/bi/jdjch4Fv0cvv4b33nGEhsvV4FxVApjWswn493/5fvIlpT+p48hcLjeWd6Xfizr/OxRiZrpa9/ts3Ypueti3jAVzvLBuFe7/ew5p8a20Bx2q3AHcBW2pjRR0iIv9jOOlpo3IwPb8e9Qcj1zak56lCPy9dv/OPzto1KEcRylz7loCc4hIUVG2NGrh6THstVrqCUDpmqpA009mlkOk95RgON9yJcZ/Vb6M4dvjNYNhQxuTMwJ0NhyPUgNTj6W8DM3Lsuet3LMWdv/h6IPRkP7INix6viVhDE59jqP612kbRDODX1TFrYoiI/I7hpFdJTcRmNEqBajWRqNcytnal0VTSiM1ltWhU4wJNKVL4BpYJLueQ5QPzqiFYqxC6vT0yr6cwt5YPU8C3Ha1H9s0ZKo54pSPDCFxS8+OuyZDaDbO2yK7tCOyjOr5AVGvcrI690d105OyLNJE9VI76qlJjOTkmve6Q6b/Fb9V63PtiN0v1Zk2LhBEzBFi1FkZYcflDDZY+Woy7rdAjAQi4cbw553iMu+tNHD6X5pg/PI0HMAO5f5Gr/n8Lqtm0Q0QDHMNJT1PBYGtVNrKvdYr4SpSuB+ZZTSQzVTEfxq5ybMU83YwitRSq8A0sU4GyoiaUGmGiLWm6nlcNVjOSGV7c28vKma7W12BM70TD7noUZHr3pBNtLUBqUmg0EUlXZqP+aJt+F4MKEhkr9P6poSSlHGuMfiv15VuBOc50o1YmfSYqSgqCzWTFOe6gFDL9dtw+rQCV+4wk0t6A+l0FyFCHZ4c4d7CL7DCaX/wVHrghSr8Ox2fvxpqiZlyv5/sufhLSzGI7hhfKl2LRVLNxKFztzK/QHCNQLP1qcL9Ge/qWWLUxVjgag9y/ZtMO9Q35V3uJekK4a4nhpCc43+RleKge2SsWIGeUnqYUTPMUsiEKMD3HmUNqKdzLJCSl6le29HQjWIxKgnuqd3uyvkpsdcKBFN4owpSwKamHjEpHunH8Emxc8qcb58eulWk72yaj9AxXk1PnwXqgaIoVAhNyFqgQEyEQhsjGQqNPx3vvbcON374+QkCpx7KvSvPMfrz38iL8Ss237A96ksmq0ViFr/+Ffn8O3H1O1uiaGFGPmsfvDDQbWbU63376HJuJiOLDgELnKtI1xHDSE8wOsRXuYCKFXpLr/blzN+uUolKPt4VuLz23CNjdAIknVuEdtukmAUkpQFNbsIbDZDX5XJmk38XibtYpLu/NojIdU9Th2U1OUiukzkCg1upcqLAiwePQYf0+qP7JaYAKC1ZtidUBdhvw1dAne4I1GqZwtSTx9XUJS5qN1DoDNT43PKDeLUVNuLBE1EOkQHEGonMR6VpiOBlgJJgU785GWSAMlaBAT4toVIYqauvR0B698LaabnSIcWtEg6upKhoJJqVAibN/0iwV9pmXHpNwrVq/7LdVK5SNjB4Kg9LxNVS4jrNh+o28+wLKHl+EYldzzxiMzwDePGzWxkhz0o0Yf5bhRAKQ90keeTpo6Q7WnVDPMwsR+e/QoSxC6NzINWReU85rXlkDUUpSoOajs3arp+YknATkTEtFffVrUQvvhJx5KEI5il2dZaWDaSkqjaYYCTFmP4/QfTBrbxrxWndrTlrawgQkg3e6PCGVUo/XqiPVCsXh3WOep1zkKZtfefqLCAkYv8ID641jkuYbT8CQTrK/enSyOhNu2XNWuZpdpBZmaZj54qID0GRPs5H19NDjNfodUc/whpILLrgAF110kTWO6GzJNSTXkjekMJwMMAlWB9dgH5c1mI6iW/TEaNIzkFpVidSo/V/kseEyFLUYfWgKi1F/c5nr0WcrxBjzuPfBbmYpf8hZvgEZ0ok1XulT7IAky5pP+TgiTE/PTEVlVarRd8euZYq7Q+xnD+PpQIdTGeymm4W64Ld+OE3/Hkn2I/uxqmFacN6vAttcv4liPz68ak6YyCGdaV8Gpullrd9LeSR2NHF3iLU760YKQPhsLmbctVS/Ieo5Umg44eTCCy/EsGHD9BSisyPXkFxLTjgJBJQzZ850Wa/o/CaPFz/UhulxdxAVUmuif5TNh7/LYrKau45O77X9lF9prZkaDCtEg01XVxc+/fRTfPLJJ1DlBk6fPo2TJ0+6O+gTdVNjYyMuvfRSDB8+3AoqgVoUhpPBQX6bpBRnEzLsPiSVKEBJt4JNXwr2cwn8WFuPqsey0TWYHOkXY4kGAQknTkD5+OOP8eGHH1rDqVOnrP9KYPnoo4+s6c68RA6z1k2aciSIXHzxxRgxYoT1XxlcNSgMJ+c3q0ZB+nzcUoQy7++GDHi6ZmcXkF1UhgVGkw4R9Tyz9sSpQZFAIoMEFhlnBhMGFBKBphodUKR2RIKIhBQnqMg4s+8JwwkREcXFCR4ySBBxalGc1zI48xF5OSFFAogMTkhxXjvhheGEiIi6xQwoMpjNOM5AFIkrgKghUFNiDNZ8DCdERNQdTgAxw4j3v0ThBMKH8V/vOMFwQkREZ8UbRBhMKB5mCBHe94LhhIiIiHyFP8JGREREvsJwQkRERL7CcEJERES+wnBCREREvsJwQkRERL7CcEJERES+wnBCREREvsJwQkRERL7CcEJERES+wnBCREREvsKfr0cnasuKUb5Lv1Wyi8qwICdBv/OBxs0o3JeBirx0PaI3DYDzQURE57VBH04aNxVi65U+L3z7LJzoYJJSYmwr3Li+1IjNhaVASQVm9sfmiYiozw3yZp1OtLVkI/ta1gqIzto1KEcRylwhJAE5xSUoqNqK2nY9qje112Llpkb9RqRjZoURTEKmExHR+YY1J7FqTqTWorRSvylQX+BnquJSk4LyoXLU67fB5g9P08gtqsAvzlHFvGjE5rI2ZNxcj9JyZ8lo61XTSoBSo+aks3YligPLqjkCtQqy3deQNCcJW63lC7CwqAnLjk531XpYy3vGiWjnwpwmrxsyzZoMqd3YiqQVC5AzynlfCuesuY5fnc+VbRnI3l0aPD/5ulbGda4Va7kMNJStAeaodbd7p8/FXKzFqWnmvtjnvs01joiIBpJB3yE2Pa8EqeXFKCwsxGbvF3IJCVaLQgUq1FCmCvrSslpV/AlVAKsAkKqCgUyTwQwm9TeXBcaXpJSj2Py2v6scWzEvOD2/Eltr7bWGrlcVzmaBrLQlqWChl61YUYSm0s1qKUclStcD86zpM5GVMx0FVQ3G9E407FaxJdNbckstEpCaFBpMRNKV2ag/2qbfxdAOZKxw9t8+/jWB4wPqy7eqsOFMN2pl0meioqTADisyLRDotJDpt+P2aQWo3Gec2/YG1O8qQIY6PAlhhYXmuSEiooGAT+voZgMpJFFaqAqzlYHmi8bqcqBoSqBGI0EK+l1tsIroxgZUqm/2U7xlvC4cpxu1DxKA3AHBMz2zIFjwh6w3HVOKsvVrW3q6sdFRSUjVLx0F08xCPR0ZZviR/UOY/e5Jo9KRbtWg2CTYuORP1zUsQvavHm1n22SUnuFqcuo8WB/4zBJyFqjP1aiRIiKiAYHhJMAOKWVFQPl6p3ZEvuXbtSr2IE0VTcGCNCXJ/c3ecUsSkvTLIGO5WDzrTUhyxw+7RsDcJ1M2koxgINJz1UHtbrCOySq8b84Is98JSEpRe9kWrOEwtR2tR/aVoUcVnjTrOPtX6GqC6nkS3tTndNA6OjTsVmeAfYiIiAY0hhOPhGuzVfEeJP05nOYJe3D6VSgtbYEQ4+LUrrikhoSGiDzr7Wxr0q/sYFK8Oxtlgf0pQYGeFtGoDHVM9Whoj154W003OsS4NaKhKt6Ow3Z/E3m6xjlnZZ6an54mn5kVvqxaoWxkxHueiYjIlwb90zqdntoMacqp1zUX0txS6erPYZDmhF3leM07UYLALWYfErXOTaWozM+Ir3khZL12HxEXo2als3arp+YknATkTEtFffVrUQvvhJx5KIKnf4zafm2Z7H+wKUZCjNnPI3QfzNqbRrzW3ZqTSKHP4Z0+KgfTU+rxWnWkWiEiIhpIBvnTOp6nSoTz5Igj7BMkuk/H2T6tU9iADLMvhPd3TFzrzUZRSTbq9yVhgTXdvc/ZRSXI3t2ApGJZn2xXP9kSEkCCNRrRn2Lx7LsS+iNs7nnsfZBOrvZ23U8T2U8bbW2bYq/De6yK++kfY93ep3WsY/JODz4FZB9e8Lza+5HqfhKKiIh8j78QO1hYgacN07tVUOsg0G8/wBY/K4iEeTyaiIgGHvY5GSSs5qp4m5YCnB9gK4W/H8m1m45CH48mIqKBiDUn57lAE4urael8EWzi4b//Q0R0/mA4ISIiIl9hsw4RERH5CsMJERER+QrDCREREfkKwwkRERH5CsMJERER+QrDCREREfkKwwkRERH5CsMJERER+QrDCREREfkKwwkRERH5CsMJERER+QrDCREREfkKwwkRERH5CsMJERER+cqQM2fOdOnX1Es6a1eiuLxev3MrKKnAzHT9xhc6UVtWjPJd+q2SXVSGBTkJ+h0REVHvYjjpY42bCrH1Sr8W9jqYpJSgIs9JTOHG9aVGbC4sBXwX4oiIqLewWWcwadyMlbWd+k2ozto1KEcRylwhJAE5xSUoqNqK2nY9qje112Llpkb9RqRjZoURTEKmExHR+YY1J30stObE24xSgJKKmapIFo3YXNaGKdPaUFxaCdyigkNxDtrUOkqrrBmC8p2aDff6nCaZkKalwPxB0Wp1zGnyuiHTrMmQ2o2tSFqxADmjnPelUHts0/ttrVUCUlsGsneXBo/Z2Rc1rVCO02Etl4GGsjXAHLXudu/0uZiLtTg1zdwX+/jbXOOIiGggYc1Jv2tDkipIKyrsoayoCaVmzcCuchTvy7CnSwGvCvDSFlVo6/krSgpcQaNxUzHqby7T6ytBankxNqvVJeQsUOvOtsKKNc0TTKRQb2sBUpPCNzclXZmN+qNt+l0M7UDGCr1/aihJKccao8amvnyrChvOdKNWJn1m8HhkmhNoHCHTb8ft0wpQuc84X+0NqN9VgAx1eBLICgs3q6hEREQDCcNJv0tHupETEpJS9StHNopy46wCaK/F1qoCTA/UfKRjigokTW2Rm3J6xSh1TFYNik2CjUv+dF3DItKRkV+PtrNtMkrPcDU5dR6sB4qmWDVPEsgqArVQREQ0UDCc9DtphihU3/D1YDZbWFKRZBT0UnsgNRHFgfmBElctSCVKnWlqkKac+Go8EpCUgohBpu1oPbKvTNLvYpFmHfc+9B4JYED9QdnvTjTsVnHu2vC1P0RENDAwnPQru39EsBlGDdJsEZU0v0i/FD2/t2ZA+mkEpukhpAknPKvpZneD2oJXIxqqsuMs9INP1zjbl+ak3pRwrVq/7Lc06SAbGWaYIyKiAYfhxAeC/TxUWNnmrTnxsPpU6NdeozJU0ezu3+EVrRYlIWceitTyxa6nYSRAlaLSaIqREGP28+is3Rrs/GrJNmp7GvFad2tOWtrCBCSDd/qoHExPqcdr1Wo7N2e4+6kQEdGAw3DSrxKQIx06S50mkDXAtCJVtEehCuJ50mnWaDYJdvqUx37LkL272JhWaHWItabmTEdBVak9PuzjuPbyRS16HmvQNTtG7YsVYox51mA6im7RE3UzS/lDzvINyIhZG2RIn2IHJFm2rDY0pESYnp6ZisqqVKO/jYQmdoglIhqI+CjxgBJsBjIf95VCeA3mhX0E+NzY2+u/H2CLn/Wo9NHpvt9PIiKKjTUnA46374d0Aq2P+AjwuXF+gE1qSfxcA2E3HRVkMpgQEZ0PWHMy0MgvpD5UDrMXx+D9t290zc6uwXwOiIjOPwwnRERE5Cts1iEiIiJfYTghIiIiX2E4ISIiIl9hOCEiIiJfYTghIiIiX2E4ISIiIl/ho8RERETU5xo3FaK0Sr8R+cFfI2c4ISIioj4V658cYbMOERER9am2o9H/yRGGEyIiIupTSVdmo3JfhH+xrb2W4YSIiIj6VkLOPBS1yD8qW4iVtZ16bBD7nBAREVE/Cf4DrgUlFZgpLT3ttQwnRERE1M8aN6OwFCipmIl0NusQERFRv0vPQIF+KRhOiIiIqA91orNdv9Q6a7ei8pYkJMmbUUls1iEiIqK+FOxnEnBLEcqKc5Cg3zKcEBERka+wWYeIiIh8heGEiIiIfIXhhIiIiHyF4YSIiIh8heGEiIiIfIXhhIiIiHyF4YSIiIh8heGEiIiIfIXhhIiIiHyF4YSIiIh8heGEiIiIfIXhhIiIiHyF4YSIiIh8heGEiIiIfIXhhIiIiHyF4YSIiIh8heGEiIiIfIXhhIiIiHyF4YSIiIh8heGEiIiIfIXhhIiIiHyF4YSIiIh8heGEiIiIfIXhhIiIiHyF4YSIiIh8heGEiIiIfIXhhIiIiHyF4YSIiIh8heGEiIiIfIXhhIiIiHyF4YSIiIh8heGEiIiIfIXhhIiIiHyF4YSIiIh8heGEiIiIfIXhhIiIiHyF4YSIiIh8heGEiIiIfIXhhIiIiHyF4YSIiIh8heGEiIiIfAT4/7JVeoSpaVZLAAAAAElFTkSuQmCC;" vertex="1" parent="1">
          <mxGeometry x="40" y="40" width="551" height="217" as="geometry" />
        </mxCell>
        <mxCell id="56uPyoJRGfgiiEJyuFEG-2" value="" style="shape=image;verticalLabelPosition=bottom;labelBackgroundColor=default;verticalAlign=top;aspect=fixed;imageAspect=0;image=data:image/png,iVBORw0KGgoAAAANSUhEUgAAA1IAAACkCAYAAACdBR+eAAAAAXNSR0IArs4c6QAAAARnQU1BAACxjwv8YQUAAAAJcEhZcwAADsMAAA7DAcdvqGQAACh4SURBVHhe7d0LfBXVgcfxPwIBRSRIaUBYCEiNYnkVgcQHEFYlyEKCGlqxWUy3FMjyKPjCFY0RVxDRrpDiq9tAUwGJQgIFAVlePhJA5JFqCUUIlFdEIIDYeH3tzNxzk3vDzWMIAQK/bz/TzJxzZubM7efT5M85c24tj8fzgwAAAAAAlXaZ+QkAAAAAqCSCFAAAAAC4RJACAAAAAJcIUgAAAADgEkEKAAAAAFxi1T4AAKqNR0UnTqmobgOFXh5iys6N73/4QUXffCfrh+Oyy2rp8rq1vQcAgCojSAEAUG0+0eRR25TcpaM8/3GjKat+337/gxZv26f9hf+UlZ8c33z3g3pf92N1atnYWwAAqBKm9gEAcJHZX/iVGtavq6Re1xVvv7q5rXZ/8aW+8nxnWgEAqoIgdUEo0qFNq7X9C3MIAIBLR099rR2fn1RewQll7/pCDevV1c7DJ50yezt4oki1L6tl1R12jj+z6uypfwCAM1OpIHXozcEKCYlV2memwN/6yQq5b54OmcPq5u1LiGJn55uS0rbod91CrDaDNW+/KbrgFWrNtL5aGOzzBQCgEnYe/lJvfpSv+Zv26O+fn9CKvx1wjv23LfuO6UMrSNn7C7fu0/F/fmPOBgC4VekRqWbNNmv4xHkqK76cS5GxcTqYutCKTEFsXa257eIUZw7Pj+16+bbrNPmDInMMAED16vIvjRUd0UyX162jhB5tNeK2nyi8yZXOz7u7tFLHFo01/l9vKG4T/7NWatqwnjkbAOBWpYPUDY9P1XP7HtGTb5+rsaey5XSO0n2aq9VbTUGxIq1+63fqcns/NTcllZU/O1aD3zxbz3a9Rr63Q4/dUt8cAwBQverWvkwh1qZaclbnuyKkjupcVsv5Wb9Obau+lhrUq1Pcxi67rJZZiQIA4Fqlg9TqL8I18n9GKn/cI8qsYMpcUd48PTqoo1qFhCjkhp4a/vstKrQr9s/T4JBHtdpvoKYwa/hp0/CKVj6qkLvSyhn9itKgUc31u7dWW9HJT1G21sy+T7/ofbkOmiKvIuUvmazhd5o+teqo2MfeMdcv1DuPdVTPYe8oM6GVM20w5L9znBpbmc9is5/nvnnK/2K1Jg+8zjk3+QO74pDm3ReiyeudVpby7h9Mkba/+ahiu5j+WPcdPHqetjPABQAXpq3vKmTU3CDbNiXb9Zu3Bamzt3dV8hsHAFCTVDpI2ep3Haep/7FdY6a8UxImStufqd/ELdX1T63TXo9Hns1/UvRHAzX0f63Y0CJS/W6fq5zikaRCrfnLZvWLydeC90tGg7Z/slqd+3ZRuDkOJvzWOHWZvUbZ/qFs+TylDY1R1GkDQfUV2q6fHpu/wdunHYsUlx+rR5wRqFD1m7xCU++R4tL3ymPXPx7pPa28Z/H5IE3DR69R59d2OOem3GLKA5R3/yC2vqx/n1Zfv33X9GfzIk39bW+FM8AFAAAAXBBcBSk7EEQ+OF2JOcM1eWXw4ZEtbz2r7SPGK7FTqLegfrh+8etEvfOK/U5TuLr0baaFOebtpsJsrV4+SI89Okg5K3NMOMvX5uWHNCiys3NUpmsHKbHvZM1b7ot03lA27t5oq5enC43orPBQU2P1qV9cnDJ3lj0mZCv/WYxDxxQzIUX9mpnjMpzJ/VXH/KwfqvBrmwV9LgDABaDTHfKk3hdk66gUu97+Hqmg9XfI/NMdAKCGcRmkLFdG6rHJ92nuY5OV86UpK3ZI+Vu2aMvD3b1T0nxb9GRpa5EzDa/zTf205f3tzrS2wg+W6eX7I9W5a6Tum71a2XYmOrRFq1fep8hO9vXKE6recSOV9pc13gD22UKlbblP0UHPK9L2rMkafldPXWf61Coh09SVpeJn8RqkqAr76vL+nUbqtQd2a2xUR8WOflnv5JU5/gcAAADgPHAfpCz1b39Mr0am6ZGXcvwCha2+6l3pN0UuYHvM+69uN0ZqZFa2/lZYqOxlL2vcv0apfv0oxTz4spZ9UKiiv2Zr3vDe6lKJ4ZfQf43TY8vTnGXD89fMU9GIQQo2jpU/++fqOK1IcS8v0jbTn73pFa3rV4lnqST396+vzv/5J23LXafn+kuZozvqumGZ5bxTBQAAAOBcOqMg5bxXNGG6wl99RL/LD/VbajxUN9zUT5k5m0sFLD+hXRR1z8vKycnWmlfHKeZWOzHVV5dbR+rl97OVvX6u4m7tYl2pEqwA1nvoZmVaIWrhK/X1i97B3qo6pJxl7yhu1Ej1ax1aPD0uf3tFI1KVeJZKOdP7W+qE6vqYkXp1xQqN2z9GczeZcgAAAADn1RkGKUuLOD09uZmSH54csOJQ+D2/1bi3J+vRN7eo8FtvWVFhvnK2+hZWaKbI26OVM/MVzfUbeQq9JUYj33hF//PBDep3UwUvHBWrr+h7x+ngyH/Xo50TNehaUxygmcJ/2kw5Wzab/hTp0LJkJf+v/z28bfK3/y1gEY2Kn6UyKnP/UvZvUc6ewuIAV/TZFmX/tYuaVSpdAgAuZZ5vv3e+dHf1jgJ9fvJr5+dHe49o79GvtPzTg/rboeOmJQCgKs48SFnC75+qVzsfUkCsuDJaz308VeErx6j7Fd73gToOeERzd5aM64TfFKNjy97RoJiokpGn0ChF931H7xyOUZeggagMnaJ1Xycp8d96lzmKFTl2kR7b96g62v254U4lfzZIb84daWq9In/5qqI3DdePrf5eN/Id7zNV4lkqozL3D1CUr7m/LXmfquMDq9Vl7mwluvlcAACXnBahVyikzmX664FCbf7HUZ0o8jg/dxSc0OEvi7Qh/wsrUJ1SS6tdqPU7CQBw5mp5PJ4fzD4AADirPCo6cUpFdRso9PJzE1y++e57Z1SqLPZ38Navy5fxAkBVEaQAAAAAwKUqTe0DAAAAgEsRQQoAAAAAXCJIAQAAAIBLBCkAAAAAcIkgBQAAAAAuEaQAAAAAwKUKlz/PyMgwewAA4GIRHx9v9gAAZ6JSQeraW/ubIwAAUNN99v4SghQAVBFT+wAAAADAJYIUAAAAALhEkAIAAAAAlwhSAAAAAOASQQoAAAAAXCJIAQAAAIBLBCkAAAAAcIkgBQAAAAAuEaQAAADOigJtWpilrI0F5vhCdkp5/2f19f/yrD0AZ4IgBQAAzou8+YM0aJC1zcgJ8sd8gVZOMvXz80zZOebJU8bIQZqwZJ8pqEihdv1plmbtLjTHpeRleJ+neBuuCc+/pqW5x0yD6nVszXMaNPI1bTphH3lU8LHV148LrD0AZ4IgBQAAzp82bdRm1SblOn/c+zmYq+yPQxUaao4ryWOFlfGDMnRWoldIhOJfXqgp/VuagrNjyJSFWrjQ2t6aoXExjbXpxV9pghUWKx9ojmnd84P03HvuAljj3o9q4cu/UderTAGAKiFIAQBwnn33/Q/6++cn9P7fDwVsdpldd1H7WZSi2qzU2q2BoaAgd50+7hOnuPamwDiVl6XfPzVBw50RnUSNfnaWNn3urStY86IenDJHuzVHE5z6kkB1audKvTZpuHckaOQkvfZ/u0qCizNSNEs5O9dpltPmSa086FQow25fPCJWoJxXn9OTYxPNdSbo90v8ruNW7RCFdYjXo7+NVcHcV5WVV3KlMvt7KlcZkybodx9KOVYAs+t9gaq8z8Z27L3nrPLntO6IKQjg0b73ZmmS79kSR+vJGSu174wfDrj4EaQAADjPDp8s0sl/etQ1vKm6t/Fu9r5dZtdd1A6G6V9ua6OcNZusmOKzSznLcnV7tw5q/J0pMho076DI+x7VDGdEZ4pi62bpmVdXOueG9R6vUf3sVkM0xa5fGK8I+3B3liY9/Ia+vO1p70hQSi99+edJSv3AP7xl6bnXt+v6X8+w2jyt25ub4gBhatnzdv1mUppznT8nddBnf5ikjNyqpY2QG7qqlxX/lm7d7S0or78NOig+6X5FWs0ix//RqX/0tsbOaeV9NhXa/Y5efDFLYb9M9d7z5Ym6v18HtQwx9QBOQ5ACAOA8+ua773Wg8JTaNG2oy+vWVkgd72bv22V2nd3mYhbRuZfafJytXGcUyLI7V2t3x6rnz75RwXpT5nNVW3WNaCzn7/vaYeoaaUWKj4+pjLeSHHkbM5XXJk5xvcO8BT+O1B29C/Xeh7nyj1K3D7ICSvPyk0NLK/S0NFPjGnS4SVHWnfdZ/xtVSUiIGlg/CvcUOP2pbH9PcwafTWm78rbrmB1e64cpop25P4CgCFIAAJxjJ4q+cUaa7O0fR0/p2++/l+fb74vLfJtdZtfZbXxl9rkXnTYd1KvNx1qX6x07sYPEsXu6KiJIpjm1N0cZM3zT1wbpVy/mmJqyHFPBHitK7J6lB805gwb9XE9mmmo/P25sx5lyfHdMuUteK5n+NmiC5piqs6fy/S3N/Wfjp00/Df9lBxW8/Yx+NWqSXltihbZSo4EAAp31IJU7PVSRSRkqPf32SFaCJmRV43Kgm6cpsnVoGffYoFlWXbB+nX8FWp6UoOW+f4ULyup/cd/t9tOU6+z7eJ+vWj9fALjQncjTRwtS9cqzE/XKq+n68NPA1ciObFust6Y/o+nPTtNbWRt05GtTUcrJvBVaviBdi+b7bQtWaMdR08D27XHtWLNYH247sxXP9h07pc17v3C2nZ8fV+FXHm39x5HiMt9ml9l1dhtfmX3uxaetImM6KPfDXBV4cvXRO9LtnSK8Iyv+TuRo1tjnlB0Spyfm2lP3FuqP4+1JbuUJUQN7BKnHOL1iT1nz3x7uKe+kuMrZtWiSnvxDgTompepN5xpTNMTUVYnH46xaGNq2pdWfM+zvGX02/kIUcc/TSp05UQ/85HNl/+FJjX++ktMCgUtU9YxILRmm58/DH/W9+w/QmuXrTg9Lm9fpFauutzk8F+zgeNaC28E92n59azVxDvbooFrrGmffcjBDE1rPkB4cYAoA4BJ0cJ1mJfXQqHETtWbbDv11zmiN7zdQryzf4wSdk5tT9d8DEjTtJSsQZc/QtDF36vm523TSe7afIp38JEPJ40br2Yf9tnF/0LbDJe8qefat0BvjEjT+pUXKL73aXCXUvayW6tT2/gq2f14RUkf169ZRbavc3rc3e98us/f929rnXozCOvRUh61LtW7xNq3UXbqpQ5DhqIP/sOqkqN6RalnfW/T5we3enTI1UMs2HaT1u/R5lV5lOqZ9O3dLN/dSz4gG3pB3pEC7nLqqObZ+qbIUobiftbWOzrC/Z/TZnK5B866KHT9DU8ZGqtDqV455bQvA6aolSI2Y/ro0Jr3UqEn1W3P9QKVokT4qNbqT+94zGtF3oDmqhM3Tqjy60yQ2XTkz4034qaJDe6TWrb37AaHKeraMRYrOSdcAUw0Al6SmnXTzr+fr9Q8Oad68+Updul4P9d2jNautsPRVgXIz0/Vhl4eU+v4KpS7cptefuFOb5li/p8qYDdAwPEFTrGvl7Ck023zdG2H+OrXC1oH3Fmm5PUK1crE+/Oy4t9iFn4Q1UrNGVzj79s9bf9JMXVo1UdOGlyvq2jBns/ftMrvOv6197kWpeQf1/NluzfnzW2o8sKt3kYjSrmosK2Jo1z7v7+hTe1dq5QeBgSu0yc+s//5cx/xeJgqLjFW/0Cy9MX9T8XQ1z+d5yt3tZnSvgRr/2PphBZZ99mnfHdOmFWu1y+Xy7AE8p7Trvdf03Ivb1eGXierXxltcYX8bNlZL674Fn5uHtNtU4rMp18FcrcsrkMc3nc/52VJhVXk+4CJXPSNSreJ1/4PPaNj0DaYgGDPdzmyzNttlpae52cdWvd91nJGeMq/bWjf1lVZv8A9BG7TphYnq2t0c+pipgL7NF5yc68c9ozVjIrx1xfcyfSnV3mafM2tzSb3zLPb1S/fbnFvcpiK+Pvr3J3KY1rxwZ/E1OliBtW/QlYUA4BJSp5Gu632nOvj+Kb5OfTVs0Ej27L2vT+zRtq15uu7mnopoatVbbSNuvkMdDq7TR9Yfjq6d2KEPV65Th+HPa8Ttefrg3a068q2pQxWEqcPNdghqo16d7ZGZIJr31AO/vk37/jxC9pfZvri6se59ON4JED5ht9yvYbdt16u/GqRBI3+vTXbWuKqrfvPSFEUdy9CEe73vD41+IVPbv/SeUzkh6tBvomIbr9OTvxykxPFpKogcr1FnMN1lzgTz7tPwCZq1pbHumvKinr7HbypjRf0N6aDbk2LVeOWDVl2iRi/ZVanPplzfFCj7j0/q5+Z+T664Ug88O1yRbuY+ApeYWh6Pp9wvqMjIyNC1t/Y3RxWz35HadFuhHuhiB6U7pUx73xskntc0TYm1V4CxQ0eEDg7z1jnT0yK9IyvXZITqjdZ53nZ2+aRFVoOBetiM7pRc3zrwZ4eO93oqJ36PdY6K25dVfmSzFXK6dDcjO3ZfZ6i5dX87lAT21cu+b3G/nPaBz9Z/jJRiznf47jvGm+Byrft1sO7ncJ53j+7f85D1f3D2Z/GQ9ETZgSh3eoIOxJf0bXGr9NOeP1ifAeBSdfLTdE371URp7Ao93nuHpt+foC8S1+vpBO8fq559izXt/lE68Z8r9PRg/3dxinRgwWj9YtweDfyvBF1n/ois1yhCN/W2fmfUs66d/YzGj96m6D/O0M3bJ+o//xCqh/84Sb19Ia6SPj1YqH1Hv1TLq69U++ahOln0jXZ/cVI3XuO96ScHjqnNjxqqYf26p7Wtqs/eX6L4+HhzBAA4E9UzIuXorgcyJ+qV14O8J7Q5Xcl6XQN8YaC5PYK1WAcPSR1um6g1e/Y4xUc2WCGq72hFF0/Xs0eXBqh5M6c6uOY9/dpbIeS9rUqJLz0cJTUpDlG21mpeXla0gs8bL0zU/cUhpbsGTB+g7Xv9/iXzwdHljgwVhyhb89a63uxWrEAHtnfSNebaB6yPptznB4BL3eENevu50Voe8bDu7RvhTFHyfGeFHCsE+YTUrmdtx830pdN5rN83bz1b8o5U8uvrdMAe3vq2QLkrFyu3+XVq8nWBTjZqrTZ5i5yZEFV6/QYAUONUY5CydElQispYeGLJMPU309zsbdgL8gaTZq3V+4V1yrUCxEfLpeju3Uum69nvB/UfqJvKCSz21AC7fXLGBm8A2l5Ge9+0OWeLUPISU16mZzTMr7/9xywuDny23r53mMpgjxiV3O9OvWLKy+abKmj3reTew15YrORIa/+CXIEQAM6zE9u06NlheuXzYUp58tfqcLUVmurV05X1iuT5qmSZPs/Xx62tkerVCz6KdNo7Um89pA5XWecd2qA1S/KkbalKvrenhv1mmj6y//965QoduBgX0wMAlKl6g5QVavo+4V144kCrTqbMeHCF30u83s2ZlmaPKPXfqgOb12m1vCGoSfeB0nIrXDkjVD39RpKCs9vbYWx5We3tEBUnvV587zylVDR7sf/rWuLXV2cz0/Yq4kz9Wz7Q7/wVGmHqymZ9djOttjmvq7fvs7L3ff04WwtZAMDF4qgVoiYl6NmtPZXywkT1vdaEpCta65rwRjrwj0M6ad5l+vrYHh04FqHmzUP9pvVVpEgHPlxk/W4aoIf+vE7zVqy3tnVKfcb6/+Mli/XhDveLTgAAaq5qDlKW5vF6ePpWDYt7xhRYuvTUiBfuLGPBBe+I0urXF2mNb3U6M13vjeWLdX2rSrwD5ISxZ5Q8xh7RKqN9f78lxO2phqVGpPxHm7z3r+KS7n4r7R3JmlGJESnDf8U+a7/4MwEAlPCFqPlhGjIqXm1qH1J+Xp617dEReyGi6Dt1cmWGVm/eo5MHt+nDzEX6qOOduiWijBXwjhbqwM4d5hrmOod36CPr91CT/gmKjuqo8IgIa+uom2IS1LfjOq1etdWcDAC4FFR/kLI0iR1dagSmux7Ys0KK805X824lq/U1adVJa5Ys1ojbfCM+3nC1ZslEdS29yERQdvsBVlgqY1qfmXJYPLXwvZ56/UFTZ3H6a1bG8668Z48O5Sl6uVk5z2yVWnnPEnA9a3teoyseATOO7N1aHB7t/YqmEALApejItvmas8D+B7ANmjNuoP79zh76hbON1nKrOLz/QxrTO0/T7u2kOyJ7Knl5az30YIIz9S+YkycWa/rQnuYa9vawlq1bqjUbOirm9h5qUsc0tDXupOiYnspdbv1eAwBcMs76qn0AAJxzJwqUf7DQHPirr4YtW6tJA2v32yId2bFBeUdCFd6po665ytuiNM/RPTrg9+W7XvVVz7rG119LTVq3VkP/IGVz7l+k8IjK/2MXq/YBQM1GkAIA4DzYboWjvVY4+tGV9fUvVkD6p+dbHTrxlVpd3dCp33v0pJpddYUuD6mjf1jtvviyyKq7UtcTpADggnBOpvYBAIBAja6wl7mo5QSkzXu/0PZDhSr8yqNt+444m71vl9l1dhu77dUN/NZwBwCcVwQpAADOg7CrLle7H1+lK0LqVGqz2/6oobsv/QUAVB+m9gEAcIlhah8AVB0jUgAAAADgEkEKAAAAAFwiSAEAAACASwQpAAAAAHCJIAUAAAAALhGkAAAAAMAlghQAAAAAuESQAgAAAACXCFIAAAAA4BJBCgAAAABcIkgBAAAAgEsEKQAAAABwqZbH4/nB7AeVkZGha2/tb44AAEBN99n7SxQfH2+OAJxrTz31lNlDTVapINXoJ13NEQAAqOmO/30TQQo4j+wg9fjjj5sj1FSVClIxMTHmCAAA1HTLli0jSAHnEUHq4sA7UgAAAADgEkEKAAAAAFwiSAEAAACASwQpAAAAAHCJIAUAAAAALhGkAAAAAMAlghQAAAAAuESQAgAAAACXCFIAAAAA4BJBCgAAAABcIkgBAADgwuLZr70btuqIxxxfotZPaaAGCfNVYI59CuYP0ZD5pUvPog1T1aBBgzLusV5Trbpg/Tr/CjQ/YYjm7zeHQVn9L+673X6qVeLP+3yV+XwJUgAAALiwFK7X3tGv6VChOQ5iZ2aCElKzddwc+xzPnq7p2aVLa7AFiRpXnaGpDLF3xypr8drTw9KGtUqx6mLN4blgB8ezFtz279GWG1srzDnIt/4Tbv3H2D9fQxq8JD1RuacjSAEAAOD8+26/PnlosNb/ZbtOfWfKLMc2vK73/2uBjpnjAOtnavbFFJqCSE5LkxJnlxo1qX5ZN8YpTZlaW2p0Z/2qFCUPiDNHlbBhapVHz8IGz9Gp9MEm/FTR/nyprYlOAaHKerb0TMXtmKOhbU1BBQhSAAAAOP9qt9A1g+/QNzOsMPXAC/Jol448eIs2P/Ku6t7cXiF+4conPilJmrlWO83xRSl8sMY+kaI+U8qLUma6ndmmbrDLSk9zs4+ter/rOCM9ZV63tXoNkDI/8A9B67V2UrJ63WIOfcxUQN/mC07O9aNTlJXY1ltXfC/Tl1LtbfY5UzeU1DvPYl+/dL/NucVtKuLro39/rktU1qQ+xdfoMWGOBrcw7SuBIAUAAIALQuPuw3TznBfVoPZJ62i/vj1yh1q9PV89/u16q8zbJkDTKN11T4ZSMsuJUjsXKSEhoXjzn/ZnTwNctHOnFhXXT1f2UTNtMEh7m32Ory7Y1MLq0GPCKiVbf/AHDwx26OgjrT6lU6esbUeatkTbASpMrW/MKglC+9cqU7GK/WRP8RS5/F1ZSu7TwxydLuyWOMl/ep89re+JXip9RoF6aZd9b2dbpc6J45wAZ48k7Uqz7pm2y1s3wXvm+iltlTnAlDnt2wY8W0r0OGmK93qPdDeFfvLDx5pzrc153tLvOQXR/RGn/aonYpW2w3uu3bdk87kFu09FCFIAAAA4/747qQN/eUrv3zNep5pcb/2RWs8qW6K9Q36tzRu+0LemWWnt4pIV/3aKFYhMQSnH1V6p6elKd7Zkhc+c7YQln4yUT9Xe1KfaA1xjE/TpT8tob4WyUZu6FV8vueVMjTIhzhuwFlXT6FgPPbI6WSkzgrwntGG2EpWmob4g0MIewcpSvhVkevRJVtaufKe44INMacBYxRVP17NHl2IVXt4ITItefu2tM1ZtUVrC6cErrHsPv2l34Qq/2+wGs3++XpqUrLGDfWf00FAr0GzJ93uyJ8aWOzLUw7pfsRat1dnsVqxAez7prNbm2vm7rN66GIEqjSAFAACA86/21zr24T41nLpKPV/4heqou8JmrdL1o1vq5Px1Oh5kap9XOw1MjlfGsuCjQ43atVMjsy81VdNSOaBbUi/rCl6NIrqpW48k9fIVBLQ/ruxlGYqPiSq+XrueSeq277Bz30ZRY6xwNbD4Wmdd96FWXCpj4YkFiWprprnZW59J8gaTFuGKnbTWikwFWrtYirulR8l0Pfv9oLvj1KvcIBHmtE9MX+8NQJ+U0T5gal9bJS4w5WVKUR+//rZNzCoOfLZY3ztMZQic2tfHulpFfFMF7b6V3LvPpCwlXmftn+FCFgQpAAAAXAB+pBuf/YO6dP+RFaKM2g11zb89pZ7T7laTYFP7fNr1UpLKWHgiYGrfKM2scA5Y+TJSfNeytrEztXH9YR02ddUrTIOneBeeyA8vNQbzxKqSqW5mm2OP+NgjSndv0Z4N9rQ+bwjyTddb74xQ9apwAQe7vR3G5pfV3g5R0dKq4nvvUlp5I1K2u9P8pgKazUz7q4gdotoujguYSphs6spmfXbpVtsdaYr1fVb2vq8fZ7iQBUEKAAAAF5bQHmo14zdqFmqOK9RIUUO8C08cbuo3mmGHqBQp2UzFS09PVVLl/l4vQzclveS7lm+rxlGo0loM1u/StqhPtN8YTPde5bw/5R1RypyRqSzf6nRmut5Li7PUObwS8cEJYylKTLRHtMpof7ffEuL2VMNSI1L+o03e+1dxSXe/lfYK5r9UiREpI2DFvvySz+QMEaQAAABwYQlpoVbdO6lJiDmujKujNDQpXykpGabA6NFUTc2udq6twohUI7XvamW1OedmgYmyhA0eW2oEpoceObVKivZNdbO3ktX6wsI7K2uB/6IS3nCVtSBZvSq1wILdPtYKS2VM6zNTDounFq7qpVVPmDqL01+zMp535T17dGiX4hablfPMVqmV9ywB17O2cRpb8QiYUZC/pTg82vsVTSGsSC2Px/OD2Q8qIyNDMTEx5ggAANR0y5YtU3x8vDkCaiZ7ZT17UYiBAcNB9gp8KcpPStWYKPtNpuPKTvWbzndPshVClupwzzGKutq7QMRsDTVtLUezNX2ONHSU7z0o+/zZ0hBve6fEOmfUzI3eA5t1zfS4dqY8XMmVGKF66qmn9Pjjj5sj1FQEKQAALjEEKeD8IkhdHJjaBwAAAAAuEaQAAAAAwCWCFAAAAAC4RJACAAAAAJcIUgAAAADgEkEKAAAAAFwiSAEAAACASwQpAAAAAHCJIAUAAAAALhGkAAAAAMClWh6P5wezH1RGRoZiYmLMEQAAqOmWLVum+Ph4cwTgXHvqqafMHmoyghQAAJcYghQAVB1T+wAAAADAJYIUAAAAALhEkAIAAAAAlwhSAAAAAOASQQoAAAAAXCJIAQAAAIBLBCkAAAAAcInvkQIA4BLD90gB59eIESPMHmoyghQAAJcYghRwftlBasaMGeYINRVT+wAAAADAJYIUAAAAALhEkAIAAAAAlwhSAAAAAOASQQoAAAAAXCJIAQAAAIBLBCkAAAAAcIkgBQAAAFwkGjRoYPZQ3QhSAAAAAOASQQoAAAAAXCJIAQAAAIBLBCkAAICaYuciJSQkBGyLdpq6Gum4slMDn2d69nFTB22Y6rzz5NumbjDlRsH8ISX1CfNVYMpxbhCkAAAAapJ7kpWenu7dXkpSfsp0ZR81dUHszLQCSuaFmLbsEDVKM1v6PU96qrptGnUe+7tTiy6UcLp/vobMCNeuU6d0yt52pGlL9BDN32/qrZDVNrGzVpn6VTcmqu2U9aYS5wJBCgAAoKa6Okp33bNRG/PKHsVpF2cFlLh25ujCcTx7tmYqSakBfWukqFHJin97abnh8Kw5mq3pAaGtnQZagW6gr0un1Z9DLQZrTvpghZlDteiluLuzlG+C1PpVKYpNG6oe3kP1mLBKyZPWmiOcCwQpAACAi4I9wrNIO+0//p1pcta+XZo93W+63E4tSs3WTquseDqdHRSKzyk5z8c+v7ittZWM1px+v81221LBwzk/SBg5XLBR3bq2t6JTae3U3i8c2iNqgSNE9qiR/yicdxSpuI/W8xXHyp2LrGffGTh90NcXe5rk2Jna+HaK33n2M5lrn1b/rt61rhPYF+/UxHM3ghWr8Bb2zwLt+UTqHF4csyzhCr97i9nHuUCQAgAAqKmsELP07W7qFuGLIxlKmSMNdabJDbQiSRDrZ2qphpqpdPbojxUUis9JV2pSvlL8gs/hpneZttbmTCX0D1qB9+sSdZd1vU/96o/r000bFf/T0j05rsP7rD/9m54eo2xNw7ppY8Fhc1QBK/S0f8n0z9qSW87UbL/3rDbOXCoN8dX7jXa1G6j05PiSqZKjogJD3Wn1d+iOmHhl/NUvNR39VBvXx6u99XjewBkYQs+qDbOVqDj1coKUzReq/GWZnzgXCFIAAAA1iW+ExN7GblS3l8Yo6mpTZ4mPKRUIThOvu6J8LezRn8BzGjUNN3te7dr5haCrmyqwtvT97OtlaKkvyNhBQ0nqFTTRnSVXt1M7v+e3Q1iAe+7y+3y8o12Hz3TaYLv2AdMOj+dtlJJ6OYG1UdQYK3CVEV6rbL2mRm9R2hS/qX447whSAAAANYn/YhPpgSFK6qamAcdVFzi1L0UZptzr9Pu165kkbfpUdpRygkbQ6XuN1LSllH+4ZOTInzPtL6ypOapI4NS+UTOte1abduplPZ532qE92mZ9AsWjgdXFClEN+kir52hwwAhUyftSJWLNT5wLBCkAAAAEZYeoUZu6KbU4uCUr3tSV6er2VrzaqE+Plh80nOl7JnAF2qlPA6YrlscOUSlSsq9/9tTEUiNSZ1mjCOv6dr+d0bZuan+Wg2ugAs1PsEPUKT3S3RQ5wtT6RmlLvv+C5/nKX9DZ7ONcIEgBAACgbC2bFo8oHc9eWmpEKphGiooJ18Z1a8sNGo2ihipJMzUqYCEKe/GGFGX4TcezA5f/e0mn98F/VGyn1rodkdp3OEiY81O63l4pseVGrV1X1mjb2WKHqLbKH106RHn1SEiTEmfLt+D5+il9lPJEL3OEc4EgBQAAgKAaOYtHlLyTNVt3Kcm33nZ52rVX+NsZCi/3fS17qfNUJe3ze+crYZQ2dk0NWK7dCVx+bQL74J1qN3Os7/xP1d5eIKKy2vXyhjn7XP/V/nzKqG/303BlvB3u966Zd/TurC42YS8usUBKiS75Ql7f5nwxr708+mqpjynr80madk2ozP84OFtqeTyeH8x+UBkZGYqJiTFHAACgplu2bJni4138sQm4ZS+JPvaw7nK1+II9GmW+oPcC/N4rf86Ux4K7zrifI0aM0IwZM8zR2WWHKvsLelH9GJECAADAWbVz3UxtvKe9yxXsfF/Ga48+VeMy4lXmnT54+pLuuNQQpAAAAHBW+Fb4S9mXpNQzGq1pp4HOohHVtYx4VXi/fNdeuTA/KVUDyVGXPIIUAAAAzgrvdylZQaj0l9teFOwRM+/KgGP83o3CpYsgBQAAAFwkeD/q3CFIAQAAAIBLBCkAAAAAcIkgBQAAAAAuEaQAAAAAwCWCFAAAAAC4RJACAAAAAJcIUgAAAADgUi2Px/OD2Q8qIyNDMTEx5ggAANR0y5YtU3x8vDkCcK6NGDHC7KEmI0gBAHCJIUgBQNUxtQ8AAAAAXCJIAQAAAIBLBCkAAAAAcIkgBQAAAAAuEaQAAAAAwCWCFAAAAAC4RJACAAAAAJcIUgAAAADgEkEKAAAAAFwiSAEAAACAK9L/A72xn3CaVkuEAAAAAElFTkSuQmCC;" vertex="1" parent="1">
          <mxGeometry x="40" y="275" width="777.44" height="150" as="geometry" />
        </mxCell>
        <mxCell id="56uPyoJRGfgiiEJyuFEG-3" value="" style="shape=image;verticalLabelPosition=bottom;labelBackgroundColor=default;verticalAlign=top;aspect=fixed;imageAspect=0;image=data:image/png,iVBORw0KGgoAAAANSUhEUgAABiEAAAJkCAYAAAB3W4LaAAAAAXNSR0IArs4c6QAAAARnQU1BAACxjwv8YQUAAAAJcEhZcwAADsMAAA7DAcdvqGQAANFsSURBVHhe7N0JfFTV/f//tygQtpAYlgApIRBZgoBRFqOyWgVRFKWhKl+0fMXaImJdW4r+An+ltNblKyCtX+VLLXUpUUFQRNSwVdkEBNmNJCBLAsYsEEnC4v9uk9yZTJJJyISAr6ePa+acu8zdJkzO557PuUB/XPujAAAAAAAAAAAAqlkd5ycAAAAAAAAAAEC1IggBAAAAAAAAAACCgiAEAAAAAAAAAAAICoIQAAAAAAAAAAAgKAhCAAAAAAAAAACAoCAIAQAAAAAAAAAAgoIgBAAAAAAAAAAACIozD0K0aa1P/9BbPz4Vr8+HhDmVAAAAAAAAAADgp+7MghBmAOJXURrUxHhdp64S+naooUBEhF79dTd9PjzCKQPA2dJa70zopncGOkUAAAAAAAAAxS7QH9f+6LyunIj6io+L0eLrQxXpFco4pU2rv9Hl7+c45bI9cs8Verb9hU7J7bhmT/pKY51SaZH69Mm2uvzgPoXPznDqzkBEhJ69qbXuad9AYRc5dadPKyc3V88++7WmOlXnpas7K3toqA5t2Ky4dwudyrPr1d/11j3NnYLJvBZHC7R41R6NWv2DU3kea9NSr9/SWkNb1i25H0+eUsah7/XI39P0hlN1/ojR9qnN1cUpWcxrnpWn2Ut269GdTl2tZe+/NqwzPkNOVUSUPh/fWpG7d6v9m+X/Lozp21kbr2+kjUu36tpVteMzCAAAAAAAAFSXqvWE6BytjeN6aHFsjoYuzVPGaafecqHi+0TpWadUoYI8PTppnS7wmsoLQPhjBiV6K/ueSKds+Hmcjv8uximUo3Nbff6bDnqkrbQ4Zbcut95/q278JEsbMwu12lmsWsReoj1PdtYjTrE2mNS1scKM69elXZQGOXVV8fRvemr7bU6hOhw5Unw/XP76QS0uqK87b+qiT6925pepsRXE+NG49glOTcD8XZ++nZU99Qp92tcpB1lMH2Mffh2t2xof1+vv71R78xw8v1NjP8vT9uzjwQlABPG+rMx9sWOD5/O/WdcuPKIdjcL0yIja9XkJ1KQRkUoozNHUCgIQprRVaXrpwAUadHW07nHqAAAAAAAAgPNF5YMQZgAisaXi651SSNu2/gMRBSd1yHlZMzJ07VPrvHpFPBLdQCHO67KF6tXrWyihTp4enfWVRq3I0Sar/gctXpGma+fuU4pVrh4x3UMUQFikBrXViJ/V0Y70POVENNb9sU51pUUqofmZDy9Slk07D2rU9EytLrpQV3WLcmrLckxj/2edLviftEoHkPxen1U7FT5pg65d5ZSDKlKv/jxcMblZGvHMTo1fn6c0s9rsEbD0a13772ro9eNH8O7Lqt4XhUpZv1dXrTTuy4aNNeLnTvW5IraD7omuo7S0DM12qspXqCeMa53RJEz3D3WqAAAAAAAAgPNE5dIxFQcgTihla6Eu795Y5ggQGan7NDQ1zE7NVJCnJ/6xU1MP2KuUx0rH1Dpfjz61U885daXV1/2/6KinezRQmNmeefqUdmz+Toc6tdTlGZ50TO70TCf0zsMxui3C3fh5SimLN+jaz5yiR3xHHfpFmI5v2an2/85zKv0pK/2TTxqWiJZ6fVSUbmt+oUKsfTXTCP2g19/froJ+V+iRn3mnnjKf/LbTtzjH2M1JB2WlosnVs8lfl5xHK21SXb2z8Add9fMIdWlo1JnLHTqiUf8u0Cj3+/5wXG98sluj1paf2iXmpku1p4/00v98py7j2ipuX5pavXbEmWuw3rORNvqeu9u66ccrZKfMir9Ee4aHK8aTNshk9m5xrunQIZ01s1eoYpyIUE7uMb2+5BuN31L2vlnpmHTECiSUqK/XH+6hO0879Z7zMStLre5oraHhxoFnZ+vaZ7/WnT7rm9sbkXtQs+tE6J529Uvuo+0HdOObGVZD/7O/KeP6ZPqcA6/rEG5cB/s+KzCOa/bC7RrvSh009KY4zY5vrMhS0bAy0o0NvVQ/Xh2i1Z98oauWOXVl8b3XThrHs/uQRr1+0AmkneFx+7uf3fdVhPGZMO6Zq7IzFDdznx0sMa7RI/dcqmejjmtqygndaQZUyrgvvPlJZ2SK6KA9D0eowF3fua0+vam5BoXb+1yQnaeX3t/pnbLJZxnz3KxevUFXLbGLFd6T5dxbKcZvvGfvidb9xvm0zklRoVLW/qBWfcOL93/QL3vo0+6nNft54xpn2ZsstU/mZzfb+Iw/70n3FqEP/tBBQ49l6ALjfAIAAAAAAADnC7MZLTDuAMTm48UBCFNkrKdHxMGAAxCBGjS8o56Nr6e0DWlWqqT2cw5oR9vmGmQ2wvuVpRHPf6HZZlt6cUofPwEIQ0yHBopUoTZtKC8AEbhJI36mO5vk67k5m500Qt/qpd3HtGm79OjfN+jRPafshlhrn0oaVu8ZHaeZPS7SxrXfWOl32s/Zr5Q6TfX0rzrrEa+xtxvonqENtWnJVjtlzYpj1vgB70yIUkLWAd1o9gCYlaY38uvrzoEVpXYJ1dMdjZOYeVTPZWXojX0nFNkqvPLpYDZ9rfZJR7TDeFmcTsdpaI4Zeqne6dtYBTv22mmujH17Pa+B7h/RUa92ttYOXERLdWki5Rw97lSY6mvEf7dWl0PfOvdG2T1XwmJba1TdHOM6mPu4VWM3Fynm0ii97gwmXN71Kc28Do21Y+Vu+3rNPqjP6zbW/UM7lKS0urqzXk9oqOwdzn377wxtKjA2/22mbpzlP93YI63qS0U/KKWiAISa64N7o3Vnw3y9lGzea8a98EmeQjpGKeWeSK9eDVU/7jC9Otp1Pz9vfK4z6unOoc61M+6ZscvzVNCqhd4Zauy3IaZvjJ5of4FWf/aNnlhV9n0RsPj6aqVTOpTplM3Ax4hIXXUyR2NnGdsz7qd3Tza2UzZ5PicRbbXxDmOZ08bxzDbPzVbdmJKpd1Lt2YHfk/7vrUfGmKnb6ihlhZ0qyxz7psEV4V7jWQxtbpyP7AK94QlAGJ+114e69tu8Xv8+aOzTUVd6rSylHDGuQ3jDczL9FAAAAAAAAFCWwIIQvgGI+NDiAIRHZOswDU3fX/kAREionp3aWz+6p+KxHCL0SOcGCjn0nUYsOGI94Z22J0MjFuY6T16fmduaWt0OlO00UJ6pGPOp+Nzjmr3HfqJ6085MPbFgXwUpWdrq/o51lZG6X9cuzrKOyzrG17K0o2Go7v95qL2YI23nXo3aYA7OXKiUTw4qJds4hcePaurrGUoxGz0PHNGorT+ooEkDDS0vvVJscyVEGPu4Z6/1nrO35iujSajucRqnz1yEZnZvaFy7I7rx7Uz76Xxj38b//YBSTjbQqH6traUqVl+DekXpg7tbKL7Ocb3zmbsnSh2FHMnQta/b20/LKqfnR9Exzf77Xs227s8fNPvtI/q8oI66tHeNI1IJaTvTNGKVnS4pbY9x7XYcNw65oe60ZxvXtJHCCoz3NN7H2rct+/RoaqFCmjdQlzI+I12aXGg9IW9c0vINbamhTU5o8cc79aj19L5xL6z6Wtcan82w9i31tPu6V/W4B7bWqOantHjJTj1h3s9ZeXpidqZWn26gEVfb65pjGTy950fF9+qgp9tE6tV+xr1qnItRn5RzHQJiXvNofd6nsXTkez3nBBAH/bylBoUYxzD3G/t4zHv9feN3gfE5uae/HQi5c2iEcZ8Yy7z2tZ6zPodmarX9es76jFfmnvR3b7XVqPYXKsM4xhs/sa/9pg17ddXaYyowV7EYvyebSgXHjrsCYg0V2UjKyc5zroNxvbYe1NiFdm8Uj+eyi4wPc13vAboBAAAAAACAc1zFQYgAAhD64Ziee2enpn7rlCvD9QR28VSchidUMU2ktAzvxjqlHlVaSatfrfFG+nEVtGqp7Y/G6dW+xr479eW6uqFi6pzS9lRXGiRTVpZ2ZEsxzd1n+5TS9rt7beQp+6Txo+CEd6Dj+GkV6CKFtXTKftyZYOxf0TEtXuxUbMjSxqN1FN+pojEXAmVfux0H7SBHiQytPnJaIRc3Lm6w96t5cyco1UOf3tRSlxfk6ok3v9JYd9odndam1P0+2y/D0cIA8/MHwvc61Cyrx0TBcaVscCocaVsKjHNRX106OhWmKh73/e0aKKTUe+zX9lwprEkDp1yo5xaYDfiN9civozSoTp6eXuDzWa2ELld4ApHGNR/eXJHp+zXC+F3guUXvbGn2MDiu54p7GBic3wWtwsOt4qCIuqWXKVaZe9LPveX5rO7x+axuKnSNgXOB9Vu14IT5wfTI0GKzp1HHGGVPuERPX1FmNy5DPcVUekR1AAAAAAAAoPYqPwgRSACi4Ae99M5275zs1azg9Jk+We3fph/MhsI6auCV8qjqUhZ8paveP6LPTzbQPUM6a09SD306pNQZC5ATYLjIO1+/3AOAV1lzjWpTV6rXWJOKe6B00NAmUkibMM2spvNRluwTP0p166iVU/arOJWWMSVtUKtZX2tqqXvsRx13Z2cqz+nTVW4c96uC6/DS7nzlhDTWPb9ornijHNM+SpPa11dBZl6ZKYkyCs7w4qaetJ7ID3GPQVHF47bGO/DTS+me5vb8YlkZei79hEIuqqOMPUfKaPwPTHHapucztOlkHYWHnC4OQFjMfYqI0B6vfWqrQb5jblThmEvfk+XcW76XKcsM+pXvude2a9SybKWFNNWk2y7Vj5O66fU+du8NAAAAAAAA4HxWdhDCE4AIkXakF5YdgEje6jUY77kkZV+hcswnxxOqrzFw0+o0Xfs/G9R+9j69kX2RBvWN0QdXODP98TRolroSoQo3s0WdPGUXq9PA5hrUpFDvznEafT3T80e0o05DXVWN5yOkTulthde9QDpx2vX0+HnoszTdv75QMfEx2ji1t/aMidTlR7P06DsHnQVKm3240DhhDTSovPvFUGasIvYime3xBdXVS8hfLyVzcg8Y3jlGz3asq5zcE4rsHKXXKzvWhz9Z+/TEzkIrtdQ7vttzB6dck/eA8eUL7j35o/WZDqnrHpHbVKg3Pvlalz/zhS5/N1MpJ+rrzqGX6NlSAb8ipa12XgIAAAAAAADngTKCEK31uRmAuOi43t1+XDHtSwahLlYjAYg8pR2VYlr4pAiKbaIY36efq+KzLH1ubD++R4zPANC+7IbFUn7eoMyUS+a4DqOmZ2p1UV3FRDuV/qzO046iCxXX3ucR89jmig83tnMkx6moPpMuaaiQrGN6yXcsjKyDSjlknI+OUfYAy2UESJ5uEUiQIkubsoxrF+k9ULJ5bw1qWUcF3x9zDcp7PgrVqM4NdGjrbruh/MkvFD79G71UTk+BtBW52nSyrhW4GurU+fOSmfbLT7Bi0BUNjXNdqB27nYoz8G6mHRC5qtygQpheHRKhLsdz9OgzaXoj22xY71Duvgdq8ZuZSimor9uGxBQP9r06+4TUtJGfhvsSKVnGMhGNyujNc4b35Gc/KO30hYpp6z1Oi/fvgUzrd1ZIY+P6ODW+zHEkrn03V2kX1Ve86/w+El7P+L16whrMGwAAAAAAADhflBGEqK8wswfE5q804nVj2nDcO91IjfWAyNJzO49LP2upz2/ypLWJ1Ds3N1VMWU+DO3YcPSWFN9br3etbAwbH+22UPKIbFxzRjnqhevbeS/Vq/zDrPayBcS9tqacHegIDmUo5clphbZvrdSefe/wV0fq8Z2PryXOPSb/s7NpGQ91zU5i61DulQ5lWhd61Bp5tpKEDzW0Y+9TGrD2op786rrCObX2OMVwxP+TppU+qeeyBiGiN+FkdpR044ho416NQz6X/YCzTWPeYgxs7AZKrruige6x9NY8pznjte9sc1yHjBolp20F3Guc5po3ZGJ6nJ9bnKadVc306KlKDzPPfprlm/qaVEuoc1+sry+4RcLb4vz5V1VgxTU4rJ9fYZqCy9mmEcb0LmjfXOw931NO9POOKNNTQ+NZ6uq/T+L3soF4/cqGGDonTTOt+NO7Xvpfo1bj6ytmTqScqOdC6v+NOe/87pfxQV7eN8LyHISJUt/WP0cyr7eLQ235mD1798W7NVo5GLc5WWkSEZv7CE7L0d18EKkNjN/xgnIsIPf1zO+g1+7Mcq6fO/XdfokfaO4GwNmG6//poPW1/6PTGamOZ0w016o4Y5561BzafZAVszvSe3KfX95xSTOcYveOM+eLv98AbRwqN3z0h1jHbIvTq6EtKrqdxHh/pY5yL00VKc343mMsMan6hlP1Dmem6AAAAAAAAgHNRGUEIW5cePXX80Y6KefcrjdjkjMtQ3QEIP3nnf5zaTa86s1MW7Najm4rUpY8nrU0bddn3rV4qbrzzzxwwd/HR+rrzlz304+866Wn3YL1uO9MU9+Z+vZtXVyN+3tF6D2tg3MSf6f5OngF4panvfKs3surpTjOfu7HMxqFhOv7lQaX84CxgCmmgEYM827hUr8bX1Y616Rr7mT077V1jvw9Ig35ubuNSzXaeZF/8rnmM7tQ9URp0OldP/GPnGeXY9ycmoYni6xRq9Qb/wY209/O06XR9DbraDMAc1KglWUprFKFXx9nH9Gzn03p9RZ68+2dkaOzyHB1qGqHXHzb2f3SU9TR82qqdGrUqTwXtovSpUf/juBiNCj2ul97Z7TPAdO1Q1vWpkohsbTpSR/FX2/eLZzpewVgA5jm7fGGmPj/dRI/c3NkZ/+BSfTC8te6MqusslaOxc437Mbu+Rg03t2/crz8PVcHu/Ro0u/IDQ/s/7gxd+/e9rvcw9uPhznq9X5hi6hmzzTRMPRooZ+d+3egZvHrn1xq/1byPo500Sv7vi0ClLd6vxdl1lJAQo0fMilTzs5qhlNOhenqM8bk292lcRz3bq4kirTUMxjI3vpOhjSEXO/esPbD5jU488UzvyefmfKPn9klDr7evzcabzN8D+4zfNc4ChpT1x4xr0MA4n64eE01DS66ncR6fbnda76Z8o7GegNEVEbq8ibQpvYJfbAAAAAAAAMA55gL9ce2PzmuXGG2f2lxdzJdFx7V42wl16RaqmJPn9hgQQM2I1KeT2uryjIMasWC/UjyBpDbN9fovY3SnsnTt89/46YmC80N9Pf2bbprU/JgefWpnAD0bnOXD8jT2z2avEgAAAAAAAOD8UW5PCEu9Bhoab6YROa7ZBCCAil0dpssbnlDKZ64AhOnAEW3MPSU1qGsH+HCeKtQTyca1Px2qR0f7jPXiR0zfGN3f5kfjftlLAAIAAAAAAADnnTJ6QgCostgO2jMmQuHfZurRRXs1+4BR1yZMk3pFabw5vsLuNLWae8ReFgAAAAAAAADOYwQhgCCIT+ig1weFq0vDks5GBT8c1+dfHdbYhZmVHrcBAAAAAAAAAM5FBCEAAAAAAAAAAEBQVDwmBAAAAAAAAAAAQBUQhAAAAAAAAAAAAEFBEAIAAAAAAAAAAAQFQQgAAAAAAAAAABAUBCEAAAAAAAAAAEBQEIQAAAAAAAAAAABBQRACAAAAAAAAAAAEBUEIAAAAAAAAAAAQFAQhAAAAAAAAAABAUBCEAAAAAAAAAAAAQUEQAgAAAAAAAAAABAVBCAAAAAAAAAAAEBQEIQAAAAAAAAAAQFBcUFRU9KPzGgAAAAAAAAAAoNrQEwIAAAAAAAAAAAQFQQgAAAAAAAAAABAUBCEAAAAAAAAAAEBQEIQAAAAAAAAAAABBQRACAAAAAAAAAAAEBUEIAAAAAAAAAAAQFAQhAAAAAAAAAABAUBCEAAAAAAAAAAAAQXFBUVHRj87rINimaeO3KMkpeWumlTOv05UBLQMAAAAAAAAAAM419IQAAAAAAAAAAABBQRACOGvW6/mICD3/hVN0rH82QhHPrndKZ8kXzyviv9/WYacIAAAAAAAAAFVxDgchMvXWU2+q3njXNHubM6/2y/hwvuo99bkynHLQZH6uke5zZEwjP8x0Zp4rzu1rXZbD78zU5v/doYd7OhWW9Vq1/SbdNG2V8aqKDr6tuyPu1tsHnXJV9HxYS+Lu02PvEIYAAAAAAAAA4C3jq21KP+EUKhDkMSGCxGxYf2qvdOMgzbuhpVN5LjEb1T/Xu8ar2359q24P5iGY5+p/pelPXqVIq8Ieg0P33qGJPayK0qzzm6nbnqzavpkBlrZftNS+4vc8A+f8tS6L2Qtiptp+9Zp+0dqpMpk9EJb31RIN0aoBWT4BijIY69y997/02ogWTkU1MfdlVlvt+L9fqJq3DAAAAAAAAOAcZrUBr6ineeOv0/Coek6tf+dkT4g17wepUdps8K6JJ+wzv9G7amk1ML+7sXK9EtbMnq+3zqgjQ1eNuTFESV+Uc5wtr9K8mYEHIHz3KfKGW1VUHQEIQ9CutePMz6ejsvfOF6s09ZZh6ucOQOiw3p41VZMG9FKvAZM0dblvXwg7fVOEZ3p2vQ6/c7ciBk/V+7/uUlxnL/e81ZPCmu+T2sm7znubXqmhevbVpPcWaeWZ9KgAAAAAAAAAcN6JvLq7Xr44TyOfWaTfp3zr1PoX5J4Q9lP3SU7JWzOtnHmdrnRKgTO3uVsx5Tylv2b2m1rW0/2kv886mz9WvVe+s2eZWkZr3835autbZzWkm70WUnSXp6G6uN5kbPepXA3smal+HxRYNYrvrqKbcq2n9xdYFaWP09y/51sP0rzLv/HppVDevl8l/a9rPwxTinsz+Jxncx/u6Wq/LtUTwolSHexoL2Oci5EHu+vhgynqt0kabjX4f2ds76AGWvttHv8WtbtZ6ld8fkL0T+tc+pwbg7VPMs7vF62dffBzjnzOiXnM5nt7sY5BFV5rk3U8xdv27Jv5ugr7bp5Pr/vDs6/2Od7kCohY+33Q/71jBmHKYwYCuqSNV9ajvZwag5lGqds+jc96WL2s4MAq9bVemw7r7f/uokU37ijV48Hc1mP6q6veta7XNk32dvaNM3tZuF8bs6xlF2lYce8Mn/kAAAAAAAAA4HE6T18mf6qRqwoU06OzXvtVvCLrOvM8TmSegz0hMnO1SY3VrpxG6fJt07RXjumfT96hopnOZDbQ97hORfc2sxu/PXVOAOLdnoOKl13Zeq/aup94z9yr53WVM7+7pmzaonpmo7+z/L4bj6mf1xPy27RsU4huu9w4gJYddJvxHssDehK/pW5/cpD+2dJsRLe37Q5AmOmV7H0wljm4pZxxH7ZpzgcFmtLTCVIYFnyQYgU+zPX99zj4Tv3MoELxMUl3vW8eU1n75MPrHBnnMP47Pe/Zv80f2w35zrzia2AGMAK41sWpn4rXb6y7nvpYa5z5ld53M2jzirSyeHnj+lljd3TVROP6xn/wud1zwrPfZdw7VXF49SK9P7GvEyzopb4Tp2qmZ0yGgyu16L1JGl/ZlEutf6HxxnZWeXo4mNvRy/ovM6jwxb90n+e1yVr2fe2j5wMAAAAAAACAitQJ1WW/vFnr7mupkK92qnfSEi3LOuXMNGRtUlJSyrk8MHVVNVNMy4LA0iCZaZMym+lhV8P8lfeYgYaDrkZu9/yuGhgvTbm5pNdBZOvGzivH5oNKatlSA6xVjJ89PY3iVWRtL1pjihv/W+r2X0dLX3xTMuh15l61LR7U2c94EF7r+xOif95UErSIvLylhh/MrcSg2j7nsGczLTjo6jlQZZla/kWB1/lWj+usIMeyzU65kvtup3/qXtxLI/KGjpqSma90q9RVE80gx//O10gzkPVr1/uescNa+cH70rQhxamRhkyT3v9gpTHHcUtbGVe20typncxAh27sVzLGw3v3qYsrHZP5npv3Mhg1AAAAAAAAgEBcqLBug/Te0/F6qH62Bk9ZoKQ1mcpYs8R4vVNz6rc8B4MQLZsqXseUHlDvAX/MJ+Dv0HR97jTKu5+a96NlI7VzXpao+vuv+eI7r6CAlUbIK6hRBa2blm4ML244N5gppJwn+4uf+Hfzt35NMYMGZu8ST5DE7IXgSSUV0LUOUYyfnd90sMo3iNUzxL43zMlMc+Xahx7d9U8Z1+zGq8pNEVWRFtHGRdi+tyTA4PRQ2JGVpaziaYn3mAzv7dNe52WlmGM7TFul9VagQxqW4OpNMXGJ6/3syTvd001q6zVuBQAAAAAAAAD4CO2sh568Tit7SnP+laK2/8pWSM/u2vLkoGAHIcwUNiWN395TVcaDMFWiJ0M5rMGTzf24V066nTK4G/OLVTUdlJmKyRxjwH0ezJRA7if3q8Dfk/1+gye1UabSD7rPifu+CORaFyjNz8WLb131CIE5NkTJ9TGnkjEpMj78XHe1jtZtX6Ro2plcs9ZtdZMrqLD+jfu8eyhYzJRM72vR6sPG8v007BZXeiYf76eVF56wUzutescMdLgGw7aCE0O8B6N2s1JA9VA0QQgAAAAAAAAAFanTTFfeNVxb/qul/vJf1+m9u7oqrI5R7cw+hzjphj4ouxG4XesQJX1RkuIo48PdZQyObYhspOHOS4u7Qd8cs6Gla/wCw5rZW5QU37pKARRrP0qta6ZkKtnfivfdp9G9R2tNydyrOcXnIlNv/e9eqWeHGuzd4D8QEBAr5ZXzupSKrrVz7ha6gkjmWA2bmmlgueml3Lz33UwVlfRKGb1jMj/XhA8aa+U9V1n7tcl3ucqkqPIaq2G9Vk27ybuHgsNMpWSnZGqhX/zfEvX4dZfi1EkRz9opllqMGG8FE9x1vnrd+bI2//o+9Rj3C1ego5cezloiDS5JxxQRcbfednpeeI9RAQAAAAAAAAAVuVBhVw7SQ1c2c8rSBUVFRT86r88Se2Bl/0EC8wn5MnpMmAMIP7VXC5yiafiNg5yBle0Bpe9yGreH39hdt32xW/q1+US77/uZAxN7nnR3rWemMHINTu3ZVkm9ydzWQQ107eOa2W9agzwXpzza/LHqmQMj39PM2k7azX7SIVnHkq+Hre2Ut+9Ghbm9V+zxFMwn9u1t+RyTZ2Bnk7ltc6Ds4n32Ubx/JeMmeB+XuT+fl7y/yXebvvsk9zZLnyPf97QGlzbTUhXzue7lXmvf9X2vZyX33TyfrjqLec1/LU0w9iHeNZ5G8aDYvveJsXxAg1MffFt3d7tPPT7K0sOewaFriy+eV8RgaUnWwwQhAAAAAAAAAFTZuRuEwHnAbrh/t2dJQMFkNu5P0FVedQAAAAAAAACAc885mI4J55cQ3Xa5O9iQqeVfFJzRmA4AAAAAAAAAgNqBIATOInPMh5Z696k3VW+8Z7J7RpRKWQUAAAAAAAAAOOfUgnRMAAAAAAAAAADgfERPCAAAAAAAAAAAEBQEIQAAAAAAAAAAQFAQhAAAAAAAAAAAAEFBEAIAAAAAAAAAAAQFQQgAAAAAAAAAABAUBCEAAAAAAAAAAEBQEIQAAAAAAAAAAABBQRACAAAAAAAAAAAExQVr1qz50XkNAAAAAAAAAABQbS4oKioiCAEAAAAAAAAAAKod6ZgAAAAAAAAAAEBQEIQAAAAAAAAAAABBQRACAAAAAAAAAAAEBUEIAAAAAAAAAAAQFAQhAAAAAAAAAABAUBCEAAAAAAAAAAAAQUEQAgAAAAAAAAAABAVBCAAAAAAAAAAAEBQEIQAAAAAAAAAAQFAQhAAAAAAAAAAAAEFBEAIAAAAAAAAAAAQFQQgAAAAAAAAAABAUBCEAAAAAAAAAAEBQEIQAAAAAAAAAAABBQRACAAAAAAAAAAAEBUEIAAAAAAAAAAAQFAQhAAAAAAAAAABAUBCEAAAAAAAAAAAAQUEQAgAAAAAAAAAABAVBCAAAAAAAAAAAEBQEIQAAAAAAAAAAQFAQhAAAAAAAAAAAAEFBEAIAAAAAAAAAAAQFQQgAAAAAAAAAABAUP70gREGOcnIKnAIAAAAAAAAAAAiWMwpCZPx7pOrVq1cyte2uWx74m9Z85yxQC2W892u1+O0CZThlU/q/79LgqWtUfmiiQGum9NNd/053ygAAAAAAAAAAoDxn3hNixD+1r6hIRea0e6WmXLZaI2+dpi/Plc4GB97S44+F63f3XakQp8q/EF15/8NqMHqaFtTiIAsAAABwrslY/jc9eEc/dXQebmobP1j3Pfmhzr/Hf77UC73q6b73cpzy2eP7QJl1zqcu0M5jzgLnm5ydWjD1Pg2Ob+scc0f1u+NBzdlAL3kAAIBgq950TCFhuuyecRqz9m/6cJtTV8t9+dbzSn9wjG5o5lSUp9kQ3f77D/Wn1790KgAAAABUXYHWTO2n3n9KV8IfFmqL83DT7g9f1O2/iFc7Z6nzRcHy+fpbu+HKmD2/dgRYXA+U7f74Lxr43fO6/gHvXuP+5HzwoDre8VaFy1Vo29/Ur8s0rQl2HGDvW7qr+816I+R2vbxqn/0AXd46/fN3d2hg1/IfRQMAAMCZq/4xIQqOG39KdFFkmFM2FOx6S7+/tbvamk+cdOmn+176Ut7P/uRozUsP6pYuJU/hvPCZ55uoM895YqVj3/v0wnLvr7trptbTtLUF2vnafere1thG4lv2l/qT6Vow8Ra7rl5H3TLxLeU0jbfWsX2pZW9l6NZrLnPKhu/W6IV7PU9htVX36+/TtOL3C9HAm36rjH8tM9YEAAAAcCYKPknSyJcT9Nq7f9HtPcKKeyaHRHbWwB6RTunMpb92i0b++4ybzM9QgVZ/+qbuuP//03C9pWXfONWVFKxjCWl2mW6f9LBueP1v+rCCfQu78UXtfvN2VeoKFSxTUttpWuMULV1/q5U7JurKoMYB0jXngbuUm7RU8x4ZqHaNneqQMLXrc6XaVfd7+zvOM2Ycw80j9dYBpwgAAHCOqd4gREGGPpyapDdH/VY3dHDqDizQr4cvVufJK+2nbDb9UwO/uFl3z/Y8+1OgL/9ys0Z+cZmmrLKfwtm36t8ac4X5bdA172P7iZUtbw1XzpO99eAH3mGMD5/8pV44+ZBW7jO2kXy72hnrLnuynyZk3KGFu83t7tZrtx/XCw/9zVnDsHenVm++VZd1csrK0YdT+mn1Nf90nsLap3X/fEh3XOr6eh3dRQM2b1L62f4bBgAAADin5WjZey+oS9JvNdDTMOzP2mmqV8+3UTdDb91hPojkFI3v/jv//fviB5fMB59GPvCWdhYY3+8ndle/ez/UgtHOvKmeLRnrvDdN9/XtaNW3jb9Fv//3Tu+Hpcz3nrJM6R94tt1W3W/9vT7ca+z9Zy/oLs+DUjf/Xm/tquBx/u+W6K3XxuiGAZ116z3t9LcFPo81VXicZ3gsgWgWafwdtUwZTvrZMh/2MvfV1RPCXC5peYbWPHeX8wCYcZ5Gv1AyVuC2Ocb5G6xpGUnqZ+53PadB/cBbGuk+Zud8Z7jObdv4u/TCZ+4j8bnWrqnkfnDZPF9/W/KQfjeqon41FZ/DKh+nyf2wmzmW4sQFSj9pzyr4LEm9+xrnwZUKK+Odu9TWOMfpOR/q9/H9dN+SBborppzjBAAAqMXOPAhhfjmyvmAZU+j1WhD1jNa9Mrz4qZgv3/6Tdv7mYY3p4XSNCGmn28eO0Yd/n2/3JshZpjlPhmvKE2N0mSclUuMwhZkxCD/zQtrcoIlJd+hvL3l3YV4TPUZ/uaezijtgGOsueC7eWPf24qdbwnqM0W9/4wooZKRpgbGn4a5eGx6eB2LMp7DauVM1RUaqi97SDuMPDwAAAABVtVNfviwNuLQaki5t/pvuejZEv3MeXCratFDP/G6A8XdAmG6YtlTPjJCGz3XmTbrSWiXjnV/r+mcLNPytLVb9vo+nqPOS63Xziz7Bgdn3aVrGHXptvbn+Fv1vz9W65b/66ddLOusZqy5PS0ek6a6xc4wjKlvGp29o04M3yHz3sKtvUPyL87WsUmmIquFYKnIgXZt0u7pEO2VD6Ye9/Jtz131afc10bTGX+2GLXuw8X/0mLrAb8buO0Xv/mGK8mKKV5n4XzdPtbcwZfsy+W/etSdB069wWacsLXTR/4O+Lx+UrWD5N188MK77WeTv+qdsjb9c/04o0sY+9jFvGztX6ckS8ulTQ4yHQc1il4yz4UtNufVw5I+bZD7vtWanfNX5e/Z5cJvMWCLl6oqYP+VCPv7jGKpvpox5/Qnrmz8b5DrtBf3n/GQ03/jOP0dw3f8cJAABQm1XjwNSH9d59OdpREKLIi5x5ylD6l1/qy8d620EKzzRwmvGHQoH9BeubLzXf+CrexdNzwq2MeSFd4jX8k51Kc31pH/7zK0sCEKYy1o2M9PnaPCLG9UXa+GL/6HuKeed6K+3TtH+vUUal/jAAAAAAcNZ4/g4xU+10iCx+sKi0L/Xmn5drzFMTdUMbZ6lml2nME1PU4LE3fYIDYzTmnssUZm07TFfePkYD18ZrzCM3OH/3hKjdz2/T8LWrtbPM3tLp+vD1Qv12uJMG1hxr7u43tbxaBkOozLGUrWDvGv3ticeVkTROQ1zPbZV62KsMGfdM1EN9nKUuCtPA/xqn4a/tKDcw41fGGE18xPjbzrmWYQPu0Lhb5miHkyIqJ3OHMoYM1EDPQ2odBmjo1W8pbb9drprAz2FVjjPn0zlKusxYzzix1tad9a58boGWWdGLEF35yHTdsGSCpi3fqbcm/z/p6Wd0uysYBAAAcC6rxnRMYbrhd1MU/tjfip9SMb9M1W/selLHa5poPQVUrotCKpdntCreSfPqUaHoG/SXhbu15a0xikl9Xv06Dra6IAMAAACopXr8Vv/7qzQ9mNBdtzzwN324y51Ex4+MdG3afKW6XOITpujQRQP0pdLdufevdj+0ZAhpoKZ+e1MXqOCU89KXlRLoQ93njIFXr16oBv8lXdNeX1L5lEm+KnMsvly92rv/1xzlDF+qhZOu9ArelHrYqwzDO/s87FX8YFoljeji09vC2BvXtsJadlHkkmVa5ukZ8c1yLf7sBkW6e69XViXOYVWOM33rfOnlW9TC81CeOV1ylxbokHLznYVCLtPEf/xWX17fXY9Hvqz/HRH0v4QBAABqTPWOCdHhDv3ukQ/1p5edbqTG19UuPW/QgjWbnLIfHS7TrVpT/GSLl06XaaCWl5pXsGOTFvy8s2J8viN6sba7qdSX7oJjuc4rQ7NIY/s5Ou5n50LaXKnbJ83Tlv/trKS/LynOd6qcbOP1cMXwnRAAAAA4A+0UM0JavtXrkaAqCtFl9/9TW75aqb/cKC14oLs63rvA+2Ejt5D6Cnde1oQvP3lTAxfn+TyUtU5/+fJDLS9+gKuKzuRYinu1F2n3qpc18ZaKezycbSEDJmrp2HQ92NoJnvxqmeLffE1j/PWsN0S2i1fkO5u0o7znyoJ9P4QYfzwmrfS5/ubknZaqICNdhyKNZdMzS/7+BAAAOA9UbxDC+PI/cOwUtZoyTW86gYN2I36nh96Zpt//+0vleAbeyknXms3O16qwgRrzVLaSnp6jnZ7HgI6l24OhhQzUHX89bs370vOky4EPNW3Km/rt/beWmY/UYmx3+CNr9PgTbynd+cJZsOstTXt2h10wmU+2RC7Tl7ucsnKUvmGnMjwDgp3M0eoNmxQZ1bTky/iuLzU/Ml6d6RoLAAAAnIFIDbl9jJb9fY7XgLyBSVfaZ85Lt4vC1HnIb/Xy0qV66MAEvbnBqfcV1kWX/XyBNvm2TH+zQ8t1mdqVNV5BVRQs0/wXEzSgp+8TVJdp4O2bNOeD8oIwZRynW00eS62QodXvZOuPX5cETx66upzQSZ8b9FCPF/S3d8o5z0E+h5173KDIzzaVn5rquw/1+zuW6Y5FWzSv8/O6q7LjeQAAANRi1RyEMHS4QxOTDinpfz60uxY3Hqi/bHxG7T6ZoN4NnadVhj2uN1M9X/BCdNnvF2repWv06wR7ftu+D+rDTHvuZQ8u1NIhO5V0XVt73dsXKOypdXrxxoqe0QnRwKdWanrkm7q5o7ndjvrlP6SH/jVFA50lzC/+V96doTc/KfmCl/GfFzSyl70f9dr30/8cG6elvx9odgK2fPmf+Yp88AZjTQAAAABnIuyWifrnpXM0cvQ0rxRKBTkZ2rnXKXe6TL/VfH34iVM+maMvZ8/RHLtkO/Cl1hjLe/7CKPjmS63eGq9I60+GSLW7NFLpO3e4Uh+10633/1ZvTjHe94Cz1ndfas7TSTr+1zs0sLwe15WU8+kCTbtliBL8/Ply2c/v0KGZ82X9NRLIcZ7lYzkjUTEark3asdcpV1XGl1q2pJWaNnXKFTLO68wpyhhzlx58zTXm38kC5exNd8rVeA79HGfIgDGactE0/f4vy0re/5hxj29Id65jut567D4dmvZPPdQjzB4f4u0JJWmB27RTfGS6dnxdctUBAADOJWcUhIj85TwVvXm7z7gNIbpy0jrtm3FDSe+BZlfqoVdWarfT7XT3qnl6cYS7H4P5Retlrdxhz9+36T2N6erMMuZ1/uVf9N4me1wJ60mXAd7veOWkIs37pZ/8SBe10/Bp72nLPnO7u/XetNvV+Yox+qh4n0M08FdT1OrFN7XMevrK2I8HS/ajaN8We53G1sLGF8VlevPFViUDygEAAAA4A+10+5wtWvoracHY3vaDQNZDS3frhf84Da5hN2jKsjuUMcWe37bX3Xqz2UT9837X9/+CdL35u37q6FnfJ0XPlf/1sgZuuM/Kyd/xtx9aqW7CbnxR654K04Lbu9vbvS5JO4cs1cIHq/O7fo6WL/ibfjskoeRvI7ceA3WHjL9FNhuvAzlOw9k7ljPUZrj++EKIXuhrXKO23fVCWb1UKhJ5pW67Z5luaeE8OGYeb/wt+n05PUpC+kzUyn1T1PmLabreekDNmNr31i//8GZxmqZqO4d+j7OdxryxVHfk/E/x+7fta97jdnaA9H//P/0/PaNnRjl/Izc2/n5+9gZ9OH6a00voSt3xt4H68rctjHU76r4PSNYEAADOLRcUFRX96Lz+iSrQl3+5XhNCpmtluV8wA10OAAAAAFD9MrRgzEit/sU8/eXGkuBMwTdzdFeXZbpz3z813M+zaQAAADi7CEIAAAAAAGq/A29pZEyaHi6aqCudKtsaJdV7Xl3SvAd6BgAAQO1Q/WNCAAAAAABQ3SJaqkvkh/pwSUbx+B86lq5lf5mmOUNu0JUEIAAAAGolghAAAAAAgNovZKAmfjxOBa+NVHfPeBB979NbJ8do6Rtj5B51EAAAALUH6ZgAAAAAAAAAAEBQ0BMCAAAAAAAAAAAEBUEIAAAAAAAAAAAQFAQhAAAAAAAAAABAUBCEAAAAAAAAAAAAQUEQAgAAAAAAAAAABMUFRUVFPzqvKyU5Odl5BQAAAOBck5iY6LwCAAAAgOA5oyBEh2tudEoAAAAAzhXf/OcDghAAAAAAagTpmAAAAAAAAAAAQFAQhAAAAAAAAAAAAEFBEAIAAAAAAAAAAAQFQQgAAAAAAAAAABAUBCEAAAAAAAAAAEBQEIQ4WaCs9F06eKTAqQAAAAAAAAAAANWhZoIQhZn66qNkffSuPS1fvk679+c6M8+yH7Zo0aP99ad3t+ioU+Wr6MgWff7BSqXnFejorpVa/skWZRU6Mx1Hdy3VR8YyB/OdCgAAAAAAAAAAfuJqJgiRv1ef/e1eJT1kT3+4+3rddXW0Hp6+slRjfm10dONc/f3NdTp6slDpy5/V/y3f68wxnMzV7vee0MPXj1TSM4uUnufUAwAAAAAAAADwE1ej6Zh6/nGpPv4mRys3bdbMKcP01XPP6qNdrh4RZmqk/XuVlec/NVLRkb1K37VLB7/3nl+Ul6mD+zN11KsXgpNmyVw2P1cHzdeHStYzt3XwUK6KKgyCmOvulaI6KeKiHB1MzVTr2Gg1qW/MMgMQ/xqv+yck62g7e2kAAAAAAAAAAGCr+TEhLpLqXRyt7pf3USdl6jsroFCgrNUzlXRtpG68uodu7Bapu/7wir763l6lKH2p/jGuk/r17KHbr++j23rdq4XfGOvl7dLy50aqX7dOuu3qTrourp/+NHed3bsif7eW/el6jZ9wl+6Ki9Zt/fvo2U92q+j7LVr4h37Wtm67Mlr9bnhAyeu9gxoWM8Dw5hP602OP6uVXlmr36rl6+YnHNGfeLm14/6969k9ztTuvqdr1vVfTlq7Un+8fpiYXOusCAAAAAAAAAABdUFRU9KPzulKSk5PV4ZobnVIFvl+nv//39dp6w1JNu6e7tH+LPp/3tJLebakpr8/QwAs/1rN3j9bBG1/RhDv7qV7qXE1/4GnpwZWackd9LXvser2sxzTpwUR1C81RenqhWl8erYP/GK17/yT9avZfNeryEKV/8KySnlipq/53oSZck6uFE/rp2U9aasD9T+jm63qrXXSYjr37gO56XvrNy3/ViM7Srg+M/UhKVswfV2rafd3VxNllMzBycPXH+mLbWi19ca7q3fGYrqq/VnOmZ2rgH0erW1S0ug3op9aNnGXn3au7/x5pHM9fdVUrawMAAABArfTNfz5QYmKiUwJQ0yZPnuy8AgAACMyqVavUt29fp1Sz6tevr+joaPXu3VuxsbFObeBqNAjxj01O2RR/r/446VEN6dVSRz96TPf+eqm6PTJeV0SFSYV7tXXO0/rs8rmadXeB/m/M02oyZakeHdzSWdmQt0VvPNBPC2Pn6aWJ1yviIrvu7Yf66e0oo+6RSC0zXj9bf4be+utotTODBfnG/AnX6+12/yxZ59BSPTtqpNJ/uVTT7uvtCkLYir6Zq6njl+qK/5mpq7/9qx76R5gem/6oul3sLGAhCAEAAIBzB0EI4OwygxCTJk1ySgAAABWbOnXqWfv+kJeXp7179+qjjz6yAiHXXHONMycwNZqOKWLwo3r0z3/Vr37eVGrcUjEdWqqeCnQ0N0MHZRzEc4/pTw/dqz/94Wkt3CVl5eVY4z1kHWmqxqEhzlYcJ3OU973UrEWk6pnBBFPDlmrWvKWysjN11Brroak6totWhDl+g6kwR98dLlCzVq516ocZ23ZeuxQdWqo3kh7Q1P9vpj7avlJLX3xUf31xpnavWqjXn3pM//hol4qcZQEAAAAAAAAAOB+FhoaqW7duGjt2rNUjIzU11ZkTmBoNQsRccb0GJ96r/37kaQ3Y9rTmvLtOR0+GqMnFkWrXfJj+uDRDa/bmlEyzRiu6WVNFhGfq+0M53o3+9cPUrEWIvjucoaKTTl2hOcZErrF8S3vgaF/WOk2V57VOjo7lOa9d6tWPVrse3dWqUY4UP1JX9e6kUGOddrfdrKsSeqtjqzBnSQAAAAAAAAAAzm9hYWG67rrrtG7dOqcmMGdnYOqON2vU2H76/KUZWra7QE06X6eeFy/SovdW6mChVJS3V+nrl+rzTZlSZG9d0TtXC//5ipZtz9TRI7v01eqVSj8Vre59+ylr2SJ9sdceWDpry1It/09L9byqk/9BohsZ6yT00aFVH+ur/QXW+3zxUbKWfePMd7u4k666+WZ1bm5s77pEDbuxny5u2l1X3TJaN49M1FXdzV4cAAAAAAAAAAD8NLRt29ZKzVQZNR+EMF3UVN1uG687oxbp5TmLdDD8eo35ywx1+nykbusYpn7deuj2X4zUwq05UqNOGvL4P/WbFslKuqGTruvZR/f+eq52fV9fHW97Qg/0WKqkQZG6MjpMN96+UK0nvqIxA6LLCBA0ddZZqT/0j7TeZ3zSSmeeT7on0w97lf5NoVq3ayl9v0vp30erXaumzkwAAAAAAAAAAH46wsPDVVhojYUQsJoZmPpkgbL27lVhaLRaNy9p7D96aJey8kLUxDNuQ2GuDm5fq/TcEDVrFa1WRn1xWiVjGwd3r1P64RC17tRd7Vo52zlprLN7s13f1agv3r7xnul7dbR+ZOnAgbk/xrZ2HZSade6hVsowlvPeN4u57b05qh9p7J8ydTCjQE2ijX3yjCfhUvT9Xh3MliLKmA8AAADUFgxMDZxdDEwNAAAq62wOTO3L3Bfz+0ygaqYnxEUhiujQqVQjf5NWndSuk2vg6PpN1Tr+el01oJ86GvVe4zoY22gd18+Y17skAGG6yFjHU++1feM92xnb99dzwdwfc52fG+8T1VRNokrvm8Xcdgdj/xoZrxu1tF6XFWCod3G02pUzHwAAAAAAAACAn5qzk44JAAAAAAAAAACc9whCAAAAAAAAAACAoCAIAQAAAAAAAADAGdi/YoZmvDRf2/Kcitro+z1aOC9Fv3jqfXVIMqanFmvivE3a9P0JZ4HgqJmBqQEAAADUGgxMDZxdDEwNAMD5Yr9WvjRfm41XJ7J2K+1IqCIviVTohfbcivXQrff3U5RTKs+ZDUx9Wt+uXamHFh/TJqfGWx2NHtpTk/u0cMrlq+zA1AQhAAAAgJ8YghDA2VWlIERhhlYs3ap/rz+qJUdPKdOo6tSkkQb3aqvfXd9ZLesH3NoBAACCIG3JA3r+gx66+6mx6hnmVFajMwlCFO74TKPeyrYCEIPj2+vhAR0UG1ZXhT8c1salX2nipkJ9qzp6+PYBur9LQ3ulclQ2CEE6JgAAAADAOenoN+u055ujTul8dUq56z7R0D/+R0NTcvSaE4Aw7Tqar+kpO9T+j+9ryrosp7Zi80Y3UqNG/qZntNZZxp+1fzaW+XN5SzjWPVNq28+sc+aZDszTnV7z79S8A848D2sZP/XGHj7jta6fffbavvd86xg88/wdi7Ou1/76Yx5jIOfiXFHqmpV/LwDAuebkgc/078U7leOUS+Ro5+J/67MDJ51y1cUMmaEZM4ITgDgjp9M1d4EdgBg95GrNGh6n2LD6RqmO6jeMVMLwa7XwtqaK02k9v2CLtp+21qpWBCEAAAAAAOekrMVjlb54j1PyL3XBaI0e7ZoWpDpzzg0FX63UrW/maEV5DQKnT+iZN1fqma/ynYryjZybr/x8c0pRkm7RnN2e8uPq4yxT2lqt2HaLbnlqRWCN00+mONs0pt1z9OVAT0BhrZ7puEDDi9/TnN7QyDbWWsUyP1sg3SYt+MwTcrGt/fMK9S9eL1975nypQe5ggBlE8Np+yTFlzrtTg7bN0R6rfo/mbBukO+e5tm82xHdM12VPOuUaZwdYKgyA+BFwgMgf85wNlFJc57X8ewEAzjXHlL75S6Vuekevv+8ORORo5/uv651Nqfpyc7qxVA04nqbVn6YoZWvgDw+csa8P6NUC42frtno4Idyu81JHoT26a3xr42XBd1r2tV1bnQhCAAAAAADOGcc3PKeVD7yiPYedCsPpozu1bdpYbdhc6NTYcldP1xQlae7cuSXT8Fhn7jng+BZN+UdWgE+knzKW/UwrjjvF6rZuhaZ0fVAPPjlFKyrbSN5mpLHee3ZA4cBefXnbcPX3CTp4y9SKRdLwB4ZLi1YU9/ww9fmDd+N4y3aXSdv2Fi+zdu4YXbasdFDD3uZ7SnpgpFpa5ZYa+ec5ru1nat4MsyH+cfW3ymdDHz2en6/HezvFsphBA5+AQ58/5Cv/D1UMGxxI13tP9i8z6LD2z/56pADAuaSxYoeO0ogeYcrZ7AQiTjsBiM05CusxQqOGxhpLVYU5JoQ5IHWA0ytv6P0F8zX/3decupXGFoLrSMYPOmL8HGyOVWFX+dFUcZeYvSOMf1YzvrN+VqeaC0IcStYfosN0ZfE0Wh8dcubViHX6h9f7u6ZxySov9vTVdGOZ6RV/y7KW89r2s/rKmWcJ4BxkvTfa//74rutvmU3Pljnfa9/8HIv1vr7764/5HgGci3OG+5xZUwDnoNpk6qNxgb1fqXvrfLoGVVL68/yH99x/mtQmxr5W8Dum9H0Ypn/4HyWodqjE74HSvxdr87WqQaX+PQjGeTF/x5jb9v97xv69fwb32tn49+B8+zcIAFAl9TveqIjWHyt92NXa875R8Z+p+s+wkco82Efhrew/nj2OZK5X4qVlBR1ytXrmQtXmfhHpn6RpemVSIpzO04ufBKO12Gygn6KkQX3UZ1CSpqRU8Yl7U5toXfbuAq0obzfXvaYxGq7+vfsb/y9vWXu/bhnW3wksrNWKp5KM9ayCj3Slv3uL2rmDE9a+GPVWoaVGzq2up/+N/XKnvBo9z6gpYfbI8E595FnGXM/V4O+VVsqcntFaq7fGGL331CDXevY23b06vN/Ds02f/TImq9dFm3Zl9HCxlx/01Hsa09G1vMkrfZM7ddNaPWPs01r3+/scPwCcHWHqfJMrEPF3VwDips7G3KqKUsJ/j9XYQKfEQYoxV4sf7NQlBDQodU0ICeLwUjUUhFinf1y5UAPX5GjNXs80V4NbObNrRG/9yvPea17RAD2hVzzlWYmKcJYqbZ027BymAc+tDKix+DcLnG0a0wfTN+ve4sbHQM5Bpr74SMa+LdQXXsGJTH2ULD1WvF6OXul8r/7qbrAyG2aGy+8xmQ1N9+58RR9Y83Zpys7rvRq7zEbCG/f20G+ccs2zG5Qr3xBW1fUcZiOg+5xZ06Pq5syuLczrU3L97OkVXV9h8KxGWQ2qNRRYtBrsr5dcnzVz+vMt9p8d56xHlpYcj/E7aufw8s9nmQHL6lDNDb3u34tr9i5V5wmdaEg23ej+XNvnpfoDEca/Xzc+rQ2lfk86/97c6BRrkHnvEogCAJyJOk06q+vEuer8QHszi4KUvlMau0DXzLhX7VvYy3g0b9lLyVv9hRlStXD0eM1am6wpVpqm6Vr9vT3H7D1RnLpp5mrl2tXGKgs1fXWqVs905hnT9NXFc4PgsNZtPeG8DtxHWw9Uf4PvgRVa8K7TuN+7v5ICTcnkcWCeXnzqFg2/2vzO3kePL7vMadT2P+7A2hRPYKGl+g8rnZKppIH9IenP+XpjpPO3gNXLop3kbgD36jFwmaJL9ZD4UnurNW5jNty314Jhe4pTG6V0HaP2nv0wzsVDYy4rSX20e45uuW2O9sz19NDwMLbzB7NXh7OcNT2uPr0fV/6ypJJ0V6XWM6x7Ru3d7+Gku8qc95DGdHWlyTImq9dFm5F6wUxrVSpgYAZm9mjObSUpu6zlfdI3WSmx3Ou9O0Yv6oXi9/A6fgA4q8LUeehwDYgwvkJkG18iIgZo+NAzCUDY6jZooAaBTq0SNHbGDM0Y1tWpq+tsJXiaRzZUc+PnR19nKM+u8iNXG3faPUq7RjazflanmglCHNqrnTferJ5lBR02PVt7GyQ2rdTfOz+gUY/4a8QpX8QtD+g3HzgBhYrOgenQSi3TzRo1WFq2zn0+WmrwBO9ASevoYVq+d69TytRHr2zWlDX+GtDNhqZF+s29nvWNbT35inHXrbQbLw8l63Ut1ZoJ/ay5Z4cdIPpVvFMsi9nQ7dVwGeB6ZcnYq+WP9Csj6BB4L4WgMj4b9z73hF7xCZR1m7BLU3SvFlU1AHOmfD+zrRL15xoJLJr3+tNWo3aVr3tllLrnaohxPkc9ssjn94C3iFvmVhBAdasl97PF/Nwu1W+eu7529/aogq+mn0kgrreGTXf/Xq8+Awc/ob+v8rmPnX9vBnZ2yhWqTfcQAOCn7uThddr0wCDtfLVQF7UzKsKa6OSMX2rNtHd10GeM6qYJd2vc/il+AgaxunlukhKN/5KsNE0TlHCxUZ26UOM39NJMJ3VTUtQsjXeNIbF+1mLpTk9qpyS1mzVeC53ZdvCiOntWZCndlXIqYIfznSf7q485PkNJup4+6v/kFL3oHkvBH8+T+uZkjdHgSpFkNqSbDdTL5Kfh2+zN4AlYGH/BXj1cGvOaV7Ci5cg3nAbuF6Q/+Kzv2wAun3Efgs0J2DzoCYwY+vwhpfKBG+Nv9+iuqlKvEyuIM+fuUr06rNRVZeyH55zuGbZA7UsFb7yZKa/k2n7LkQ8qqbhHicnn+EfPCXwsEQAIKnMQ6gVanmV8fQgPM/6pXa4FfgerPjPH01cr5dMUbTNzINUGl7TR2IbGz4P79epXP9h1Pgp3bNUrB40XIc008BK7rjrVTBCiVbQ6exrjfVhP8w5/WsvNJ2PNlBTFDX72U+6eNBUljVVOQ4j1NLRnfrAaRpwGz7691a2vn0acyijnHHh8lXyvNLifuvW+uSRI4Nc6LZqwyNovi9OY5D/AsVeHPhimVpFO0WTty16Z95XVeDzBb1/VKjCvTck1KzcllGeyrre5nqvxzuvaGpO5HbPuynu1/LnrS+p81zN4v4dzX1hP6fupj4wuo4eLee91UtIHT+tea/my9s193xnrGPv0lZPexJqq4Sn1rH2bJb+BkpbqOXiY654M5P0r+EwVnyfnuHyugyfo4P8za27bfT7Kuxec9/PafoCNt+a9/sETuqLMAEQZx+KzP95BT+/zUryvfu85m3UOfJcPIvP9/rGp5Bisa2fun/v3pbEfXte/+NjN4/N3P5dx3MX2lnPOfHlvq+LgQm9d8Yi0c59rmz73m+82vM65cwxmnfd+2eeoeF1jm394b53XcZjzvLZVKshU1rGUd9/a73vvc4uUdKXvelXlfc9638vuz4uznOs4rONzH1fvfvqNz++6rHULrX9vzDGnSpT1nmXdQ+XwuZ6l75+V5d4zXteoBj5jAIBzy+lDa5Xf+hF1XjRPba8xKm6apX6LXlKTg2/pwG7vMSHM/MYJ482AwUz12jDeCkZ4ggal5Wr1kmQlDkkw1rLF9hunXvuPlPSGGDHUDlZYYtV/XElPi6YJE4z3udmoPbdZAxw7wQM79Y49loI7qDDoKek9ZywFd9ofr8Z+98DUfgaetljBiD2aozF6yLOuOfaEStL/WKmHjBr/41CYT+qnKMmd3um2OXrB3QA+KEnv7fE0j/vr9eCvd4QPd1qkQFIL3dZOZnzMm/Pe7l4H1vEt0PA/++nNYLDGeRi0wjm/lRuX4bJ2frZone/+WuG8t7/gjB2MMIMmg8odIPu9Me2d/TKnQcYVKqdHiZn2ynkJAGePzxgQv/EZI8JZqvKytM0caNo1fbpqpeYvmK9Vy7zr/U/bgv837w8nZH9DOq2X3l6uySvSlVfk5Hs8mavtK5Zr1FvZ2qQ6enh4d8UFIWJQQ+mYeutXC3o4jTOeRg2b+TTvB9OHacD0XXZKCqtB3GwIcaVbKZWa5Gndu6qfk8LCT9qj6GrKre1u8Iwv3YhTkaz3Zujvxb0fyj4HtnXa8NwwDextfFFo1U8DS6Vkcjewr9QV7h4A5hP9naN10NUA7338PdS6VIBisw5W1IhUKeY166Rlg53raExmyqgbPQ1hm571Tim04Ak7/UypAIhx/YabvTqc5czJfNo7/tGSdTx1zhoeZqOVd9ois2eIsV9P3avOXulgnB4jrRL1mHnvlGrkcp7ULk7Z5TzhbzZsu9I3ed93hg/u1et6tvh9vI6/ig7uXaQB0dFOyVtE2x7Szr0Bvn8AnynjDwk75Zd9frLUzydVzKPW8v4/s24V3AsW38+wlJTsmV/OZ9i812+M9mk49VX6WL6a7t4fO+1NcaOncUxXuO634lRnZd1zxr1840c3F5+b6rjOpRj32uue3weOvw9/1PhDzn5Pv71AfK//I0/rdesclnU/l3HcHs8tLH6/UufMS0X3ln9evbnMBmt3ajTfbZjnfEIPV+q0wHvdLJ8wo+Q4jOv59+Fh+mvxebLT03kHGirzb4/nvm2pwbOMbd04rPh3l3mN7IZ0f7/v/fEJLmuvWt/r7If1XsbvG+s+a6nWnV29ZKwgtPF5dP0uMH9vlGzHZAZ93L357FRM7vvLVtZ7lnEPlaOs3x8eyyfstf4ds+b7u97B/owBAM5p9Xo8oGsm3qbWTZwKw0Uteit+xjz1usJ7TIgSTjAiKVHJU8rvrZA8pSTd0ugHZ2n92iPWYI7+NG1euqm5+kSonU96qYC0aOSnATxwVsO3EzywU++s0ALN0Z7igII5lTT8l/RKcKVFqhQz5dItzmv7Kf4krxREZrqfWwLrEeA1xoOvdmp323tKdzeUO+mbKjxfbUbqDc/++Et/5MvvPpQEO9L3qDi9UZkBGg9Pr5Hdw7Wgo//0Vf58me7n7ymLPfi1GfwZvqh9GYEGs7eL87IMvteo3OMwz7PzEgDOjmNKXewzBkQdnzEiFqcaS1VFhDpelaAE19Szg91qGXWpd73/qWOAWS6qKGe7nn9pl54v7gBxWnNTtip+6mJ1SHpfHZ5apWEpx6wAxOihPXV/F7PLRPWroSCEwWzQMxsUFshPo6+PTXOVpFc0zNPQ5qQmOZThlDVMUxJLGli80h5ZjSXVkx/efFK0JF2P3YhjN+qVzWzg8gQCrEYUd2N5eefATPtUHLAwn3J3N8rauk1wGmz29tMGc313o8xz12tDX8/8XRr4UVkNhkHiBGxGuc57twlLKx24kaLV6sby09D455t2ysNssDOuSxm9WKyUNsY5+2DwQt3oe059WD1Vpo927gfPfef0KLH4HH/iKwGPJVI9ynn/Cj9TKnXuIuJ7u8rmdXFeViSge8HnM9z7Zlcj6pl/hr2OxWrQd++Pnfam+Cn8Vr3VzdWgajaOly3T7h3l2r51nt3BoKry9LgwJ2v8GJ+G3kceqKDh1+ec932i/NQ+FR231/vZ58zv5yiAe6siX616WgNcny07QFiSlq7U/MpwH4cZTPY6T/bvh2KV/bfH674tzf794i9NnuODe+3fO9Y0Q63WuANMxvUpfm1syww6OtzX1u7R8IArcG0HtL16vxm8evOZn9HO/u6nst+zsir6/eF7vc3zbF/vIH7GAADnpYihr6rd0PZOKQCxcUp0XvrXS+Ne9KRb8kxl927IPVLdiY/cWqj3pZXPEz340jYVN5JXgpV6p3jgZw+zkfq9UmM1BOSAOfyy21q9NuY9+8l9a+yI0gNLmymZ7HQ+azXP5+n9zHkvasptw9XfagD3TRWVaQ9c3d4MM7TUyAeSNGWGpyeDPeZC6WM7Q236a/ht3umq1v55kKYUp7My001ZLyrHtzfBtr0+57GE1fvDJ4VVaXa6J1OmcU28OGN4lAzi7R28sQYnH1heQMTn+I17qCSdFwCcDY3Vrsdlio33HYTaCUTEx+qyHu2MparGd0yIyF6j9Mwzz2hwZ+96/1MQx4QwAxAv79FLngBEw3D96944vdC1oeIvcuouqqORXdvo7Qev0+Q+VXn6ITA1F4TwsBri7Xz2Xk/d+vJqnDHTXPik7vBSiQZSv9zpN0pSXpiN2u6GQXMfljtpktypItxPbHsNwFpWvnY/58BsZHMf840TzPcuqwG7t361xqeB+5GlrsYrO1VPyfny1+vBX+8Ib2UdY5n8PqHuvLdxzNbTrM72rKee/aaBMp8oztFjetR570CfIjaVbngzWcGbviud7fl/QttuLDQbysvPU1+cgsiartffy+tRYqa9cl5WlffYH96sVE2do/3fYybf9y/3M+Xn3JlPpxcvb6ZiceoDUd69cCbMFFpegR9//N0HTztpZOzJ/HyVnFf359/57FXAHWy0UjZVuE8BcA9M7edJ87J6xFRd5Y673AbpSv2+tvn28unctvSffu5739/8oKjCsVRZ8cDUZi8K38CN2SujZD/MFGjFilPJeXo09LYC11Yj/qEyxh+yevPNsH7/mQHVzl49JTzKec/KquTvD98gWFA+YwCA81KTDr3VvoOrS4SXXOU6g0175K5erOQ+za3BGW3pOlK8TFPFXSHNesM1GLWvdxYXD2BtDm69YtZ6JV4avARM7X4eowmV+au9Tqge/Hl5j9VXlvf4DG5WQ7eTkqlSDrxmjzngSuWjZXavC++xJ1ychv0V69pJi9xpgBqp/aLhXoM69/mD/YS/Pb+9NRBzcQ+N3o+XjHngO68q3ONemJOVqskezLlkHxpp0LY52vMHz1G5B+b2TP5SLZkDXLuXMc/T4/a56X23lcLKOg5/6aHM43SnfHK2706dZU6DlGL3dvnsIa967zE8nODNQHue1XPC7J3hGc/DM3ntR5KGq2Sb3scPAGfHRW2u1i/9DkJtDlb9S13dxtMqXw3q2gGGuu5/w49laPfXu7U/54RTEWSHt2qyVwCiqf51X4ISotrr5pGD9PaTN+mbKcb05FBNGxmv+IuDO0B2zQchLHYjebm8GuTsqewno81xD5yXVWI/eW2/j/PUqpXiwp3ax5yWFve48DxBX/5+lcd9DswnVz1pLjyT2SgV4GDYZoNUmU+J2j0LvBq3rEaqilLaVOEY/TYSeYIdmTq4032M5TwdbCh+b7PXSHm9ZryU8/S1pxfKmpu17MqyAht2nvryeAWZrKmctCTmeXZeVpXV8Os3GOX0/PDbkOjwff/KfKZ80+NY96MzLxDl3gtnwAqsVH6Q+JLGXtdkBcHMhnhX+h1jMlNNla8k5U7JVP79XPtU/ritoFdZKvX72uRKP+fw19DvDlIELRDgq9LHUh1aavC9T+jvr3h+15nBAO+UZlZqMA8zZd+Nm3Vwk/nvlB1wMHtlmGMJfeWM9VA6OGn+fjN7GyRb/96UHlelgvesjCr8/jCDUiXOh88YAKC22P6GK7WSMVmDTo/3jPlgjukgzXrQnDfdCi6Y4zrMvGK9xrvWGe0amFojeknF25yi9HEzdbMTg6j+gakNDbor6VcRAT5BfqGx7NXq38ApBsRMzVNeOqBy5psN0WWlJjLnldXobM7zSuPjpH0yWKmd/K5nNuyby9k/vdYvtQ8+y/hsz50+qqx9NFNSefapTH6Oo2RffPbBtY/WmBsp/b3XM4MSc81+BeZ6rsZ/n2Mt2SfXPGfb5nG5Aypex+lcQ+86Y3KOv1S97zV3HWvxPvgev891iHZvs9Q1AoDzSekxIfxOixdoxvQZen3RRz7zgjAmxHdbNPHldM31CkBcrYSwsxQKMNTMOx/K9DmZdu5r95OtXk97W09slvdE+iKvVEXeYy9UD88g0d4NOZ5GnCo0hpVzDqz9LzX4sGvg4UPJ+sjnXJj7V5wqyhpD4l4tKl7GfX79NG495e/YzpDVKOadruqr6deXHJeVoseqrhwzwOK8tJQZbHHOV/FxlsHVOyDLuCZenDz8JU/Rez+5b6UzGV5ezwyf43dfo6oye5A88nSpQIw5xoFX2hhLOe9f4WfKD3egykxT43P9yuqhUeG9cEZ661dWXv+Kxxwo5nw+yu555b7m9mfHi9c9Z95nUtJTgQbGahPfnigVHLfz1LzNnu836FXpe8sOgPzdlSbJSi80YW7JZ8v4LP51QsmYBaXmO8wgnad3msXPfVopVfmceKlcGiov8aNL9RAs+TfS+L39irtXgn0fLntloTUekPW73LrPF+r1j7z/bXWzz+O95X4Wy35PUyV6M1X0+8PnepeMgXIuf8YAALWPZ1Bq11QcgLDZg0mb8yYUDzhdUudMw909HZp7bXNCQsnWgjUwdUi3fpp/R5j6l/fXe526evyOfnq8WyOnArVZ0iDv4Ic5DoadMgoAcO5pqIi2UYqqaGoVai998c985kUYW6heR7Zlat5Jp9CwsWaPObsBCFPNvHvGXK/0FmYaG/MJXE/6ICu3/nNO2iPXIJhyp2PwSqMzTFOiPel1zDQiPfRKceojO8XImQ1MXfopXQ+rEcfd6BWoMs9B2U+0W/nGzafgW0XrkNe5CNO9WuoaENhMYeQ+X9dr5/RdJemZ4h8tGfPATIvReemZPdnruVaeyWogtwdmNcei8NRbg0R79tHK8e4MAl08+WvQ904RY+XGf9K5tk4jnXUcfnpHmL0nvFI+Wds3n+71lM3JPO/OE7XrPCmfnMkrD7+ZA9/4cmgNJO7ce2ZvCs94Hp7Jaz+e0MDiNFI+x38GzHRS3sflXP9S6b7Ke/+KPlM+3OfanFb10yuuXiKlP7NuFdwLFargM2xdB88g7yVT2Q3HpfenZHn3dTanlbrC/fS3n3vOvM9KPk/OVOsHzfW9nys4bsOA6Q9IT3nm+/xO8VLxveWVWsf53ec1oLnvZ+tKczB5Vy8j83eY1++Pks+k12fD5z6tvEp+Trw4AV9nXfP+qtzA1Mb6T74iWQM4e2/ryuhHjZPzildA1grAfOD+t8NuvF/+gb9eDg4zyGL88N+DqqL39PM70eTv34MKfn+YfrPAGdvInHyu97n5GQMAIJguVNPeP9fiP12jxYPCdHeTC41/uW2dmjTShEFdtOdPNympd7U+ZoYg6fOHFMlJbVScrkhnmBYKAHAWNVDkJR3VsaIpfpAemPCAbr06zmdepLGF6tW8axuNbWz8bGwGIPppQIuzG4AwXVBUVPSj87pSkpOT1eGaMxqIoYrMRuVHpSfLSYODWsa8ZnaaD3fww2yg+6uerYFUJzXBbDhfqSsqlTLEPC9z1XpWdaQZqcr7o2YY12bcXg0ra4wYAADOgm/+84ESE8sfnheAj9SFGr01zqdnRNVMnjxZkyZNckoAAAAVmzp1aq35/mDui/l9JlBnPwyCnwjfniV2D5Cy0oYAAAAAQK0Se3O1BCAAAAB+aghCoAaYaUbMAaFdqTWi7Z4R/tO7AAAAAAAAAADOB+dgEKKlBs8iFdM5p1Wi/rw3R2tc0/mRhsnDzCVf2VRI5r1cXemTqvL+qBnGtSEVEwAAAAAAAH6i6AkBAAAAAAAAAACCgiAEAAAAAAAAAACoUFZWlurXr++UAkMQAgAAAAAAAAAAVGjXrl2Kjo52SoG5oKio6EfndaUkJyer6SVXOCUAAAAA54rcrzcoMTHRKQGoaZMnT9akSZOcEgAAQMWmTp161r8/5OTk6OWXX9btt9+u2NhYp7ZiZxSEGDJkiFMCAAAAcK5YsmQJQQjgLCIIAQAAKutsBiHy8vL07bffWn9HXHPNNdZUGQQhAAAAgJ8YghDA2WUGIQAAACpj1apV6tu3r1OqWeYYEGYKpt69e1eqB4QHQQgAAADgJ4YgBAAAAICawsDUAAAAAAAAAAAgKAhCAAAAAAAAAACAoCAIAQAAAAAAAAAAgoIgBAAAAAAAAAAACAqCEAAAAAAAAAAAICgIQgAAAAAAAAAAgKAgCAEAAAAAAAAAAILigqKioh+d15WSnJysIUOGOCUAAAAA54olS5YoMTHRKQGoaZMnT3ZeAQAABGbVqlXq27evU6pZ9evXV3R0tHr37q3Y2FinNnAEIQAAAICfGIIQwNllBiEmTZrklAAAACo2derUs/b9IS8vT3v37tVHH31kBUKuueYaZ05gSMcEAAAAAAAAAAD8Cg0NVbdu3TR27FirR0ZqaqozJzAEIQAAAAAAAAAAQLnCwsJ03XXXad26dU5NYAhCAAAAAAAAAACACrVt29ZKzVQZBCEAAAAAAAAAAECFwsPDVVhY6JQCQxACAAAAAAAAAAAEBUEIAAAAAAAAAAAQFAQhAAAAAAAAAABAUBCEAAAAAAAAAAAAQUEQAgAAAAAAAACAM7B/xQzNeGm+tuU5FbXR93u0cF6KfvHU++qQZExPLdbEeZu06fsTzgLBcUFRUdGPzutKSU5O1pAhQ5wSAAAAgHPFkiVLlJiY6JQA1LTJkydr0qRJTqm65KvgeCOFNHCKAACgBuzXypfma7Px6kTWbqUdCVXkJZEKvdCeW7EeuvX+fopySuWZOnXqGXx/OK1v167UQ4uPaZNT462ORg/tqcl9Wjjl8pn7Yn6fCRRBCAAAAOAnhiAEcHZVOQhxMl+ZBw5oZ5b9tGJYy3bq0aaR9VraoWeeyFD/3/dTnyYBt3wAAIBqkrbkAT3/QQ/d/dRY9QxzKqvRmQQhCnd8plFvZVsBiMHx7fXwgA6KDaurwh8Oa+PSrzRxU6G+VR09fPsA3d+lob1SOSobhCAdEwAAAADgPJSr1TNHa/Ro72lhqjErdaFGLzBfnCNO52nX0qUa+vsP1f5/tmjo3B3WdNWzRvkP72v6xix7ufwsDfrLau2ySxU6cXCj5s2b55o+1q4cY0b2Di3a6mwTAAAEJGbIDM2YEZwAxBk5na65C+wAxOghV2vW8DjFhtU3SnVUv2GkEoZfq4W3NVWcTuv5BVu0/bS1VrUiCAEAAAAAOE/10rgX52ru3JLp5lhn1rnieJpee36pLv8wTytOS51ahWnaoA5694ZIPd6+rhoUFmji3GW6bd4RZZjL55+QGUcIRH7uAcVec6tGjhzpTNepU5hRn5etFk09PSwAAEC1Mf5dX/1pilJqMtj/9QG9WmD8bN1WDyeE23Ve6ii0R3eNb228LPhOy762a6sTQQgAAAAAAGqlHH306gaNO2C8bBSqNx69RRsf/7kmDIvX4OuvUdIDt2jb/9dd05pJH60+rJftlQKUr7zsUIWH1nXKHqeUn5uvsCYhThkAAJTNHBPCHJA6wOmVN/T+gvma/+5rTt1KYwvBdSTjBx0xfg42x6qwq/xoqrhLzN4R0raM76yf1YkgBAAAAADgJy5VC91pmzypmr5frekzVyvXLtllT0oni53yqaRcvQq++EK/3WO8qBOiOfdfq1vaeAIGJ5T+4ftq/9DbavT/tmhiVdoKTuUre3+EQhs75WJHlZ3ZQuFNnGL+Ie1Ys0SL5s3T4k83Ku3oKas6a/s87fA8xFl4QF/MW6Qd2a7yx7sC7pEBAMC5K0oJ/z1WYwOdEgcpxlwtfrBTlxDQoNQ1ISSIQ0oRhAAAAAAA/ISZAYgpUpInZdNMjds/RdNX50oXN1e7teu1/Xt7ydxd66U+vZR+xBOWOKIjaxMVF2vMWz1do0cvNLZWXQq0dmOOMo1XPXp20chW7paBump3w0DNT6irlk5NpR3N1uF24SqVdKkgXzmNjHrz7U4e1uaUVNW55FoNGzlS1/VooLQ1qaWCCznp+xXSJUJyckjnH9ij47FRqm0psQEACIa6DRqoQaBTqwSNnTFDM4Z1dep8eyRWv+aRDdXc+PnR1xnKs6v8yNXGnYXWq66Rzayf1YkgBAAAAADgPLVesx509XDwFyRI3a7kPuPUv3isiKZKuHOctGG78ed4rOJGrNcRKwiRq+0bpF5DejnzDNa6za0/7JsmTNDcuTcba1SXEPX/9S+U/8Iv9PkdHZw6t0bqMfIW7THmm8uUTAPVx1miPAVHc5Sd/pkWegalXrTDDi4cy9bh8FArOJH/7S7lxPVQpwi7gaRusxZqlZ2lvONW0VZ4SHvyoxTV1CmfOqy0XaHq9DPGlAAA/DQdT1+tlE9TtM3MgVQbXNJGYxsaPw/u16tf/WDX+SjcsVWvHDRehDTTwEvsuupEEAIAAAAAcJ7yHZi6jCBBVHN52tCLrT1i5U9u3rKXkremSt9v13pje3Gxccb/7d4RuUfS1euKuNLrngPyc/eqU/8RJYNSD+ti9VzIz8tSG2tQ6gLlHMlRi4u9s0efUojqXuQUDPkH01QvKtKolbLzC3QiY58OtY9WC9cyAACcv7K0zRxo2jV9umql5i+Yr1XLvOv9T9uMLQTZDydk93E4rZfeXq7JK9KVV+R0XzyZq+0rlmvUW9napDp6eHh3xQUhYkAQAgAAAADw07b/iN2zwc3Tw6FTL/Uy5qeaqZisgENTxV0hrd+VaveM6BTEEMTRA1q7YrVeW7Fb6c5YDH4FulyxfOV9H6Xwxr7Jn08oL0fFg1WfOhWhRvWsl7ac73SoVbjM2RdeFG6la0rbG6GoFhcqpKEZrMjT/j1F6tSWREwAgJ+KCHW8KkEJrqlnhwhrTtSl3vX+p47GFoIoZ7uef2mXni/uAHFac1O2Kn7qYnVIel8dnlqlYSnHrADE6KE9dX8Xs8tE9SMIAQAAAAD46YqNU+LaWVrhHmz6jVlOwMFwsd3zYfGG9WrX3A44mIEJbVis9WvbqfnFVlW1K9j1H902ebUGLTigcQu2qOvk9/XyrgJnbolAl/NyIk/ZueEKLZUxKV85BzyDVYeoUdMs7T2QoxNmsfCwdmw4oKi4tlaqppCQRsrft08Fl7S3x3644EIpc5/SwmLVpoFZAQDAT4PvmBCRvUbpmWee0eDO3vX+pyCOCWEGIF7eo5c8AYiG4frXvXF6oWtDxXt6LF5URyO7ttHbD16nyX1aOJXVjyAEAAAAAOAnLFY3z02SpnjGjRivWVFJmpDg6eHQVM2j1mu9MwC1xQlMrB8RV5zeqXoHpj6she9m6CMnU4Ll9Ak9/O4Wa6DqEoEu5+NYjg60CSs9KHV+nrJblgxWHdGxr1p9v0ZL5s3TouVpqtOjr7pElPSe2JPTSDGRJY0n+9OOKyamhXz7VwAA8JNS1w4w1HW3vB/L0O6vd2t/jhXaD77DWzXZKwDRVP+6L0EJUe1188hBevvJm/TNFGN6cqimjYxX/MVBDIYYLigqKvrReV0pycnJGjJkiFMCAAAAcK5YsmSJEhMTnRKAmjZ58mRNmjTJKfmzQ888tE1TnFKJCKV4DTwd6HIAACA4zDEhNpcf/Ddl7db8VdsU1XuwerV2pzxqqR7Xdg0oJdPUqVMr+P7g+G6LJv5tn+addMpWAOJqJYRVX38Ec1/M7zOBoicEAAAAAAC1Sit1+pnz0u1noersvLQFuhwAAAiOhopoG6WoiqZW5thJxtIX/8xnXoSxhep1ZFumKwDRWLPHVG8AoioIQgAAAAAAUKuE6ZY72mqk+y/2OiGac8dl9jgVxQJdDgAABEcDRV7SUR0rmuIH6YEJD+jWq+N85kUaW6hezbu20djGxs/GZgCinwa0OPshAIIQAAAAAADUNq16a86frtHno7to8eh47fnTDRrZys9oC4EuBwAAzp7GkVbQISosuGMvWJrFaeJjN2nNYwNqRQDCRBACAAAAAIDaqH6kelzeVf0v76CW9csJLAS6HAAAwFlAEAIAAAAAAAAAAAQFQQgAAAAAAAAAABAUBCEAAAAAAAAAAEBQEIQAAAAAAAAAAAAVysrKUv369Z1SYAhCAAAAAAAAAACACu3atUvR0dFOKTAEIQAAAAAAAAAAQLlycnK0atUq9e7d26kJDEEIAAAAAAAAAADgV15enrZt26bZs2drwIABio2NdeYE5oKioqIfndeVkpycrCFDhjglAAAAAOeKJUuWKDEx0SkBqGmTJ092XgEAAATG7IHQt29fp1SzzDEgzBRMZg+IygYgTAQhAAAAgJ8YghAAAAAAagrpmAAAAAAAAAAAQFAQhAAAAAAAAAAAAEFBEAIAAAAAAAAAAAQFQQgAAAAAAAAAABAUBCEAAAAAAAAAAEBQEIQAAAAAAAAAAABBQRACAAAAAAAAAAAExQVFRUU/Oq8rJTk5WUOGDHFKAAAAAM4VS5YsUWJiolMCUNMmT57svAIAAAjMqlWr1LdvX6dUs+rXr6/o6Gj17t1bsbGxTm3gCEIAAAAAPzEEIYCzywxCTJo0ySkBAABUbOrUqWft+0NeXp727t2rjz76yAqEXHPNNc6cwJCOCQAAAAAAAAAA+BUaGqpu3bpp7NixVo+M1NRUZ05gCEIAAAAAAAAAAIByhYWF6brrrtO6deucmsAQhAAAAAAAAAAAABVq27atlZqpMghCAAAAAAAAAACACoWHh6uwsNApBYYgBAAAAAAAAAAACAqCEAAAAAAAAAAAICgIQgAAAAAAAAAAgKAgCAEAAAAAAAAAAIKCIAQAAAAAAAAAAGdg/4oZmvHSfG3Lcypqo+/3aOG8FP3iqffVIcmYnlqsifM2adP3J5wFguOCoqKiH53XlZKcnKwhQ4Y4JQAAAADniiVLligxMdEpAahpkydP1qRJk5wSAAA4d+3Xypfma7Px6kTWbqUdCVXkJZEKvdCeW7EeuvX+fopySuWZOnXqGXx/OK1v167UQ4uPaZNT462ORg/tqcl9Wjjl8pn7Yn6fCRRBCAAAAOAnhiAEcHZVNghRcGi31h7yfkIxrFUH9WgV4pQAAMDZlrbkAT3/QQ/d/dRY9QxzKqvRmQQhCnd8plFvZVsBiMHx7fXwgA6KDaurwh8Oa+PSrzRxU6G+VR09fPsA3d+lob1SOSobhCAdEwAAAACgVkhdMFqjR7unhUp15lWb1IUavaDatxpUuV/t1sSUQ9q8I8ualqfs1l++OvNcDycObtS8efPs6cNV2rwvT6eceWcuX2krN8ondgIAwHkrZsgMzZgRnADEGTmdrrkL7ADE6CFXa9bwOMWG1TdKdVS/YaQShl+rhbc1VZxO6/kFW7T9tLVWtSIIAQAAAACoNRKT5mruXHuaOS5dU2auVq4z76esXffumjCqnzX9pntdp/bM5OceUOw1t2rkyJEaObC9Tm3erH3HnJln6kSeshWu0OrZVQAAzg/H07T60xSlbM1yKmrA1wf0aoHxs3VbPZwQbtd5qaPQHt01vrXxsuA7Lfvarq1OBCEAAAAAALVS04ShSly7Xtu/dypqkdQF07W6Fu5X4PKVlx2qcE+UICRCzZodUkGhXTxjx3J04OJQNXKKVXEqe4e+SMt3SgAA1EbmmBDmgNQBTq+8ofcXzNf8d19z6lYaWwiuIxk/6Ijxc7A5VoVd5UdTxV1i9o6QtmV8Z/2sTgQhAAAAAADngFytnrlQqd+v1nSvVE1mvSuFk2/PieLl3es4zHk+y+eunu6drslr/dGavvpb6/2mvLNesx606xZWc3YncwyIFRu3FU9r9p9Szv5vyyz7mzYfMh95LMepfGXvj1BoY6esUzp1Ilx1rIE0zVRKW3U4/5A2L1+keRsPycyqdCI7TRtXLda8eYu05D87dNgdsCjM0q41S7TImLfiy0PKystWi6ZOCCJ7hxY527DlaNfHm3XYk/vJXHd9ihZbaaFSlJp9Qoe3r9LH//lKe9Z/YLzfDtXg86IAAFRClBL+e6zGBjolDlKMuVr8YKcuIaBBqWtCSMCDaVceQQgAAAAAQK2Uu3qxkvv0UtzFToWSNeUN6W4rXdPNirUCEOO1/oqZxSmckqJmaXxxECFVCx+cpXbFKZ7itH1KsjMvEL7rz9WEhJ8pYfxMjTP2a9yLdt3NsU7woprGsPAdA+LL708r5/vsMsvmGBGVHjPiaLYOtwu3eyqcKlDW11u1I6STosw81mYqpYzDSt0vdeo/TCMvb6W6x9K05otstYwfrJEjh6nvz/K0dssBO7BwKkc7/rNZJ9oN0DBj3lWtc7R5S77CmtgDZ+fnZSs0LFTFmZkK8pXTyHhvs7HjZJa97s+u0mAzLdT1/RUTXlct4ropxtifASOMupFdFGGvCQBArVO3QQM1CHRqlaCxM2ZoxrCuTl3w8xY2j2yo5sbPj77OUNnfDnK1caf9dEHXyGbWz+pEEAIAAAAAUGskTynpdTB+Qy/NHJ+gps48U+IQV/n77Vq/NlFDE0qWiB2epMR3ttvBgNTtSu4zTv1jrVmGWPUf18t5HYBS65etacIE2YGR6uE7BkRlyxUpOJqj7PTPtHDePC36ZK3STkTpmsvb2kEJM5VSeBvFdWqlkAvMilM6nLZVjbr1UJvG9mOSjVq0UkRantWYUXDAON8tLlWXSDvoULdFC7U43kLhTczSKeXnZpX0ijCcyv1Oh8PtVE35327X/qjLdamxrrXlCy+0f7oDFQAAnEOOp69Wyqcp2mbmQKoNLmmjsQ2Nnwf369WvfrDrfBTu2KpXDhovQppp4CV2XXUiCAEAAAAAqDXcA1PP9QlASL3UvLhXhKNPc+vpPm/pOuIZryGqudc2mjZv57wKkM/654v83L3q1H+ENSj1sMH91TOujUIvcuZlH1ZohyiZnSJsR5WV3kItw1wRgdPGFF5HF+qEsr/br5hWLezggelYnrKiPAEEY929bRTmSkJ9NOew2lhBiQLlHMlRVIuSdyp2LLs4UAEAQO2VpW3mQNOu6dNVKzV/wXytWuZd73/aFvyUgz+ckN3H4bReenu5Jq9IV16R+Q+54WSutq9YrlFvZWuT6ujh4d0VF4SIAUEIAAAAAMC5a+0Ra7BFb+1KghX7j3iP+XAk3XkVIJ/1a0p5Y0AEUi5fvvK+j1K406vB2wnl5RQp8mJ387+xveONFGJ3dLCcyDmsrMhwNTHmnSiMUmjx4qeUtS9VeZ4AwvE8ZTcNl2f8a508rL276xUPiH3qVIQa1bNeesnPy3ICFQAA1GYR6nhVghJcU88OdhLBqEu96/1PHYObcjBnu55/aZeeL+4AcVpzU7YqfupidUh6Xx2eWqVhKcesAMTooT11fxezy0T1IwgBAAAAADg3XRynXn2StXh1SZggdcEUJY+Is9MixcYpce0srSgeqCFX2zesd14bLm6udmvXa7un14RStWKWa36p9d3Wl/S2qGYhbSI0pH5+8RgPe+uHe5UrGiPCXH5wGz8t+x7mmA+FEa7AgVu+cg54Uil5NFKjn6Vp77f2YNenju3Txi2n1KO92fvhQtWtv1/fZVtDVysvbau2H8r2CSCcMsMY1gDUqTvSlH/cMyB2XYU0Nvb3QI49tsSPJ1RQaAdQCgoyVa9e8PNkAwBwpnzHhIjsNUrPPPOMBnf2rvc/BfHfOjMA8fIeveQJQDQM17/ujdMLXRsq3un9qIvqaGTXNnr7wes0uU8Lp7L6XVBUVPSj87pSkpOTNWTIEKcEAAAA4FyxZMkSJSYmOiWg9khdMFrbL7UHei7NHIT6NenOCUrwSslkD049a61T7DPOexyJ71dr+oOzZIcWemlcUi+t39pcE4Y7b5K6UKOLB6tOVFKSNGVrnOZ65nutb2xh3ExNMMegcK1nppDqf2S6xs9qp6QAxoWYPHmyJk2a5JQqL3Pp+3pIvfXG9XZjgW+5Qtk7tOjbCA3t7kqh5JG/T59vkS5PaCtXxwej/pA2b9ykXYeOqXGrTrr0skvVtom99qmcVK1dvVH7FaUevXqp2eHPlde2v2KsQEOBDnyxXBv3nFDd9pfqqk4XauuOC3V57zb29k/mKPWLNdqxL09q2kqx8VeqS4u6OnF4qz5fu115kVfrul7OsgAAnKuOZWj3oTw1bB6jqLCqBR6mTp0a+PcH49/RyXPSNbc4ANFU/7rvaiWEVU+fBHNfzO8zgSIIAQAAAPzEEIQAzq6zHoQAAADVxBwTYrMynVKZsnZr/qptiuo9WL1au1MetVSPa7sGlJIp4CDEd1s08W/7NO+kU67mAISpskEI0jEBAAAAAHCOqdwYEAAAIDgaKqJtlKIqmlqF2ktf/DOfeRHGFqrXkW2ZrgBEY80eU70BiKogCAEAAAAAwDnE35gR5Y4BAQAAgqSBIi/pqI4VTfGD9MCEB3Tr1XE+8yKNLVSv5l3baGxj42djMwDRTwNanP0QAEEIAAAAAADOIU27JmjCqH5e091dw5y5AACg1mkcaQUdqjoeRKU0i9PEx27SmscG1IoAhIkgBAAAAAAAAAAACAqCEAAAAAAAAAAAICgIQgAAAAAAAAAAgKAgCAEAAAAAAAAAAIKCIAQAAAAAAAAAAKhQVlaW6tev75QCQxACAAAAAAAAAABUaNeuXYqOjnZKgSEIAQAAAAAAAAAAypWTk6NVq1apd+/eTk1gCEIAAAAAAAAAAAC/8vLytG3bNs2ePVsDBgxQbGysMycwFxQVFf3ovK6U5ORkDRkyxCkBAAAAOFcsWbJEiYmJTglATZs8ebLzCgAAIDBmD4S+ffs6pZpljgFhpmAye0BUNgBhIggBAAAA/MQQhAAAAABQU0jHBAAAAAAAAAAAgoIgBAAAAAAAAAAACAqCEAAAAAAAAAAAICgIQgAAAAAAAAAAgKAgCAEAAAAAAAAAAIKCIAQAAAAAAAAAAAgKghAAAAAAAAAAACAoLigqKvrReV0pycnJGjJkiFMCAAAAcK5YsmSJEhMTnRKAmjZ58mTnFQAAQGBWrVqlvn37OqWaVb9+fUVHR6t3796KjY11agNHEAIAAAD4iSEIAZxdZhBi0qRJTgkAAKBiU6dOPWvfH/Ly8rR371599NFHViDkmmuuceYEhnRMAAAAAAAAAADAr9DQUHXr1k1jx461emSkpqY6cwJDEAIAAAAAAAAAAJQrLCxM1113ndatW+fUBIYgBAAAAAAAAAAAqFDbtm2t1EyVQRACAAAAAAAAAABUKDw8XIWFhU4pMAQhAAAAAAAAAABAUBCEAAAAAAAAAAAAQUEQAgAAAAAAAAAABAVBCAAAAAAAAAAAEBQEIQAAAAAAAAAAOAP7V8zQjJfma1ueU1Ebfb9HC+el6BdPva8OScb01GJNnLdJm74/4SwQHBcUFRX96LyulOTkZA0ZMsQpAQAAADhXLFmyRImJiU4JQE2bPHmyJk2a5JQC8NUyNfq/LKdgu+WGfnrj+hZOCQAAnB37tfKl+dpsvDqRtVtpR0IVeUmkQi+051ash269v5+inFJ5pk6dWrnvD15O69u1K/XQ4mPa5NR4q6PRQ3tqcp/AvluY+2J+nwkUQQgAAADgJ4YgBHB2VSkIsTFS+Xd3sYqZS9/XQ+pNEAIAgFokbckDev6DHrr7qbHqGeZUVqMzCUIU7vhMo97KtgIQg+Pb6+EBHRQbVleFPxzWxqVfaeKmQn2rOnr49gG6v0tDe6VyVDYIQTomAAAAADjffb9a00eP1mjXNH11rjOzuuRq9czpWv29Uwy21IVexxOcYzq/nTi4UfPmzbOnD1dp8748nXLmnbl8pa3cqEPBze6gU0cPaMf6FC22jmORliz/QruygvymAAD4ETNkhmbMCE4A4oycTtfcBXYAYvSQqzVreJxiw+obpTqq3zBSCcOv1cLbmipOp/X8gi3aftpaq1oRhAAAAACAn4I+4zRz7lzNtaYktZs1XgtTnXnnmNQFozV6ipRUfDz2MQ1t3tRZAoHIzz2g2Gtu1ciRIzVyYHud2rxZ+445M8/UiTxlK1yhdZ1yEJzK2qEV/zmkkEv6arB5DCOH6tor2qplwyC+KQAAZ+J4mlZ/mqKUrd5pFoPq6wN6tcD42bqtHk4It+u81FFoj+4a39p4WfCdln1t11Yn0jEBAAAAPzGkY/oJMntCvCHdPT5Bnmb63NXTNT5zqOYOj3VqzpTZE+I16c4JSrjYqaqK1IWafqS/JiSUEVAwe0BYAYibVV17XtMqTse0Q888tE3GYVZRhFJeGKg+Tsm/fO37/Aud6t5fMY3NcoH2rV6o/I4j1SXCWuDMZO/QogMtNOzSqm/slLGNTTlt1TOmkVPjUnhIG5emqdmgq9TWz2wAAGpGyZgQATmVp4yvM5TXPEYdI8ygefDHhDiy4mNdmVKowf17a9agslM5fpvysQasMJYbdKVm9W/m1PpHOiYAAAAAQKWYAYmFqWYQwU5r5OkhYdaXpDsqnWrJ6pFQnArpiFNrStXC0QuN/7uYwYOZq1WSMMlcpmT90QtS7febkqz1s8YX1/lK3ZqsXuP6VxCAMLZtvpcnZVPx+5Z+Tw/zvb3TOdnno7i3iBkcWZ1afI7MKbjpn8xAwi+Ub07/HSFd1tV+bUx7bgixBqb2lFMuC9Gcic6yL3RVkrOFcp3KV/b+CIVaAQjTKZ06Ea461kCaZiqlrTqcf0ibly/SvI2HZCY4OpGdpo2rFttpj/6zQ4cLzWUdhVnatWaJFhnzVnx5SFl52WrR1IkOmAEJZxu2HO36eLMOe3I/met6Uip9mKLU7BM6vH2VPv7PV9qz/gPj/XbI93nR/IOpyuoYV24A4lTmZn2+N085X39ubPtj7coxKn/M16Hta7Vkkf1eG9NcKajK3c8TOrTxc+07mqNUz3HuyKrG9FUAgHNTlBL+e6zGBjolDlKMuVr8YKcuIaAARE0ICXgw7cojCAEAAAAAPzmpWjFrvRIvLWnKT55i9mKwUxvdbFRbPSU29CpJ4ZTUTrMeLAksmPOn7C9J8XS3FmvWWmdmhcwG/ilKHzfTSaVkTMNj1TRhgmaO66VenvpSvTRydWS/1C6QtEtrZ2n81jh7O1YPEDMAYXWhcN5zpsbtn1KpQML6WYuLz5FvSis7YOMTeKnNjmbrcLtwWW34pwqU9fVW7QjppCgzj7WZSinjsFKNc92p/zCNvLyV6h5L05ovstUyfrBGjhymvj/L09otB+wG+1M52vGfzTrRboCGGfOuap2jzVvyFdYkxJyr/LxshYaFqjhJUkG+choZ7202dpzMstf92VV2SqXr+ysmvK5axHVTjLE/A0aYaZa6yLs/hbG/GTmKalZ+0u2juYeVn5am7Ba9NHTkdeoUdkqHv0pR6oWxuvYmY7s/76EGe9Yq1QxOGMrdTxmvD0iHv/1O4fFDNCyxr1rs31i8LgDgp6tugwZqEOjUKkFjZ8zQjGFdnbrgpxBsHtlQzY2fH5k9MOwqP3K1caf9dEHXyPJ7QVQFQQgAAAAA+CkwG+WLewHYjfFmsKHYiKGuNEq52r5hvRKHlKRvUuzNShqRrO1WK3vp+U0ThirgJF/fb9f6tYkaWlbKpcrw9HYwJ6+eFr00rp/rAFO3K7nPOPUvrmqqhDvHSRu2u9apgNc5ilX/cb2UvNUOO5gBlLnnUIqogqM5yk7/TAvnzdOiT9Yq7USUrrm8rR2UOJajA+FtFNeplUIuMCtO6XDaVjXq1kNtGtuPSTZq0UoRaXlWY0bBge1KbXGpukTaQYe6LVqoxfEWCm9ilk4pPzerpFeE4VTudzocHmq9V/6327U/6nJdaqxrbfnCC+2fXgEAX/nGehFq1NApWj03nAG2F+2QHRcoUH5OtsIviVNMU6eB59g+7crpoh6dIlTXPK66EWrRKltZeWai7PL3U/nmGBchatMhVhHmWJ4XhKhR42ydpisEAMDH8fTVSvk0RdvcnUTPpkvaaKz5b+bB/Xr1qx/sOh+FO7bqlYPGi5BmGniJXVedCEIAAAAAwE+B18DUPgEIQ6+W5jNybr3U3M/YDulHPE32vvObq3n5gxB462Ms77wMXFM1j3LvgyH2ZvuYXhxn7JFbu9L7H9W8JKjisfaIqtpG0LR5O+dVMGRp0ENvq5E5/V+W9OU2+7Uxtf+wQO99uLK4POjLAo2Z5iwb4FgS+bl71an/CGtQ6mGD+6tnXBuFXuTMyz6s0A5RKulncFRZ6S3UMswVEThtTOF1dKFOKPu7/Ypp1cIOHpiO5SkryhNAMNbd20ZhodYcy9Gcw2pjNfYXKOdIjqJa+OnRcCy7JABQoUaK6Wf2ouih8DZh9jqn8vRdeie1jSx5wrTAOK6c5s3k2hXrOEIuMne0vP00NmfsT1aHaLUyAxAWd/oqAMBPV5a2mQNNu6ZPV63U/AXztWqZd73/aVuplIPV7ocTsvs4nNZLby/X5BXpyisy/yE3nMzV9hXLNeqtbG1SHT08vLvighAxIAgBAAAAAPBjvY74jAFhKkmF5Dv/iI4EnI7JUMXG/+Yte2l9ZXovuO0/Unq9KgVDbLlH0p1X1a2LHnfGe/A3lT8mhDlVPCh13vdRCnd6NXg7obycIkVe7G7+PyUdb6QQu6OD5UTOYWVFhquJMe9EYZRCixc/pax9qcrzBBCO5ym7abhCPbGAk4e1d3c9hTsVp05FqFE966WX/Lys4gBAacZ+NzihopNO0WH27qjnSadkppuKbaFw9yH+eEoRDUuCEuaYD98damXvSwX7aaZ2imjs2p9jh7W/sK1alp8RCgBw3otQx6sSlOCaenawkwhGXepd73/q6JNysJrlbNfzL+3S88UdIE5rbspWxU9drA5J76vDU6s0LOWYFYAYPbSn7u9S3M2wWhGEAAAAAAD4aKq4K3opeYkrvVHqQk15J1FxVg8Kf/O3K9l5afeK8KRuMuVq9ZKSubo4Tr2M+YvLGI9hfWbZ4YmmCXdrnGZpvFfqpQDExilx7SytcO/TG7OkK+Ks3hFmrwav4EbqitJjXLyz2DU4d+lxNc4Z5pgPhRGuwIGbOfaBJ5WSRyM1+lma9n5rpi0yewXs08Ytp9Sjvdn74ULVrb9f32VbQ1crL22rth/K9gkgnDLDGNYA1Kk70pR/3DMgdl2FNM7S3gM59tgSP55QQaGd36igIFP16rkDBm5hatXplHZs3qUs1+DYZu+OCOegvAISjpBG4crat1855psZ73V4+0YdaBOntu7Buc0fpfbTTO1UoJzcbHs/T+Ro15c7VK9ztKu3CADgp8p3TIjIXqP0zDPPaHBn73r/U1n/1lUDMwDx8h695AlANAzXv+6N0wtdGyre6f2oi+poZNc2evvB6zS5TwunsvoRhAAAAAAAlGINEn3F+pJxJKaka9yLJWMemPOTolzjTGyNU9IIZ6bs8RbSpzjzRr8mDXGnSzLmj7cHdi4ez2GBZ2yFoUp8Z4pXnTdz3bne721OD87SemcJ/2J189wkqXifxmtWVJImeMalMMe8KPN4HCOMI3jDs749sLYnrdU5NTC1OeZDS7MXgx/m2AfNwhXq1UkiRG2799SF6SnWuAsfbcpWq2t6qq3V3l9XLdpfroLN8zXvw/U61CROca1aFvcgUIMWim6YqhXzFmnJV3lq0a6V5BkQWxeqRZe+avX9Gi0xx6ZYukZpuXZ6iNBmccpabdStPyA79OEtrGNf9W2Tr+3LFzljQSzR1qPd1MK5nPm5h73Gd7BEdFTfyBytWWIs//6nSruwh/rGRdhppMrdz3xl53ZUn9Z5WvOhse4nX6mg7TXq+TNX1xAAADzq2gGGuu6W92MZ2v31bu23IuE14PBWTfYKQDTVv+5LUEJUe908cpDefvImfTPFmJ4cqmkj4xV/cRCDIYYLioqKfnReV0pycrKGDBnilAAAAACcK5YsWaLExICHEAZgMgfA3hqnucPPvOfD5MmTNWnSJKdUeZlL37fGhShhpmO6SSOD9wDjT9uxNK3YHaKrLm/l1bMCAAB7TIjNynRKZcrarfmrtimq92D1au1OedRSPa7tGlBKpqlTpwb2/eG7LZr4t32a50lbaAUgrlZCWPX1RzD3xfw+Eyh6QgAAAAAAcA5pef1NrvEfzIkARDCdyMuWOWI1AQgAQGkNFdE2SlEVTa1C7aUv/pnPvAhjC9XryLZMVwCisWaPqd4ARFUQhAAAAAAAoLY6vE53PvS2Gr22w6mwe0I0Muqe+cqp0GHNm2Ys89D7mnfYqUK1yc89UDzWBAAA3hoo8pKO6ljRFD9ID0x4QLdeHeczL9LYQvVq3rWNxjY2fjY2AxD9NKDF2Q8BEIQAAAAAAKAisTdXSyomnHvCugzTpc2cAgAAVdE40go6RIXVQL+6ZnGa+NhNWvPYgFoRgDARhAAAAAAAoLZq0VtvmCmX7u7iVJSkY3q8m1OhFho5kbRMAACgdiIIAQAAAAAAAAAAgoIgBAAAAAAAAAAACAqCEAAAAAAAAAAAICgIQgAAAAAAAAAAgAplZWWpfv36TikwBCEAAAAAAAAAAECFdu3apejoaKcUGIIQAAAAAAAAAACgXDk5OVq1apV69+7t1ASGIAQAAAAAAAAAAPArLy9P27Zt0+zZszVgwADFxsY6cwJzQVFR0Y/O60pJTk7WkCFDnBIAAACAc8WSJUuUmJjolADUtMmTJzuvAAAAAmP2QOjbt69TqlnmGBBmCiazB0RlAxAmghAAAADATwxBCAAAAAA1hXRMAAAAAAAAAAAgKAhCAAAAAAAAAACAoCAIAQAAAAAAAAAAgoIgBAAAAAAAAAAACAqCEAAAAAAAAAAAICgIQgAAAAAAAAAAgKAgCAEAAAAAAAAAAILigqKioh+d15WSnJysIUOGOCUAAAAA54olS5YoMTHRKQGoaZMnT3ZeAQAABGbVqlXq27evU6pZ9evXV3R0tHr37q3Y2FinNnAEIQAAAICfGIIQwNllBiEmTZrklAAAACo2derUs/b9IS8vT3v37tVHH31kBUKuueYaZ05gSMcEAAAAAAAAAAD8Cg0NVbdu3TR27FirR0ZqaqozJzAEIQAAAAAAAAAAQLnCwsJ03XXXad26dU5NYAhCAAAAAAAAAACACrVt29ZKzVQZBCEAAAAAAAAAAECFwsPDVVhY6JQCQxACAAAAAAAAAAAEBUEIAAAAAAAAAAAQFAQhAAAAAAAAAABAUBCEAAAAAAAAAAAAQUEQAgAAAAAAAACAM7B/xQzNeGm+tuU5FbXR93u0cF6KfvHU++qQZExPLdbEeZu06fsTzgLBcUFRUdGPzutKSU5O1pAhQ5wSAAAAgHPFkiVLlJiY6JQA1LTJkydr0qRJTgkAAJy79mvlS/O12Xh1Imu30o6EKvKSSIVeaM+tWA/den8/RTml8kydOvUMvj+c1rdrV+qhxce0yanxVkejh/bU5D4tnHL5zH0xv88EiiAEAAAA8BNDEAI4uwILQuzQMw9t0xSnFLgIpbwwUH2cEgAAqBlpSx7Q8x/00N1PjVXPMKeyGp1JEKJwx2ca9Va2FYAYHN9eDw/ooNiwuir84bA2Lv1KEzcV6lvV0cO3D9D9XRraK5WjskEI0jEBAAAAAM6e71dr+ujRGr0g1alwy9Xqmca80Qvlb+7Zlrt6uqavznVK554TBzdq3rwdynLKJXK069N5mrdoh/GqNinQgXWfa1++UwQAoBaJGTJDM2YEJwBxRk6na+4COwAxesjVmjU8TrFh9Y1SHdVvGKmE4ddq4W1NFafTen7BFm0/ba1VrQhCAAAAAADOrj691Oud7aUDDd9v13oZ85xijbCCItO1+nunfB7Lz81QgwbZyj/uVDhOHNyjo02ipTZhauTUBc8pHfpysTZnnHLK5clXdma4QoO/UwAABMfxNK3+NEUpW0s/AhA0Xx/QqwXGz9Zt9XBCuF3npY5Ce3TX+NbGy4LvtOxru7Y6EYQAAAAAAJxlvdRrRLK2+0Qhcnetl67opXZOuUJmAMFvj4pKuDhBE+ZOUMLFTvm8la+87DZqG52v44VOlSVHe/Y0Uqvmp9QyLFR1ndryFHz7hbYeDiSI4M+FanXZUPWIDCB59rE8ZdVIYAQAgECZY0KYA1IHOL3yht5fMF/z333NqVtpbCG4jmT8oCPGz8HmWBV2lR9NFXeJ2TtC2pbxnfWzOhGEAAAAAACcdXGXJip5qzuAkKvtG6RenZo7ZY9ULTTTN3mmmauNJc3qhRr94Cytf2eKd73BTJtUanmTsY6ZTil1gT3PTq1kbt+V/sncrmfd4mXOA6fylX0yVC2aNtKJk06d4cSBPcpvH6W6R/crorjLwSnl7dusVR/O07wPP1dqTp72rd6qLOVr3/oUpazeo+3L39G81ftkPmipwiztWrNEi+bN0+JVm3XI6WlxKnOzPt+bp5yvP9fieR9rl5nr6ViaVmw8pBP2Ijp1dJ82r1qsefMW6/Ovc4z3/VxbnbaQE3nZUoCBEQAAakaUEv57rMYGOiUOUoy5Wvxgpy4hoEGpa0JIwINpVx5BCAAAAADA2Rcbp0R3SiYnFVOcb4+E76W4F+dq7lx7SoqapdfMwEDszZqblCiNSLLnjU9QU3P51IUav6GXZrqWH+/qLbF+1nhtv9SeNyHBWsNLruKK1507N0ntZr3mN1WTHeionWNX+HU0W4cvDlWLkEbK+8EKHUinspSa1kjtW59Qdma0whvb1WZPh//sC1HcoJEaOaSH6n39H22+MFyNjP/aXtZFkZG9dONIY15CW4WcytGO/2zWiXYDNMyou6Z1jtKO2Ns/mntY+Wlpym7RS0NHXqdOYT6BheMH9MV/9iok7jqNHDlUPeql6j+bLyzej/zcA67ACAAAtUPdBg3UINCpVYLGzpihGcO6OnXBD603j2wo85GOj77OUJ5d5UeuNu60u0Z2jWxm/axOBCEAAAAAALVArOJcKZnMVEzthjiBBLeLYxXrCkw0b1neiBG5Wr0kWYmu7cT2G6de+4+U9IboM079Y53XfjSNjXXtQ3M17+O89NE0YYLmzr3ZOIpzQ8HRHIU2baQL69VTTr4dJCg4kKqiS2IVdjxPWQpToxCzNkd7dxapy2WdFGFmabigkVq0DFNIWCNZs4/l6MDFocUpkgoObNf+qMt1aWRdncg/rAMHTyki1FyyQPk52Qq/JE4xTUsaXNyBhZx921XU6XJ1irDnN2rRQmEhnv0w00e1KA5IAABQWx1PX62UT1O0zcyBVBtc0kZjGxo/D+7Xq1/9YNf5KNyxVa8cNF6ENNPAS+y66kQQAgAAAABQK8SaKZmWmOmSUrViVjvF+W3R907HNH7Weqe+bMlTSpa3UjatPWLlRrZENS8d6HDzSsc0XrPWOvXnuPzcPIU1CZFCGins+HGdOJWltIwWim15oU7lZWt/y3A1MRfMydS+RtFqUdz4f0p5OfvVoqk1V/nGsmZKJ9sJZX+3X9mbl2reoo/1+fYshXbva/V4MDaq79I7qW2k+4nPfGUfaaMI6wLkKHNfI0W3LOnp4LUfZvqofE9AAgCA2iJL28yBpl3Tp6tWav6C+Vq1zLve/7TN2EKQ/XBCdh+H03rp7eWavCJdeUWnrRqdzNX2Fcs16q1sbVIdPTy8u+KCEDEgCAEAAAAAqB3MlExr12v76u1KHhHnp1eBGYCYIiV50iPN1cxx5fWEMPXSOFf6JnsKsMeCGYCw3s6z3kyNK6MnxLklX3nft1C42brfoJHCC04oe98uFUW3tXo0mGmTosxeEuaip04rO8xMvOQ4fkCpO6MU3tice0r5ufl2MMNySicKo3TljSM1ctgQ9e/VRW08vR7M9E+xxnu6802fyFO2whVqLXJKp7PD1aj4jQp0YM+ukv0w1/cEJAAAqDUi1PGqBCW4pp4dIqw5UZd61/ufOhpbCKKc7Xr+pV16vrgDxGnNTdmq+KmL1SHpfXV4apWGpRyzAhCjh/bU/V3MLhPVjyAEAAAAAKCWMFMyrdesWclKvLSsMEEvNS9Ox2T2mPDpCeFOtaSmirtCmvWGazDqyurT3MqjbEldcX70hDAb/y8KVyOrdT9EISc3a+2hVlYvCDttUoHCPWMvXFhH4d9lK+9H43WhOWbEYalBuOzZJ1SQ30gl6azrKqRxlvYfztcps/jjKeUX2ENOm+mf6vkOKu2VyulC1Qk/rGzzQv14Qllfp+mwGhTvh7l+I09AAgCAWsR3TIjIXqP0zDPPaHBn73r/k9e/jNXLDEC8vEcveQIQDcP1r3vj9ELXhoq/yKm7qI5Gdm2jtx+8Tv9/e/ceHld1p/n+VQThpvhuI2EZLKJAImKIDcIuJQaiDA8aDzhYmtIcpMeHpmGmz5ENPPEw6YsEsrCV7tA0fWKM5vTTcWget8RpV0u4TdotmifqgNMuG3VMuNgEoiADMha+4AtyAjJCZ6+9V1XtKpWkEqh0wd8Pz0Z7rbVvVf4Ds1+t31q7eI7tHH2EEAAAAACACcOUZJKCg5Riytf1VVLDvZHySPtUYBajjsi/XlVq0GozttELHsxaDRuvbvf6IptvYeoh+a9ntlcLVFtmxxJMqoWpe46re3rk5f8XdW6WlJfvzYJwSyTtn6tpkfJL0y7R16cc0HOhp9X64jHNmjdHmjvNHnuupmVLr/7zFm1//bjTztScry3VnPd2aPuWLXr6X3eq47gbR+jUiUO+sk2e+FJO03TJgmk68Lw5b4+OzZ6rOYo9hzk/GowAADCRne0FDGf737z3dOuN37yhruNeOJ92h17V2rgAYqr+/o8CCuRequXlxfrH+2/Wb+uc7f5l+vPyhVo4I41hiCOjt7fX/D7DiIVCIZWUlNgWAAAAgMmitbVVwaDvxS2AMbV27VpVV1fb1mBe00Pf26s620rdTLX99bf1uagaBQDAhGfWhHhJ79nWoI6+oad27FXutTep8CJ/yaMLddV3rkipJFN9fX0Kf39wHHlZf/q/39aWj23bDSC+qcC00ZuPYJ7F/H0mVcyEAAAAAAAAAABgxM7XzItzlTvcljPFO3rGvISxmc4VRtfhve/5AogsbbpjdAOIT4MQAgAAAAAAAACAETtP2V+5TJcNty0s1t333K0V3yxIGMt2rjC6Zl8xV3dlOT+zTABxnW6YM/4RAOWYAAAAgDMM5ZiA8ZVaOSYAAICYlMsxjQHKMQEAAAAAAAAAgAmBEAIAAAAAAAAAAKQFIQQAAAAAAAAAAEgLQggAAAAAAAAAAJAWhBAAAAAAAAAAAGBYR48e1TnnnGNbqSGEAAAAAAAAAAAAw3r99dd1ySWX2FZqCCEAAAAAAAAAAMCQjh8/rh07dujaa6+1PakhhAAAAAAAAAAAAEmdPHlSe/fu1aZNm3TDDTcoPz/fjqQmo7e3t9/uj0goFFJJSYltAQAAAJgsWltbFQwGbQvAWFu7dq3dAwAASI2ZgbB06VLbGltmDQhTgsnMgBhpAGEQQgAAAABnGEIIAAAAAGOFckwAAAAAAAAAACAtCCEAAAAAAAAAAEBaEEIAAAAAAAAAAIC0IIQAAAAAAAAAAABpQQgBAAAAAAAAAADSghACAAAAAAAAAACkBSEEAAAAAAAAAABIi4ze3t5+uz8ioVBIJSUltgUAAABgsmhtbVUwGLQtAGNt7dq1dg8AACA1O3bs0NKlS21rbJ1zzjm65JJLdO211yo/P9/2po4QAgAAADjDEEIA48uEENXV1bYFAAAwvPr6+nH7+8PJkyf11ltv6ZlnnnGDkG9961t2JDWUYwIAAAAAAAAAAElNmTJFCxYs0F133eXOyOjo6LAjqSGEAAAAAAAAAAAAQ5o2bZpuvPFGvfDCC7YnNYQQAAAAAAAAAABgWBdffLFbmmkkCCEAAAAAAAAAAMCwpk+fro8++si2UkMIAQAAAAAAAAAA0oIQAgAAAAAAAAAApAUhBAAAAAAAAAAASAtCCAAAAAAAAAAAkBaEEAAAAAAAAAAAfAZdzz2qRx97SntP2o6J6P03tW1Lm/7rup/qy7XOtm67/nTLi3rx/dP2gPTI6O3t7bf7IxIKhVRSUmJbAAAAACaL1tZWBYNB2wIw1tauXavq6mrbSuY1PfS9vaqzrZGbqba//rYW2xYAAEiXLj3/2FN6ydk7ffQNdR6eouyvZGtKpjc6vKu0YtV1yrWtodTX1w/z94ehfKJ3dj+v723v0Yu2J94XtHLZNVq7eI5tD808i/n7TKqYCQEAAAAAAAAAwIjl6rpVd+tuZ1txrWnn6ab/02untqUWQHxWH70WjgYQNy28VM9870b9tm6Z9v3xNfr7hedonj7R5u3/ocde+513wigjhAAAAAAAjIETCm9cqZUrfdvGsNOL8XL63T3asmWLt/3LDr309kn12TEAADAyeSWP6tFH79I102zHRPHJfm3eeswNIFaWfFMNtxYof9o5TusLOuf8bAVu/Y62lU5VgT7RI1tf1r5P3LNGFSEEAAAAAGCMFKrqR5u1ebO31eY2aDVBxDBMaaX/qlPR7QrVDtmfulMnDujy68tUXl6u8m9fqr6XXtLbPXYQAACMvt93KvyzNrW9etR2jIHfHNCPP3R+XnSx1gSme31xvqApV12p1Rc5ux8e0b/9xusdTYQQAAAAAIBxkX9dlQp3H9Zh28ZYOqWTx2ZqepYtWn3uTM2adVAffuQ1AQBAKsyaEGZB6hS3v23ST7c+padanrB9zztXSK/D3b9z/651k1mrwutKYqoKvmJmR0h7u4+4P0cTIQQAAAAAYILo0DZfuaZtHbbb0bHVV8bJ2TaEY/MnToQ3+MY2KPy+HXCvt835t0/HNl8ZKFMiyhl/P6wN7rmRY+OfY+XW2BXi7jWZZ3H0ndKxo9M15QLbVp/6Tk/XFyILaX50VK/vatXTW7Zo+46XdPD3prNPx3+zW61PmxJO29XW3qmTtn7T6WOd2rNju9P/tFp/8ZoO+cKMD9/ZrWffOG5bjtMHtef5Tp1yG6fU+fyrOnTqoF76+dPasuegTjv3Ofn2S9rxjNM213P6zC9wmvu7/f/i3P/pVu3+7XHKRwEAxlmuAn94l+5KdQsWK8+ctvAm2xcYkzUhUnFuyotpjxwhBAAAAABgXHQ836D2sgLluy0TCNRJtbZc04+qtL/OBgod21TXVaWNtoyT2e4JTPXOCm/Q6l8WxsZq56vh3oTgYUgh1TVJt7vnL3eexXuO/VUbo/fafKv3hOY5/Pdyy0nZgMILJ0Zy33H2wTEdmjtNbgbRf1rH33xVr51boEtMHeu+43rtFy/p9PwbdEt5ub510XF1Hv5Q6nlbLx2cqaKby1VevkxLv56rC8wLi55O7fqPY7pw4U1O/y1aOu+kdr98QKfNtR2nTrylOVO/ZFuOnuM6MGOKd+/TJ3Ws+5A6uqTLr79F5Yty1Pv2f+gX3VO04Aan7VzvxitzdK5z6IfveP1X/Sfn/v/5Kp39y4PyRRsAAIyLs887T+eluuUEdNejj+rRW66wfWfbq6TP7OzzNdv5+cxvunXS60rihPb82vsNgiuyZ7k/RxMhBAAAAABgjLSr4d7YDIPtF270veB/Tg2q0vW2qRkBLStr12ETQsyYrcLd7doXneEQcUL7ftmuYElAXiThyF+u2rKQ9o0gDYg7//19at8d1DIbcsScULg1FHesW06q67AzIk0N3GNDjMnhww+O61jHDj1lFqUO/Vyvf5yn4sK53sv+A/vUlbtIX88+W6dPHdKBd/s0c4oZkb7w0SmdsrMczj7vbGWqT4c6X9UFC67SXFva6YI5OZrZedK+6Dilk+/navqU2K9Xnjp2SHOm2ikYJpCYPlcFl+fo3Ayn3XdInS9l6qqr8uSumenIPMv8+6g6f+X1T8n4UMcPHNTx/GlDlJUAAGB8/H5/WG0/a9PeiVJv8itzddf5zs93u/TjV37n9SX46LVX9bfvOjvnztK3v+L1jSZCCAAAAADAGIktTL2xqlDt7yX83/nuBq2OlDpytrpmaf/hE24gcc/m26UmO+Yrj2SuOXuG3fVxz0tJkvMXz3Z/YzCZUF3s+Vbe26D2SbqmhZmdUFBsZjSs0NJ8adqcOV4IoNM6dqRLx176V215+lnt3HdUU65cqsvNDImsPC25ZooO7GrVzteP2pkOH+jo/jm6cJqvhsMnzjb9C3J7PjyuQx/N1JTzTMM4reNHezXtS16oYQKJKV/Olbm86+RRdV6Yo5k2gIg6fkRdv39T//5PW7T9uT16szdXRQtzlP7fHwUAYChHtdcsNO3bfrbjeT219Snt+Lf4/uTbXucKafa70/J+f+ATPfaPP9fa5/brZK/5j7Xj4xPa99zPVfn/HdOL+oLW3HqlCtKQGBBCAAAAAADG3NTAMgWbt/vWb3CU1cZKINktUnbJLJgYWG3LIKnOtyaEnS2RYP7sxJkMIzBosBALUWLbeM1+OKri7/2jLohue51vJVVmdsIlmp5l9s/WrOyZeuPdyCuQPp3+KFdL/ku5ym8p0fWFX9PcqbFX/WdPz9M1N3xHl3zwM73yrokh+qTfX6BzvUzBdfr4IR3Nni63ANOpk3rrQrtv9HTpzc45mu52nNbJ473KnhFdmMINMH5//rnujIw4fZ/oWMF3VF5ermXfKdKir0RCEwAAxtNMXVYUUMC3XfPlme5I7tfj+5NvlzlXSKPj+/TIY6/rkegEiE+0ue1VLazfri/X/lRfXrdDt7T1uAHEymXXaNXXzJSJ0UcIAQAAAAAYB/m6vkpqaLKLO+cXKNhcF7cY9WBmX1ho96aq4OpChVp9C0Sb9SOagypwk4HZmr3YX5rJK6k0pBkFKnTO2e5b+Npj7uV73snMrMPw0TRdYN/0nz07R3N/e1CH3FWez9a5WUfVdeiUt+hzf59OfXha6vtQp07ZZaD7e9V7+jx98SzzSuECXTCvU2+9Y5eO7nlbe17u01WXzvFmQhh93nl9PQf02m8O6nTudG8tCZ3S8QORQMI651zldL6lA97l1Pf7D70ZF6b/oPOMthRU30dOv30cAADGU+KaENmFlXrooYd001fj+5NvaZzTZwKIv3lTj0UCiPOn6+//e4H++orztdAtdehw/ltefsVc/eO9N2rt4jm2c/QRQgAAAAAAxsXUwO2qUoOecF/452v55lrJX+5oZWxh6ljfSndx6NvtDAmzFsPGq9tjZZzq9qvqR5HZCVMVqDALXEfOfUIqqVIkwkjOzLio1fyG1dH7Rco/DbiXb2xSLUxt1mHwz044e5YuzO7UoaPmrX6m5nxtqea8t0Pbt2zR0/+6Ux3Hnf5PTqnrlWf1tFlD4qc7dGhGkS6fY5KEc3Xxldcoc3+btjhjz7x4TDnfukYXRyY3TMvRVT0vqnnLdu18+2zlz5uuU9PtotSnTurYrOnyLRfhlnxadHWm3vw35z7OOc+9eki9kf4r+vR6m+1/uUun3BMAAJhgzvYChrP9b957uvXGb95Q13GvmGHaHXpVa+MCiKn6+z8KKJB7qZaXF+sf779Zv61ztvuX6c/LF2rhjPQWOMzo7e3tt/sjEgqFVFJSYlsAAAAAJovW1lYFg0HbAjDW1q5dq+rqattK5jU9FC2vNFNtf/1tLXb3Df/YYBLPAQAA6WHWhHhJ79nWoI6+oad27FXutTep8CJ/yaMLddV3rkipJFN9ff0wf3+wjrysP/3fb2vLx7btBhDfVGDa6M1HMM9i/j6TKmZCAAAAAAAwYX2WtR8AAEB6na+ZF+cqd7gtZ4p39Ix5CWMznSuMrsN73/MFEFnadMfoBhCfBiEEAAAAAAAAAAAjdp6yv3KZLhtuW1isu++5Wyu+WZAwlu1cYXTNvmKu7spyfmaZAOI63TBn/CMAQggAAAAAAAAAANIlK9sNHXKnpXftBdesAv3p/7pZu/7XDRMigDBYEwIAAAA4w7AmBDC+hl8TAgAAIF7Ka0KMAdaEAAAAAAAAAAAAEwIhBAAAAAAAAAAASAtCCAAAAAAAAAAAkBaEEAAAAAAAAAAAYFhHjx7VOeecY1upIYQAAAAAAAAAAADDev3113XJJZfYVmoIIQAAAAAAAAAAwJCOHz+uHTt26Nprr7U9qSGEAAAAAAAAAAAASZ08eVJ79+7Vpk2bdMMNNyg/P9+OpCajt7e33+6PSCgUUklJiW0BAAAAmCxaW1sVDAZtC8BYW7t2rd0DAABIjZmBsHTpUtsaW2YNCFOCycyAGGkAYRBCAAAAAGcYQggAAAAAY4VyTAAAAAAAAAAAIC0IIQAAAAAAAAAAQFoQQgAAAAAAAAAAgLQghAAAAAAAAAAAAGlBCAEAAAAAAAAAANKCEAIAAAAAAAAAAKQFIQQAAAAAAAAAAEiLjN7e3n67PyKhUEglJSW2BQAAAGCyaG1tVTAYtC0AY23Dhg06ceKEbQEAAExc559/vvr7+5WRkaErr7xS8+fPd/vmzp1rjxgeIQQAAABwhiGEAMbXunXrVF1drb6+PtsDAAAwuA8//FA//OEPVVNTY3vG3rZt2/TGG2/o3HPP1Xe/+1195StfsSPDoxwTAAAAAABjjAACAABMJsuXL1dFRYUbiOzfv9/2poYQAgAAAAAAAAAADOmiiy7S5Zdfrpdeesn2pIYQAgAAAAAAAAAADOuWW26xe6kjhAAAAAAAAAAAACkxi1SPBCEEAAAAAAAAAABIye9+9zu7lxpCCAAAAAAAAAAAkBaEEAAAAAAAAAAAIC0IIQAAAAAAAAAAQFoQQgAAAAAAgJRdcMEFdg8AAGB4hBAAAAAAAAAAACAtCCEAAAAAAAAAAEBaEEIAAAAAAEbgIx199QW9ffAj2wYAAAAGRwgBAAAAABiBD9S96S69/csPbHswJxTeuFIrV8a2DeETdgype09bVl7grsMQ3f5itx0DAACTxccH/l3/sP3XOm7bMcf16+3/oH8/8LFtf/4QQgAAAAAAhnV06yo9/+cteveD2AyIjw+9oBfvXqO9h2xHlAkgVqsht1abN2+220YV/nK1Vm7tsMeMvxPhDVq5Mew87QR1YIsqLrhUW295U6dOnYptf7LYHgAAACaHHu1/6VfqeLFZjT/1BxHH9eufNqr5xQ796qX9zlGfT4QQAAAAAIBhTS26XV9696/061vK9d6L0sf/UKXnb1mlDy76lqafZw+yToSfUIOqtPHWfNtjTFVgda2CzdsVft92jSkTjGyTPwKZGrhHm1cHnCebmHZvvkN6/E01lV9oe9LJzLh4SMyxAAAgHbKUv6xSZVdN0/GXbBDxiQ0gXjquaVeVqXJZvnPU5xMhBAAAAABgWGfNuVYL/59/0sU3nSP9XvrkjSO64If/om/9aaku+pI9yDr8XrsKry5I8nI/XwVl7Wp/3Zt7YGYibOvo0DZfyaZtCRMl3NkKkXH/rIWObW55p46t/lJPiSWgIqGDucdqNewOqc7t3+AFIc414mdmxD9L3Jh7v47466d1VsduPbfuu7r1m4MHEO9tqdBDL8TKNT30Qqw/Wrpp5Ra953U7Eks7RUKH3Xrogkt1R0udit3+Cm054A4McS0AADAy0/TVm31BxP/rCyBu/qozOtqO68V/fUE/2TrM9q+/1Ul7RroQQgAAAAAAhnXqjRbt/oP/rLd/Pktn5Tgd0z7SqT/+rnZuekHH+rxjPCd0uEuaPzv5/ILZFxaq/b3DtiWF6vapIFKy6UdV2l9nAwKjY5tW/7JQG+14bW6DVvte/Lc3rNa+r3tj9wTM/Q5rdom9lrNtrNqvOvf4fC3fXKug80+tO3aPAjPcS/iYAKJOzgH2/I2q6qqLW8eivWG7VBEZj5/V4YUl8TMtPpMDb+lX+oYumWvbg6j79vekv/DKNH3/WqfjhYd06dO36k1buqntijt0aXQNif265O5YWac3H/+Vit2xxfr+qTbVOv+0uWNNKjf3HfJaAABg5Kbpq8tu1Q0zpePHjkszb9Cty9IRQBjTtPC6mfqo46j+4uVBto4+55gva4o9I10IIQAAAAAAw+p94xc6fcNjWri9QTPzpC/evUWLN/9Pnf3zJ/TugDUhUldYdb2iRZtmBLQsOlPihMKtIQVLYuWS8q+rUmHX4dhsiMVVut5f8cm5Ur6vPXX2fLuXgo59CsVdb6oCFVXSL/fF7le2zBdeeLM6DtsQwi3ttHl57LOMlfvv9QID13va8midau8uV2T+xOKVj+u7e9+yMxgWa7EJKqwL53/D7iUz+LUAAMCnZRah3qqfH5WmTZ8mHf25tiZdrHqUnPtl/d+rL9P3zrdtv/On6R9WB7TwXNtOI0IIAAAAAMCwpt/8iL5157Wanmk7dI4uuKxUizc/pivMzIioqZqdK+0/HJtB4OeWarpwtm0NZGZK+IXqfOWP7m1Q++7Dis6jyJ2dUPIpoRxTXcj2p2jA9Rz++42luZfoG/qV3rJlkQbz3UsHBi11346UW3K2y+7QP7Xs1353JKEc07fr3N6hJLsWAAD4NBLWgPi/EtaIsEeNumRBxBgGEAYhBAAAAABgBL6k7Dt/rIuvTlgIwsctueSfQRDVoX3NhSq8PHmpJsOEFDGFqvpRpPxRZBtstoEJIFar/eqNsWNrg3YsRf5ZFhGLZ2vwyCSd5mt+6T9p67+PdBWG7+rxN2Ill7zt+1rsBhCXaustb8b6/63WnjOY5NcCAAAj1aOO7QlrQHwhYY2I7R3OUWniDyLGOIAwCCEAAAAAACNwjmZ+/VpdnHOObQ80NXC7qhS/foMXEtQpFFfSyKyz8FxsHYX3w9oeDSmmquBqqaHJtxh1CmJrUXjlnOLtj5ZPGiC/QMHdDXou+jDO+U0NUtIFtsfChSr/i8elOy6NLjg9vAt1/S3OKX8y+ALS35gfKa7klVuK5595Mfy1AABAqrI0/6pvKH9h4iLUNohYmK9vXDXfOSqNTBDxPxaqbYwDCIMQAgAAAAAwyqYqsNpb2DlaGmmlnaVwa/w8hsKq2doXOebeBs2vjS0abdZZ2Hh1u1ZHr+FsccGGn3PPkqCvfNMTUkmVYsWd8nV9ldRwrxnzLX4d5S1erej5q9WQW2sXvB7eqC9MbcwtV9Mbj+tX/pJIzlaxZfBY4MLyJr15y1Zd6jv+Ancx6QtVfnetr7zS96S7H9d3vdMci3W7yTwuM2MV2nJgqGsBAICROmvuN/Xfki5CbRar/m/65tyzbDuNpmQrd4wDCCOjt7e33+6PSCgUUklJiW0BAAAAmCxaW1sVDI6wTA2QBubF/RO6PeUX/Z8X69at05/8yZ/Y1uRjwghTmgkAAIyNDz/8UD/84Q9VU1Nje8bXX/7lX+r++++3reExEwIAAAAAAAAAAKQFIQQAAAAAAAAAAEgLQggAAAAAwLgwaz6caaWYAAAAzjSEEAAAAAAAIGWsBwEAAEaCEAIAAAAAAAAAAKQFIQQAAAAAAAAAAEgLQggAAAAAAAAAAJAWhBAAAAAAAAAAACAl559/vt1LDSEEAAAAAAAAAABISX9/v91LDSEEAAAAAAAAAAAY1rZt25SRkWFbqSGEAAAAAAAAAAAAQ3r33Xf1xhtv6Morr7Q9qSGEAAAAAAAAAAAAg3r66af15JNP6txzz9X8+fNtb2oyent7R1bAyQqFQiopKbEtAAAAAJNFa2urgsGgbQEYaxs2bNCJEydsCwAAYOIyi1BH1oC46qqr3ADC9M2dO9ftSwUhBAAAAHCGIYQAxo/5n/ifvXFYR3s+sj0AAACTy8ysc/Sdy2anvDYEIQQAAABwhiGEAMaHCSA+/vhjtbzcra/lTLW9AAAAk8trB0+o9MpsnXXWWSkFEawJAQAAAADAGDAhxOnTp20LAABg8jJ/p4mUaRoOIQQAAAAAAGMgMhMCAABgsjN/pyGEAAAAAABggkn1f9YBAAAmspH8nYYQAgAAAAAAAAAApAUhBAAAAAAAE8Yhta6apWvm+7YN7XYMAABg8iGEAAAAAABgIjjYrO/PL1DbTfv0H/uPxLZ7Cu0BAAAAkw8hBAAAAAAAE8DLoT+SNuzTQ8vn2J50MjMuHtHLtgUAAJAuhBAAAAAAAIy7dv3HIzeruHDwAOLotj/QT16MlWv6yYux/mjpplXNOup1OxJLO0VCh3b9ZH6Bav75B/pDt/8P1HrQHRjiWgAAAJ8OIQQAAAAAAOPt4Nv6ta7URTm2PYiGFd+XarwyTX+40Ol48RHd9MwtesaWbvrJ5X+km6JrSLyli+6KlXV6ZsPL+kN3rFB/uP9fVKU/00/csb9TibnvkNcCAAD4dAghAAAAAACYLNas8gID1yG1/vgHqrqrTDNtz5XBv1Hx62/bGQyFutIEFdbMeVfavWSGuxYAAMCnQwgBAAAAAMB4y7lYX9XLeteWRRpM8fxL7F5Mw4pIuSVnC/yR2v75LR1wRxLKMa34gds7lMGvBQAA8OkQQgAAAAAAMO4u0UX/5adqaz9k26m6WevDsZJL3rZGV7oBRIHabtoX63/qz+w5gxnsWgAAAJ8eIQQAAAAAAONujkpq/ka6pyC64PTw5qjwJqlm/eALSH91XmSha6/cUjz/zIvhrwUAAPBpEEIAAAAAADAR5JTpofDf6Nf+kkjO9v1tg8+OmLn87/TMTU/rJt/x17iLSc9RyV1/5iuv9H3prr9RsXeao1Df3SDVBMzYH6j14FDXAgAA+PQyent7++3+iIRCIZWUlNgWAAAAgMmitbVVwWDQtgCMlb6+PvX09Ki146S+ljPV9gIAAEwurx08oZL8KcrKylJmZqbtHRwzIQAAAAAAAAAAQFoQQgAAAAAAAAAAgLQghAAAAAAAAAAAAGlBCAEAAAAAAAAAANKCEAIAAAAAPoveA3r7hZd0tNe2AQAAAERl9Pb29tv9EQmFQiopKbEtAAAAAJNFa2urgsGgbeEzO9SiX9zyM01/+jFdMcf2JejYulJ1zbbhCqp283Ll29bEckLhjU9IFfcoMMN2pWjg55QKqzbqnsBU2zqz9fX1qaenR+3dH+loz0e2FwAAYHKZmXWOCrPPUVZWljIzM23v4AghAAAAgDMMIcQo6DugvX/8PfXc8KC+fvU+vXirF0JctP9vtXfrTF3xg1JNt4ca5uX8vq9v1nKbOpwIb9DqXxZq4+qAkr+e79C2lXVSbeyc0WTu/4RuHyQc+GwhhP9zRj5HqKxWm2+dmJHLWIqEELNmzbI9AAAAk9ORI0dSDiEoxwQAAAAAI5U5VxeV36jTj5Zr9x/8lXr1po7+z2/qxe8/q7OLCvTFPnvcIKYGlim4u1373rcdA+Rr+eYRBBAd27QhfMI2JhLzOWoVbK7Ttg7b9TnRsXWDwoP++QEAACCCEAIAAAAAPoXp1/53FTU9ogsyP3BaB/Tx0Rt1cfMWLb75q06fd0xqOrRtY1gnOrZp5cqVWmn23dkIsZfcZubCtg4zq8AZt1skdDBjK+tCam9Y7Y1ttW/7I9dLOD5mX9z1hgwJ4q61zXnikchXQZm0/7Dv/gnPlnhv9zNFx73vwfTFfwbzHfnOdYOYDrfPf924a0W+m6j47zT2HObazueMe87In4d337rmdjXcm3geAAAAEhFCAAAAAMBI9X2gd3+6Vr8oW6NTM7/q/I/VOU7fP+vtirv04gtH9LE9bDAnwtsVWlyogki5o90NWv1qgTZv3qzNg5RoCtXtU4EZN9uPqqSG59wwYGrgHm2sKnTXXnDHbNmjEyrQxsjxm2s1v+GJuN/cb284HHe9/XWD/Gb/+2FtcCtDecdurNqvOjcoSd3sCwvV/t5hr2Fe7PuuN+Dezvjqhvmx8c2pl4Vqb9guVdjzaoPOd7bSLTvlXWejqrr8MzJMmOCVvEr6HAqpLvJn4mwbzVf+vPuNK7DauZbz51f1I2/MzFjxwo6RBjQAAACff4QQAAAAADBSmR/p2M4ufemhNl33V/+HztK1uvDv2vTVu3P1wZbndSJJOSbzQjzyW/UD14MoVNV1Q9deKqy6PraQ9YwCFS7er8PJQgNran6+7/qzNXux3bXirxfQsrJ2tb8+MFroeL5B8h3rlZI6LBspjFjHq6EB9769StF7DxgfibJlscAiv0BB559l0XUvpmp2rt01Op5Tg6p0feRG9juIfafxfyZTLy9UYdfhQcMXEwZtnrCLjQMAAIwfQggAAAAAGLFZuuIHP9bCa2fpLNujzC/popvX6rqHSzUzSTmmYOQ37s02YLbDfM0e4SLQw4orJbRaDbtt/yDMbIXBREs9uVudQho6AEl0+L12FV4427acTzt74FyP6EwJR7LxtDAzUKKfy5RYSigbBQAAgM+MEAIAAAAAPotpi3Xxo/9D2dNseyJILHlkShElzIRIZIKCwcQFKO6Weokk52G0r7lQhZfHgoVkL/r9IcWYBQFltQmfa7Puic6cGHvhdRnKyIjfyp7stqOTW/eTZcoob9Jn/zTdaiovU1OX+Tnw+/K2eoXt0Z9d5H62mcD8mdXvsg0AAJAUIQQAAAAAfBZfnKuLr71KM79o2+PEP5PAtXi2oq/1TemhhJkQ7XZNCdf7YW1PCAoi8r9u1lb4tGsdmIWf6xTylUky10u89xMNit57wLg1dfZ8tf9yX6wcUpLPNCKmXFOzf42IkfKXbho968P96u+PbDu1qCJHGetir9RH72X+aBj6BX1Mt9qekkrVrLZhj01Vtiq2xL6n9c7VG9+JtKsVsEcBAIDxRwgBAAAAAJOcu05Dc51XVmhrh5R/varkKzX0aoFqy+zBVrC2QPsi4/c2aH7tILMb8pdrc61UFznWbEMsTO1f+8KUbnIXfraLZbsSr5d4b2fcXfw6eg27WLTTX5s79GcamXwt9x7E3sd3r2FNVaDEW/janGeCjPQsTB1QtXnB/kBR9Lfts29rVv+WCmV7zfTYVT+6MzC62tSsMt23Qmre8fmY2QEAAFKX0dvb22/3RyQUCqmkpMS2AAAAAEwWra2tCgaDtgVgrPT19amnp0ezZs2yPfFMaZ+2G/tVvcR2WKb/4fyDar4t2w0IMp4tVv/95nf9zUyEHFWGvOMMM5Oieonp36S8NVJRoCYyop3+GQLmOtExqbTJu76ZaZFT0WJ7HQ/u9O7V1aSyeZWKjHjHy7nPKmnFIlVWRK5lZiQ0q8K3CHj0+Ze2qcx5psd8IYq536a8+6RAkaJXsM8SYc4vesDbL23aqbKnHpYe8d8jrPqMh5UXd1+nr7xTd67pVI75nMFGHXTuq4TP531ftuFeJ/Yc3mfP8z5j5H72e4ucF/dnZsKbzmLn+YpifyaR7w8AgM+ZI0eOKCsrS5mZSRZDS8BMCAAAAAAAJrC8/FK1dHTaVkz3k6tUuWCnLUHkbbEX6jUqMmGF7T/YtEdFvjJO3SrWweh5puzTKreskplpcbCp1A0C3DH3BXpY9fMqtchXKioWErSossN/H6nycf+KDGG1PVCqsqXO8bnFKktSkqkm0KZie37/O41SxSbnLI8JKYpeaYw+62N6OC50GVKoUjmR78AGH51590Wf1dxrTyCyfoQJboq0J/K5zZYYHpggxuna6YwlBkURLRUmILHnu7NYHk6hXBUAAJ9vhBAAAAAAAExC2XmLpAfaoi/s45Wq8Y7YS/Ts2+7T+lAsAMheEvCVdMpT3lCTo3a1qSbYqDuTvnhPuM/SMpW+0hkNO7xzy1TszlDIVvGKxJDCzG64MzZDwwQVwT3qdJ/TrCXRovVrYjMn3M9h94cX/2xGwPncUbl5cr5BjykZFVqv+3wzMOK4M0GaVfbOMOtNPHifbzZGQMUPttjPAgDAmYsQAgAAAACACayzo0Wl+Xm25bOkWv39xWrLyFCGsw29jkNC0GDKCtnzMjLiSzoltSDPF1qkLvxsjTcjwd7LLYU0aHCSTKnyoi/1jWECkziLEs71ZlbEPrev9JIRdK5td+O1qDJgSlENvB4AABgeIQQAAAAAABOWr5xRUmbxalP656DKnsqJLmA9UKc6I0GDu66BV1bIKxt0UI3Dvdj3z25ImXl2sxZF5D6Re9WobdDnTJQ4k8D3OUbIXe/iqbK4MlRxsypCzrXtbjyzzsXAklYAACA1hBAAAAAAAExIdqHkuBI/g8lW3gK762qJK3vU/eTDvrJIDv9v/e/aNGAmRNwaFEuKtT5UqU0pBwce954PFieULzIlmUpV82wqcyHssY/4Xvyb8k5291Pxzehwn8/ue2WgavTwELNJzHoZOxdUatWQM04AAEAiQggAAAAAACaImkCkVJBXLkhmMejEBZKt+NJCGSrSTt+CyaVqzG+LjuVULNJOuzizltypRsVKJGU8W6ydD7onudx1Fx4o8sbWmbAgoGp3EWd7vLMNXfrJsOs53Djw2d11I1IsyRR58T/Ys45E3OdytlW6zzcDJFsVW8wC3TnRce+zxwvc7x0z/OcHAAARGb29vf12f0RCoZBKSkpsCwAAAMBk0draqmAw5aLqAEZJX1+fenp6NGvWLNuTLt1qKl8lPdKcwgwKAACAkTty5IiysrKUmZlpewbHTAgAAAAAAAAAAJAWhBAAAAAAAAAAACAtCCEAAAAAAPhcMesbUIoJAABMDIQQAAAAAAAAAAAgLQghAAAAAAAAAABAWhBCAAAAAAAAAACAtCCEAAAAAAAAAAAAaUEIAQAAAAAAAAAA0oIQAgAAAAAAAAAApAUhBAAAAAAAAAAASAtCCAAAAAAAAAAAkBaEEAAAAAAAAAAAIC0IIQAAAAAAAAAAQFoQQgAAAAAAMAGE12UoI6NMTV22w29XvTOWobInu21Hmrj3SfIMXU0qK29Smu8OAAA+hwghAAAAAACYEEpVGmxR846Br/rDz9Y4Y6W2lW4tqlxD4AAAAEYHIQQAAAAAABNCixataJSeaksIAMJqe2C9ylbYZro92KhGVWrTLtseNd1qKq93Pg0AADiTEEIAAAAAADBR5BWrTM1q85dD2tWmmgeLVWybMWHVZ5gSTnZb573e736yLLofEd8Xf179gLAhTxVr1qsmMFRgYAKF2DUiZaLc+2T4zjNlnNx7mHvmqDJUoyL3nEHKTgEAgM8dQggAAAAAACaMbBWvUFxJJlOKaf2NAduKMC/1i5wf/ervN9tBNb5S5IYB2UvLVPpAmy9A6FbbUy32GiY88J33TqP2BJIEAkuqtfPBGhUlhBkR4XU5al5x0N57pxZV5LhhRvZtzTrYtMee59xrTaUWOfeqXhJQtXPceuefne45zarI9a4FAAA+3wghAAAAAACYQEyIECvJFFbbK426c4nbiDGzI4L+/mxVPGJLOeVW6L4Ha9QWmeHQ1aZm2WN3bVJlZN9wj21RZ5JZCYH7d2r9Aw8nXaT64QfW677bsm1HQHc2lWpPp/fE2bc95gUi5atUuWCnqhOfHQAAnFEIIQAAAAAAmEhyTUkmb02G7icf1p4VxYq87o+zIG9gf6hTnc6PwI3rVfOsN4uhe0ez5L9GqFI5toyS2YoeUDRAiGfCBQ2ySHWkrJK35VS0qKXD3NnIdss5tYQWaef9iTM4AADAmYYQAgAAAACACcWUZCpVzbNNantKKluaNIKQXukcGA4E85Rnfi4p1nq3JJMpxZRwjQd32jJKsa05OqshnjurwQQiXXlaZPtcwUYdTLhGfzRwCKs+sEeNTVJRebIAAwAAnEkIIQAAAAAAmGC8dR0qVakyFSdbO8GEDCFvtoTHW38hNuMhoGJTkulJU4rJdw03nChKshj1YLwyT3sCRaqxPZGZGqvsYtSJwuuKtKfpMVXcVq2dCxKP25O09BMAAPj8IoQAAAAAAGCiMS/6g1LpYKWY5C30rECkJFKOu/6Cf0ZD4I5G7amo1KI1Fb5rJJ5ntiQLU/u560bYfVe2KrYcVNlTOb5rZLjBRnhdhopeadRj9jnMuhKRRavNvd3yTvNSuCcAAPjcyOjt7e23+yMSCoVUUlJiWwAAAAAmi9bWVgWDQdsCMFb6+vrU09OjWbNm2R4AAIDJ6ciRI8rKylJmZqbtGRwzIQAAAAAAAAAAQFoQQgAAAADABNCxdaVWbgzrhG1HnAhv0IZwYu8k07FNK1c6ny+6bVOHHYo5ofBGO57ke/B0aFvcdVZO/u8GAADgc44QAgAAAAAmit0NemJMX6qbF/8bFH7fNtPBBBB1+1X1o83avNlutVLdyvj7ngg/oYbcWm98dUBTbX+UG2TUSbW+6zjbPYEBR47c+2FtSHgeAAAAjA5CCAAAAACYIIJVVVLDc0lmCUxWHdpWF1Kw9h4FZtguI3+5NpqP+nz8Jy28cLbdS3RC4VZznc1anm+7RtOMgO7ZnPCMAAAAGBWEEAAAAAAwUcwOaFlZSHVbB4khzG/sJ5QqMuWaVkaP79A2Z7zD9EVKFpkx9zf9IyWMkpRCet1fLilxPL4E0jbfoLn3to5YGSX/mOv9w9qvoAqSBAdTLy9UYfM+5+re+asb2tXesHqQ6+xT++7k14nxlXMyW9z3lOR7SRyP+9zx14or+ZRYWirhzwMAAADxCCEAAAAAYALJv7VWwea6gS/iU7W7Qdt1uy1X5F1rZZN0uy1ftLFqf0LI0a6G9wqi5Y3c8eiLdfMy3lcC6UdV2l8XX7YoVPeEVOGND5il8P5htS+eraTzG2bM1nzt1+H3pyqw2ty3UIVVG0d+HZd5ztVqv9o732y1uQ1a7f+ccd9LknGfjq3+a9VqfsNq++dhZnYklJaypaPcMCjpWhcAAABnNkIIAAAAAJhQ8rW8NqhQ66f9DfuglkXXSchXQZnTUxJbY2Hq7Pl2L6JQVdfF3vpPDSxTcHe79pmgoeM5NahK10eGZ5iZGu067F87oWzZ+JcxsjMlYp87EuaYmRYRCePXVdmZGAneD2t7c/x3eH1VofYfNn8aszV7cbvaXx/4JzM1cI82b17uHA0AAAA/QggAAAAAmGjyr1eVxnqR6gjzot3uGrsbtNpXfqiuWfaFvGfwdRwcM2arcPdhHbbNOG6ppvmanUqAMdR1IpLOlDAzLexuIncmxmBCqvN9ZrdU1Hvm7t6sjdv1hB1j5gMAAMBwCCEAAAAAYMKZqkCFt0j14QEzF9LtsA7vtrtGWW2s9JDd7vHNKBiS+6I/pH1J3tSfeL1d7WUFqc0cGOI6UUlDiiFCDjcEGcTiKm1M+Mybb/XPFjGzHpy+WvlKVwEAACAZQggAAAAAmIhmBHS7WZ+hLmQ7HOZlfKRUkqtDzzW02/1Pq10Nz8fe7p8Ib1docaEKzMv7/ILPtj5FpLRUwjoSZnHn1Q2KKwM1tEGuEzGjQIWLQ9rumznSsbVOobiQI2H8+YbkIYi5VqqzUMwMDbsLAACA5AghAAAAAGCCctdnsPse8zJ+vhrujZQK2qeC2vgjRi6o2q/vs9czpYfmq9Yutuzez/11/8j9zDZIEDCY/OXaHPfMzuaudX3PyNaSSHYdZ/MCElMmaaMKf7k62l/XVaWNvtkL5nMWRssoJRuPGHgts0UXpvb1rby3XYUVLEwNAAAwlIze3t5+uz8ioVBIJSUltgUAAABgsmhtbVUw+FlfXAOTiQkP9qlgnBeO7uvrU09Pj2bNmmV7AAAAJqcjR44oKytLmZmZtmdwzIQAAAAAAGAi6GpSWUaGMqJbmZq67BgAAMAkRQgBAAAAAMC4C6t+XrPK3ulXf39ka1ZFrjfa/WSZyp7s9hoDOOdmZKh+l20CAABMIIQQAAAAAIDPObO2xfiWYhpWV6f2BMtUbEOHkQmour9f1UtsEwAAYAIhhAAAAAAAYLzl5mlRqFltQ5ZfanNnPETKNcVmRnSrqdxXumlXvTMWdvqSHQsAADC2CCEAAAAAABh3AVWHF6lyngkN6hW2vX4tFZ0qjpRqeqdRqtiU9DijpeJh6ZFIWaedWlSRQ7kmAAAwLgghAAAAAACYCJZUe6FBWCoyMxjKm+Sfv1DadKcCdl+5xSoL7lHnYDMnHrwvup6ECTjubCpVzbODRRYAAADpQwgBAAAAAMBE4oYRB9WoSq0apTJK2XmL7B4AAMDYIoQAAAAAAGDCyVbxilK7/9l1d+6xewAAAGOLEAIAAAAAgPHW1R1XekkKa1NFixblZdv2CD3wcGyhanut9TdGizkBAACMGUIIAAAAAADGW9cm5Zh1IKJbkRTuV/USOz5SD5ZJa2LX2tN08NNfCwAA4DPI6O3t7bf7IxIKhVRSUmJbAAAAACaL1tZWBYNB2wIwVvr6+tTT06NZs2bZnjTZVa+MZ4vVfz8zHwAAQHocOXJEWVlZyszMtD2DYyYEAAAAAAAAAABIC0IIAAAAAAAAAACQFoQQAAAAAAB8niypphQTAACYMAghAAAAAAAAAABAWhBCAAAAAAAAAACAtCCEAAAAAAAAAAAAaUEIAQAAAAAAAAAA0oIQAgAAAAAAAAAApAUhBAAAAAAAAAAASAtCCAAAAAAAAAAAkBaEEAAAAAAAAAAAIC0IIQAAAAAAAAAAQFoQQgAAAAAAMK661VSeoYyMZFu9wvaoz87cp0xNXbYZZ6gxAACAT48QAgAAAACAcZWtii396u83206tV6ka34m0qxWwRwEAAExGhBAAAAAAAAAAACAtCCEAAAAAAJjIdtWr7Mluhdd5JZrM/sASTgllm7qaVBYdi5yTwLmuGavfZdt+7j3D8fdYN3qFoQAAwJmDEAIAAAAAgAmupSJHbTd6JZqab8t2ejqVtyZSsqlfB5v2qCgaEoRVP69Si8Kxce8cHxNSBKSdzlj1EtuXoKXiYemRyDV2av0DD7NmBAAAGDFCCAAAAAAAJrpgo+6MCwsCCvja2XmL7J5jV5tqBhzvYwKIec0qe2eY9SYevE8VuXbfObL4wRZ1EkIAAIARIoQAAAAAAGCiW5Cn+LkMCeWYAjW23xpwfESLKgOVzr8XKS8aMAAAAKQPIQQAAAAAAJOKCSBy1LziYLTcUn94vR2zXul0jkqmVI3v2PJN5U2DHAMAADB6CCEAAAAAAJiEFuVF5jp0q+kR30yIJcVaH6rUpmQLTlvZtzVr54JKrUq2YDUAAMAoIoQAAAAAAGBSyVbFmvWqCUTKMa2S1jSq1I6a9Ruq32nUnuh4hsqShA2B+3dqUUVO0jEAAIDRktHb29tv90ckFAqppKTEtgAAAABMFq2trQoGg7YFYKz09fWpp6dHs2bNsj0AAACT05EjR5SVlaXMzEzbMzhmQgAAAAAAAAAAgLQghAAAAAAAAAAAAGlBCAEAAAAAAAAAANKCEAIAAAAAAAAAAKQFIQQAAAAAAAAAAEgLQggAAAAAAAAAAJAWhBAAAAAAAAAAACAtCCEAAAAAAAAAAEBaEEIAAAAAAAAAAIC0IIQAAAAAAAAAAABpQQgBAAAAAAAAAADSghACAAAAAAAAAACkBSEEAAAAAAAAAABIC0IIAAAAAADGVbeayjOUkZFsq1fYHvXZmfuUqanLNpPZVZ/G+wMAgDMRIQQAAAAAAOMqWxVb+tXfb7adWq9SNb4TaVcrYI9KOxNABPb47u1sYakoY5jgAgAAYAiEEAAAAAAAnPHCqg/UaH24WRW5tstYUq2DTVLl46nPhwivI7QAAAAxhBAAAAAAAExku+pV9mS3wuu8Eklmf2AJp4SySV1NKouORc5JYEsv1e9y9rs6tUfrVbzEG/LLXlqm0gfa7PXDqk+8l7lOeZPzRN4zFT3Qosp53n3dawMAgDMaIQQAAAAAABNcS0WO2m70SiQ135bt9HQqb02sbNLBpj0qWheJBsKqn1epReHYuHeOjwkpAtJOZ6zaBA9dnWoJ5inPG42Xm6dF2qPOYWc3mLJSB9UYjJWTcq8NAADOaIQQAAAAAABMdMFG3Rn3Qj+ggK+dnbfI7jl2talmwPE+JoCY16yyd8ZwvQkAAHDGIoQAAAAAAGCiW5Cn+LkMCeWYAjW23xpwfESLKgOVzr8XKc+/9kNunkpDneq0zThuqaaE4wEAAFJECAEAAAAAwKRiAogcNa84GC231B9eb8esVzqdo5LxSiW55ZvcdRwst+RSjdqSrOHQvaNZLQ8WM2sCAAB8KoQQAAAAAABMQovyInMdutX0iG8mxJJirQ9VatMQi0Jn39asnQsqtSq6YHVA1eH1qgmUqcm/9sOueuVUSI13RCKIPOUF/WFFwr1dLSmsHwEAAM4UhBAAAAAAAEwq2apYYwKDSDmmVdKaRpXaUTdQeKdRe6LjGSqLhg0xgft3alFFTmxsSbX6w4tUOS92Xoa7eHWzKqKlmJx7P+K/duK945+tfoggBAAAnBkyent7++3+iIRCIZWUlNgWAAAAgMmitbVVwWDQtgCMlb6+PvX09GjWrFm2BwAAYHI6cuSIsrKylJmZaXsGx0wIAAAAAAAAAACQFoQQAAAAAAAAAAAgLQghAAAAAAAAAABAWhBCAAAAAAAAAACAtCCEAAAAAAAAAAAAaUEIAQAAAAAAAAAA0oIQAgAAAAAAAAAApAUhBAAAAAAAAAAASAtCCAAAAAAAAAAAkBaEEAAAAAAAAAAAIC0IIQAAAAAAAAAAQFoQQgAAAAAAAAAAgLQghAAAAAAAYFx1q6k8QxkZybZ6he1Rn525T5maumwzmV31abx/WPXONet32eZnYZ5zXeTJIt9f8mftfrLM/Syjct9B2WeIPlNMeF267w0AwMRGCAEAAAAAwLjKVsWWfvX3m22n1qtUje9E2tUK2KPSzrzYD+zx3dvZwlJRxjDBRap2tWlPsFQ1z45erBFTqtJgjdoGvOzvVttTzmjQNtPtgSICBwAAEhBCAAAAAABwxgurPlCj9eFmVeTaLmNJtQ42SZWPpx4chNclDy3Cz9Zo0Zr7tP6BtlGcXRFTtmL9wICjq03NKlPZAttOq1I1NjnP8EiTum3PqOlqUlmSWRYAAEwGhBAAAAAAAExku+pV9mS3W9bHlBUy+7ESRJEtoRSReWkdHYuck8CWXnJ/c7+rU3u0XsVLvCG/7KVlKo0GB6akUsK9zHXKzYt375mKHmhR5TzvvtFZAc7zPPyAuX5AxQ8mzlhwrumcH7Zlk7xtqM8zSImopcUDAo7uHc3SimLl2XaU/eyRzXtO7/njZzIk9MWdl+Q5lt6pRlVqVbLvO8orSxV/bxPeOG33e7Tce5WpaZvzc16lWh4o8s7xHwMAwCRACAEAAAAAwATXUpGjthu9EknNt2U7PZ3KWxMrm3SwaY+Kor8pH1b9vEotCsfGvXN8zEv9gLTTGas2wUNXp1qCeQNf1hu5eVqkPeoctiSTKSt1UI3BWDkp99oOEwa0PFjslpYK3JhkxkKoUg/rsejz7nywRg9HX+Qnfp5itQVq7JhfYsDhlWIqW5rw2c3LffvZ3eu906g9ATN7I1vFKxLKRZmZFCEbzvi+M3Oe+50PCASc7+CRRqli1SAlrEyoUeR8pMR7O09/v/O5F0QCDOczu6WxmlWxvFr94fXSgzu9c7ZUOHcBAGDyIIQAAAAAAGCiCzbqzrhZCgEFfO3svEV2z7GrTTUDjvcxL9PnNavsnbFab8KEAS1af6O92xIzY+HhhJf063WfLygxQUVLR6fXGPB5ArqzqdTux4sLOEyAsOC++PJSDlMWqrTpzthnz63QY01S845uZd8WXy7KnUlhjw0/XhndN9xjQ52yTxljr5e0hNWuTaqU77M4x973YEs04Ancv1OLKlaprLxIe5oeG/DsAABMRoQQAAAAAABMdAvyEn77PaEcU+LMgAHHR7SoMlDp/HuR8vwvuHPzVJrshbrhlmpKOH4k3NkEUk0g8rxFqnGewLz0T1nC54kLXfx8AYcJDRZFgo8Ei/IGfjte6OGfTTFwJoWZkRL9zt3PkXyGiBdmDLJIdahSOdFrmPJV0p7OyHdhAhbzp9SoxxJnrwAAMEkRQgAAAAAAMKmYACJHzSsOeuV5zGbK9fi90ukclYxXKmlAKSG35FLiWg0efymlT8ObTeB7Vvu8LU+1DfKMSSR8nu7OPXYvkQkRTMDRpDZ3DQrbnSD20j+mNN8rRhWdTWEXtS72hS/rfSWuvC1hIe+ogKqdz2gWqVZ+wqyNSFkl3xYtl9XVpFUVi9S4olk5LEQNAPicIIQAAAAAAGASiv02f7eaHvHNhDCzAUKV2pTst/Ct7NuafesPGPaluV2fIGpXvXIqpMY7IhFEnvKC8esuxN3bFSsvZNY22OScP2BdBvcZm9WWZBbBAAM+j1feaTBuKaeKStUMEpx445uiJZe8F/++Z3RnU7SpyS5qHXlyN5wIDLIodjJLqt3vuKjC96zutQeZIWG+yzVm7YtqVdz2mBpfSThu0GAJAICJjRACAAAAAIBJJVsVa8wL8UhJn1XSmkbFft8+oGp3weNYyZ+yaNgQ460/kBMbW2IWQF6kynmx87wFnP2/7e8tvBy7duK945+t/sdmPYf42QSeyIyFVF6rJ36exHsmMC/6nR/RNSgSuZ9TKop8RnfRa/9nNCWR9qiyYlHcOhUDzjPbgIWp4wXuSHxO57P073R++K6RYYIfb3ZL5YKddjHvyPdsQ6Eld6pRtozTMPcEAGCiyejt7e23+yMSCoVUUlJiWwAAAAAmi9bWVgWDQdsCMFb6+vrU09OjWbNm2R4AAIDJ6ciRI8rKylJmZqbtGRwzIQAAAAAAAAAAQFoQQgAAAAAAAAAAgLQghAAAAAAAAAAAAGlBCAEAAAAAAAAAANKCEAIAAAAAgDHyhS/wv+EAAODMwt9+AAAAAAAYI/39/fr9739vWwAAAJOP+btMRkaGbQ0vo7e3t9/uj0goFFJJSYltAQAAAJgsWltbFQwGbQvAWOnr63P/p/3YsWP64IMP9PHHH7uhBAAAwGRggoezzz5bX/rSlzR9+nSdd955Kc3yJIQAAAAAzjCEEMD4+OSTT3T69Gn19PTod7/7nbtPCAEAACaLSAhx/vnnKysrS1/84hdTmhFBCAEAAACcYQghgPFhAgcTRJgZECaAMDMjAAAAJpPMzEw3iDjrrLPc/VQQQgAAAABnGEIIYHyZMCKyAQAATCZm5kNkSxUhBAAAAHCGIYQAAAAAMFaGXzUCAAAAAAAAAADgUyCEAAAAAAAAAAAAaUEIAQAAAAAAAAAA0oIQAgAAAAAAAAAApAUhBAAAAAAAAAAASAtCCAAAAAAAAAAAkBaEEAAAAAAAAAAAIA2k/x97fKluloWGlwAAAABJRU5ErkJggg==;" vertex="1" parent="1">
          <mxGeometry y="460" width="1102.41" height="430" as="geometry" />
        </mxCell>
      </root>
    </mxGraphModel>
  </diagram>
</mxfile>
